<svg width="32" height="32" viewBox="0 0 32 32" xmlns="http://www.w3.org/2000/svg">
<path fill-rule="evenodd" clip-rule="evenodd" d="M21.7666 19.8653L28.94 27.0387C29.1921 27.291 29.3337 27.6331 29.3336 27.9898C29.3334 28.3465 29.1916 28.6885 28.9393 28.9407C28.687 29.1928 28.3449 29.3344 27.9882 29.3342C27.6315 29.3341 27.2894 29.1923 27.0373 28.94L19.864 21.7667C17.7196 23.4276 15.023 24.2092 12.3228 23.9525C9.62261 23.6958 7.12162 22.42 5.32862 20.3848C3.53562 18.3496 2.5853 15.7077 2.67098 12.9967C2.75666 10.2857 3.87191 7.70913 5.78985 5.79119C7.70779 3.87325 10.2843 2.758 12.9954 2.67232C15.7064 2.58664 18.3482 3.53696 20.3835 5.32996C22.4187 7.12296 23.6944 9.62395 23.9511 12.3242C24.2078 15.0244 23.4262 17.7209 21.7653 19.8653H21.7666ZM13.3333 21.3333C15.455 21.3333 17.4899 20.4905 18.9902 18.9902C20.4905 17.4899 21.3333 15.4551 21.3333 13.3333C21.3333 11.2116 20.4905 9.17676 18.9902 7.67646C17.4899 6.17617 15.455 5.33332 13.3333 5.33332C11.2116 5.33332 9.17675 6.17617 7.67645 7.67646C6.17616 9.17676 5.33331 11.2116 5.33331 13.3333C5.33331 15.4551 6.17616 17.4899 7.67645 18.9902C9.17675 20.4905 11.2116 21.3333 13.3333 21.3333V21.3333Z" fill="black"/>
</svg>
