<svg width="32" height="32" viewBox="0 0 32 32" fill="none" xmlns="http://www.w3.org/2000/svg">
<path d="M18.86 12.48C18.409 11.909 18.1223 11.2257 18.0308 10.5038C17.9393 9.78191 18.0464 9.04873 18.3407 8.38321C18.635 7.7177 19.1052 7.14507 19.7008 6.72697C20.2964 6.30888 20.9947 6.06117 21.7206 6.01051C22.4465 5.95986 23.1725 6.10818 23.8203 6.4395C24.4682 6.77083 25.0134 7.2726 25.3973 7.8908C25.7811 8.50899 25.9891 9.22018 25.9987 9.94779C26.0083 10.6754 25.8193 11.3918 25.452 12.02C25.3017 12.0066 25.1509 11.9999 25 12H22C22.5304 12 23.0391 11.7893 23.4142 11.4142C23.7893 11.0391 24 10.5304 24 10C24 9.46957 23.7893 8.96086 23.4142 8.58579C23.0391 8.21071 22.5304 8 22 8C21.4696 8 20.9609 8.21071 20.5858 8.58579C20.2107 8.96086 20 9.46957 20 10C20 10.5304 20.2107 11.0391 20.5858 11.4142C20.9609 11.7893 21.4696 12 22 12H21C20.2599 11.999 19.5288 12.163 18.86 12.48V12.48ZM12 26C6.846 25.974 4 24.166 4 20.55V19C4 18.2044 4.31607 17.4413 4.87868 16.8787C5.44129 16.3161 6.20435 16 7 16H16.1C16.0944 16.028 16.0891 16.056 16.084 16.084C14.8522 16.3137 13.7516 16.9975 13 18H7C6.73478 18 6.48043 18.1054 6.29289 18.2929C6.10536 18.4804 6 18.7348 6 19V20.55C6 22.82 7.82 23.98 12 24V26ZM17 9C17 7.67392 16.4732 6.40215 15.5355 5.46447C14.5979 4.52678 13.3261 4 12 4C10.6739 4 9.40215 4.52678 8.46447 5.46447C7.52678 6.40215 7 7.67392 7 9C7 10.3261 7.52678 11.5979 8.46447 12.5355C9.40215 13.4732 10.6739 14 12 14C13.3261 14 14.5979 13.4732 15.5355 12.5355C16.4732 11.5979 17 10.3261 17 9ZM9 9C9 8.20435 9.31607 7.44129 9.87868 6.87868C10.4413 6.31607 11.2044 6 12 6C12.7956 6 13.5587 6.31607 14.1213 6.87868C14.6839 7.44129 15 8.20435 15 9C15 9.79565 14.6839 10.5587 14.1213 11.1213C13.5587 11.6839 12.7956 12 12 12C11.2044 12 10.4413 11.6839 9.87868 11.1213C9.31607 10.5587 9 9.79565 9 9ZM18 17V18H17C16.2044 18 15.4413 18.3161 14.8787 18.8787C14.3161 19.4413 14 20.2044 14 21V24H18V23C18 22.7348 18.1054 22.4804 18.2929 22.2929C18.4804 22.1054 18.7348 22 19 22C19.2652 22 19.5196 22.1054 19.7071 22.2929C19.8946 22.4804 20 22.7348 20 23V24H26V23C26 22.7348 26.1054 22.4804 26.2929 22.2929C26.4804 22.1054 26.7348 22 27 22C27.2652 22 27.5196 22.1054 27.7071 22.2929C27.8946 22.4804 28 22.7348 28 23V24H32V21C32 20.2044 31.6839 19.4413 31.1213 18.8787C30.5587 18.3161 29.7956 18 29 18H28V17C28 16.2044 27.6839 15.4413 27.1213 14.8787C26.5587 14.3161 25.7956 14 25 14H21C20.2044 14 19.4413 14.3161 18.8787 14.8787C18.3161 15.4413 18 16.2044 18 17V17ZM21 16H25C25.2652 16 25.5196 16.1054 25.7071 16.2929C25.8946 16.4804 26 16.7348 26 17V18H20V17C20 16.7348 20.1054 16.4804 20.2929 16.2929C20.4804 16.1054 20.7348 16 21 16ZM32 26H28V27C28 27.2652 27.8946 27.5196 27.7071 27.7071C27.5196 27.8946 27.2652 28 27 28C26.7348 28 26.4804 27.8946 26.2929 27.7071C26.1054 27.5196 26 27.2652 26 27V26H20V27C20 27.2652 19.8946 27.5196 19.7071 27.7071C19.5196 27.8946 19.2652 28 19 28C18.7348 28 18.4804 27.8946 18.2929 27.7071C18.1054 27.5196 18 27.2652 18 27V26H14V29C14 29.7956 14.3161 30.5587 14.8787 31.1213C15.4413 31.6839 16.2044 32 17 32H29C29.7956 32 30.5587 31.6839 31.1213 31.1213C31.6839 30.5587 32 29.7956 32 29V26Z" fill="black"/>
</svg>
