<svg width="32" height="32" viewBox="0 0 32 32" fill="none" xmlns="http://www.w3.org/2000/svg">
<path d="M18.4 12.8H25.6V11.8624C25.6002 11.6406 25.5695 11.4198 25.5088 11.2064L25.5072 11.2C25.3948 10.8094 25.1851 10.4538 24.8976 10.1664L18.6336 3.90241C18.1837 3.45278 17.5737 3.20015 16.9376 3.20001H9.60002C8.75133 3.20001 7.9374 3.53715 7.33728 4.13727C6.73717 4.73739 6.40002 5.55132 6.40002 6.40001V25.6C6.40002 26.4487 6.73717 27.2626 7.33728 27.8628C7.9374 28.4629 8.75133 28.8 9.60002 28.8H13.1536L13.1328 28.7584C12.8836 28.2785 12.7702 27.7397 12.8048 27.2H9.60002C9.17568 27.2 8.76871 27.0314 8.46865 26.7314C8.1686 26.4313 8.00002 26.0244 8.00002 25.6V6.40001C8.00002 5.97567 8.1686 5.5687 8.46865 5.26864C8.76871 4.96858 9.17568 4.80001 9.60002 4.80001H16V10.4C16 11.0365 16.2529 11.647 16.703 12.0971C17.1531 12.5472 17.7635 12.8 18.4 12.8ZM18.4 11.2C18.1879 11.2 17.9844 11.1157 17.8343 10.9657C17.6843 10.8157 17.6 10.6122 17.6 10.4V5.13121L23.6688 11.2H18.4Z" fill="black"/>
<path d="M23.696 15.2768C23.9731 14.9955 24.3032 14.7718 24.6671 14.6187C25.0311 14.4655 25.4218 14.3859 25.8166 14.3845C26.2115 14.383 26.6027 14.4597 26.9678 14.6102C27.3329 14.7607 27.6645 14.9819 27.9437 15.2612C28.2229 15.5404 28.444 15.8722 28.5943 16.2373C28.7446 16.6024 28.8212 16.9937 28.8196 17.3886C28.818 17.7834 28.7383 18.1741 28.585 18.538C28.4317 18.9019 28.2079 19.2318 27.9264 19.5088L20.1984 27.2352C19.7483 27.6856 19.1842 28.0053 18.5664 28.16L16.1696 28.7584C15.9313 28.8178 15.6817 28.8145 15.445 28.749C15.2083 28.6834 14.9926 28.5577 14.8189 28.3841C14.6451 28.2105 14.5192 27.9949 14.4534 27.7583C14.3876 27.5216 14.3841 27.272 14.4432 27.0336L15.0432 24.6368C15.1968 24.0192 15.5168 23.4528 15.968 23.0048L23.696 15.2768V15.2768Z" fill="black"/>
</svg>
