<svg width="32" height="32" viewBox="0 0 32 32" fill="none" xmlns="http://www.w3.org/2000/svg">
<path d="M19.07 12.722C18.5577 12.1707 18.2113 11.4862 18.0706 10.7469C17.9299 10.0076 18.0006 9.24363 18.2746 8.54273C18.5485 7.84183 19.0147 7.23243 19.6194 6.78455C20.2242 6.33667 20.943 6.06847 21.6934 6.01077C22.4437 5.95307 23.1951 6.10821 23.8612 6.45836C24.5273 6.80852 25.0812 7.33948 25.4591 7.99025C25.837 8.64102 26.0237 9.3852 25.9977 10.1373C25.9716 10.8894 25.734 11.6189 25.312 12.242C23.2286 11.7966 21.0608 11.9633 19.07 12.722V12.722ZM24 10C24 9.46957 23.7893 8.96086 23.4142 8.58579C23.0391 8.21071 22.5304 8 22 8C21.4696 8 20.9609 8.21071 20.5858 8.58579C20.2107 8.96086 20 9.46957 20 10C20 10.5304 20.2107 11.0391 20.5858 11.4142C20.9609 11.7893 21.4696 12 22 12C22.5304 12 23.0391 11.7893 23.4142 11.4142C23.7893 11.0391 24 10.5304 24 10ZM12.414 26H12.12C6.892 26 4 24.196 4 20.552V19C4 18.2044 4.31607 17.4413 4.87868 16.8787C5.44129 16.3161 6.20435 16 7 16H14.514C14.0047 16.617 13.5641 17.2876 13.2 18H7C6.73478 18 6.48043 18.1054 6.29289 18.2929C6.10536 18.4804 6 18.7348 6 19V20.55C6 22.828 7.834 23.988 12.044 24.002C12.106 24.688 12.232 25.356 12.414 26V26ZM17 9C17 7.67392 16.4732 6.40215 15.5355 5.46447C14.5979 4.52678 13.3261 4 12 4C10.6739 4 9.40215 4.52678 8.46447 5.46447C7.52678 6.40215 7 7.67392 7 9C7 10.3261 7.52678 11.5979 8.46447 12.5355C9.40215 13.4732 10.6739 14 12 14C13.3261 14 14.5979 13.4732 15.5355 12.5355C16.4732 11.5979 17 10.3261 17 9ZM9 9C9 8.20435 9.31607 7.44129 9.87868 6.87868C10.4413 6.31607 11.2044 6 12 6C12.7956 6 13.5587 6.31607 14.1213 6.87868C14.6839 7.44129 15 8.20435 15 9C15 9.79565 14.6839 10.5587 14.1213 11.1213C13.5587 11.6839 12.7956 12 12 12C11.2044 12 10.4413 11.6839 9.87868 11.1213C9.31607 10.5587 9 9.79565 9 9ZM14 23C14 25.3869 14.9482 27.6761 16.636 29.364C18.3239 31.0518 20.6131 32 23 32C25.3869 32 27.6761 31.0518 29.364 29.364C31.0518 27.6761 32 25.3869 32 23C32 20.6131 31.0518 18.3239 29.364 16.636C27.6761 14.9482 25.3869 14 23 14C20.6131 14 18.3239 14.9482 16.636 16.636C14.9482 18.3239 14 20.6131 14 23V23ZM27 17C27.2652 17 27.5196 17.1054 27.7071 17.2929C27.8946 17.4804 28 17.7348 28 18V21C28 21.2652 27.8946 21.5196 27.7071 21.7071C27.5196 21.8946 27.2652 22 27 22H24C23.7348 22 23.4804 21.8946 23.2929 21.7071C23.1054 21.5196 23 21.2652 23 21C23 20.7348 23.1054 20.4804 23.2929 20.2929C23.4804 20.1054 23.7348 20 24 20H24.936C24.3648 19.682 23.7237 19.5102 23.07 19.5C22.5327 19.4905 21.9989 19.5894 21.5007 19.7908C21.0024 19.9922 20.5499 20.2919 20.17 20.672C19.98 20.8466 19.7299 20.941 19.4719 20.9355C19.2139 20.93 18.968 20.8249 18.7857 20.6423C18.6034 20.4597 18.4987 20.2137 18.4935 19.9557C18.4883 19.6977 18.5831 19.4477 18.758 19.258C19.6918 18.3241 20.9077 17.7244 22.2171 17.552C23.5265 17.3795 24.8562 17.6438 26 18.304V18C26 17.7348 26.1054 17.4804 26.2929 17.2929C26.4804 17.1054 26.7348 17 27 17ZM25.248 28.064C24.4028 28.4055 23.4909 28.5498 22.5815 28.4861C21.6721 28.4223 20.7893 28.1521 20 27.696V28C20 28.2652 19.8946 28.5196 19.7071 28.7071C19.5196 28.8946 19.2652 29 19 29C18.7348 29 18.4804 28.8946 18.2929 28.7071C18.1054 28.5196 18 28.2652 18 28V25C18 24.7348 18.1054 24.4804 18.2929 24.2929C18.4804 24.1054 18.7348 24 19 24H22C22.2652 24 22.5196 24.1054 22.7071 24.2929C22.8946 24.4804 23 24.7348 23 25C23 25.2652 22.8946 25.5196 22.7071 25.7071C22.5196 25.8946 22.2652 26 22 26H21.064C21.8236 26.4208 22.6996 26.5828 23.5595 26.4616C24.4193 26.3403 25.2163 25.9424 25.83 25.328C26.02 25.1534 26.2701 25.059 26.5281 25.0645C26.7861 25.07 27.032 25.1751 27.2143 25.3577C27.3966 25.5403 27.5013 25.7863 27.5065 26.0443C27.5117 26.3023 27.4169 26.5523 27.242 26.742C26.672 27.312 25.994 27.762 25.248 28.062V28.064Z" fill="black"/>
</svg>
