<svg width="32" height="32" viewBox="0 0 32 32" fill="none" xmlns="http://www.w3.org/2000/svg">
<path d="M24.6666 26.6667C24.6666 26.8435 24.5964 27.013 24.4714 27.1381C24.3464 27.2631 24.1768 27.3333 24 27.3333H16.3573C15.9756 28.0648 15.4916 28.7383 14.92 29.3333H24C24.7072 29.3333 25.3855 29.0524 25.8856 28.5523C26.3857 28.0522 26.6666 27.3739 26.6666 26.6667V13.104C26.6665 12.3968 26.3854 11.7186 25.8853 11.2187L18.1133 3.44799C18.0927 3.42883 18.0709 3.41101 18.048 3.39466C18.0315 3.38192 18.0155 3.36858 18 3.35466C17.9082 3.26808 17.8107 3.1879 17.708 3.11466C17.6738 3.09263 17.6382 3.07303 17.6013 3.05599L17.5373 3.02399L17.4706 2.98532C17.3986 2.94399 17.3253 2.90132 17.2493 2.86932C16.9838 2.76327 16.7028 2.70113 16.4173 2.68532C16.3906 2.68399 16.364 2.67999 16.3386 2.67599C16.3025 2.6704 16.2659 2.66728 16.2293 2.66666H7.99998C7.29274 2.66666 6.61446 2.94761 6.11436 3.4477C5.61426 3.9478 5.33331 4.62608 5.33331 5.33332V15.3307C5.9748 15.063 6.64636 14.874 7.33331 14.768V5.33332C7.33331 5.15651 7.40355 4.98694 7.52857 4.86192C7.6536 4.73689 7.82317 4.66666 7.99998 4.66666H16V10.6667C16 11.3739 16.2809 12.0522 16.781 12.5523C17.2811 13.0524 17.9594 13.3333 18.6666 13.3333H24.6666V26.6667ZM18 6.16132L23.1706 11.3333H18.6666C18.4898 11.3333 18.3203 11.2631 18.1952 11.1381C18.0702 11.013 18 10.8435 18 10.6667V6.16132ZM16 23.3333C16 24.2964 15.8103 25.2499 15.4418 26.1397C15.0732 27.0294 14.5331 27.8378 13.8521 28.5188C13.1711 29.1997 12.3627 29.7399 11.473 30.1084C10.5833 30.477 9.62967 30.6667 8.66665 30.6667C7.70362 30.6667 6.75002 30.477 5.8603 30.1084C4.97058 29.7399 4.16216 29.1997 3.4812 28.5188C2.80023 27.8378 2.26006 27.0294 1.89153 26.1397C1.523 25.2499 1.33331 24.2964 1.33331 23.3333C1.33331 21.3884 2.10593 19.5231 3.4812 18.1479C4.85646 16.7726 6.72173 16 8.66665 16C10.6116 16 12.4768 16.7726 13.8521 18.1479C15.2274 19.5231 16 21.3884 16 23.3333V23.3333ZM13.1386 20.1947C13.0767 20.1326 13.0032 20.0833 12.9222 20.0497C12.8412 20.0161 12.7543 19.9988 12.6666 19.9988C12.579 19.9988 12.4921 20.0161 12.4111 20.0497C12.3301 20.0833 12.2566 20.1326 12.1946 20.1947L7.33331 25.0573L5.13865 22.8613C5.01346 22.7361 4.84368 22.6658 4.66665 22.6658C4.48961 22.6658 4.31983 22.7361 4.19465 22.8613C4.06946 22.9865 3.99914 23.1563 3.99914 23.3333C3.99914 23.5104 4.06946 23.6801 4.19465 23.8053L6.86131 26.472C6.92324 26.5341 6.99681 26.5833 7.0778 26.6169C7.15879 26.6506 7.24562 26.6678 7.33331 26.6678C7.421 26.6678 7.50783 26.6506 7.58882 26.6169C7.66982 26.5833 7.74339 26.5341 7.80531 26.472L13.1386 21.1387C13.2007 21.0767 13.25 21.0032 13.2836 20.9222C13.3172 20.8412 13.3345 20.7543 13.3345 20.6667C13.3345 20.579 13.3172 20.4921 13.2836 20.4111C13.25 20.3302 13.2007 20.2566 13.1386 20.1947V20.1947Z" fill="black"/>
</svg>
