<svg width="32" height="32" viewBox="0 0 32 32" fill="none" xmlns="http://www.w3.org/2000/svg">
<path d="M16.5714 18.2857C16.1723 18.8164 15.8363 19.3917 15.5703 20H12.2857C12.0584 20 11.8404 20.0903 11.6796 20.2511C11.5189 20.4118 11.4286 20.6298 11.4286 20.8571V22.48C11.7028 23.656 12.808 24.36 14.928 24.5371C15.0057 25.1394 15.1463 25.7234 15.3428 26.28C12.1291 26.1314 10.1771 24.976 9.73142 22.7394L9.71428 22.5714V20.8571C9.71428 20.1752 9.98519 19.5211 10.4674 19.0389C10.9497 18.5566 11.6037 18.2857 12.2857 18.2857H16.5714ZM29.2708 17.1566C28.8415 16.7567 28.3724 16.4017 27.8708 16.0971C27.9303 15.9566 27.9737 15.8069 28 15.6491V14C28 13.7727 27.9097 13.5547 27.7489 13.3939C27.5882 13.2332 27.3702 13.1429 27.1428 13.1429H21.1428C21.1428 12.5417 21.04 11.9634 20.8503 11.4274L27.1428 11.4286C27.8248 11.4286 28.4789 11.6995 28.9611 12.1817C29.4434 12.664 29.7143 13.318 29.7143 14V15.7166L29.7051 15.84C29.6425 16.3018 29.4952 16.7481 29.2708 17.1566V17.1566ZM11.1497 11.4274L4.85713 11.4286C4.17515 11.4286 3.5211 11.6995 3.03886 12.1817C2.55662 12.664 2.28571 13.318 2.28571 14V15.7143L2.30171 15.8823C2.78171 18.2834 4.99885 19.4389 8.64799 19.4389L8.85371 19.4366C9.17984 18.6505 9.76551 17.9998 10.5131 17.5931C9.97828 17.68 9.35885 17.7246 8.64799 17.7246C5.77256 17.7246 4.31999 16.9954 3.99999 15.6229V14C3.99999 13.7727 4.0903 13.5547 4.25104 13.3939C4.41179 13.2332 4.62981 13.1429 4.85713 13.1429H10.8571L10.8651 12.8446C10.8937 12.3497 10.992 11.8743 11.1508 11.4274H11.1497ZM20 13.1429C20 12.082 19.5786 11.0646 18.8284 10.3144C18.0783 9.56429 17.0609 9.14286 16 9.14286C14.9391 9.14286 13.9217 9.56429 13.1716 10.3144C12.4214 11.0646 12 12.082 12 13.1429C12 14.2037 12.4214 15.2211 13.1716 15.9713C13.9217 16.7214 14.9391 17.1429 16 17.1429C17.0609 17.1429 18.0783 16.7214 18.8284 15.9713C19.5786 15.2211 20 14.2037 20 13.1429V13.1429ZM13.7143 13.1429C13.7143 12.5367 13.9551 11.9553 14.3837 11.5266C14.8124 11.098 15.3938 10.8571 16 10.8571C16.6062 10.8571 17.1876 11.098 17.6162 11.5266C18.0449 11.9553 18.2857 12.5367 18.2857 13.1429C18.2857 13.7491 18.0449 14.3305 17.6162 14.7591C17.1876 15.1878 16.6062 15.4286 16 15.4286C15.3938 15.4286 14.8124 15.1878 14.3837 14.7591C13.9551 14.3305 13.7143 13.7491 13.7143 13.1429ZM27.4286 6.28572C27.4286 5.22485 27.0071 4.20744 26.257 3.45729C25.5068 2.70715 24.4894 2.28572 23.4286 2.28572C22.3677 2.28572 21.3503 2.70715 20.6001 3.45729C19.85 4.20744 19.4286 5.22485 19.4286 6.28572C19.4286 7.34659 19.85 8.364 20.6001 9.11415C21.3503 9.86429 22.3677 10.2857 23.4286 10.2857C24.4894 10.2857 25.5068 9.86429 26.257 9.11415C27.0071 8.364 27.4286 7.34659 27.4286 6.28572V6.28572ZM21.1428 6.28572C21.1428 5.67951 21.3837 5.09813 21.8123 4.66948C22.241 4.24082 22.8224 4.00001 23.4286 4.00001C24.0348 4.00001 24.6162 4.24082 25.0448 4.66948C25.4735 5.09813 25.7143 5.67951 25.7143 6.28572C25.7143 6.89193 25.4735 7.47331 25.0448 7.90196C24.6162 8.33062 24.0348 8.57143 23.4286 8.57143C22.8224 8.57143 22.241 8.33062 21.8123 7.90196C21.3837 7.47331 21.1428 6.89193 21.1428 6.28572ZM12.5714 6.28572C12.5714 5.22485 12.15 4.20744 11.3998 3.45729C10.6497 2.70715 9.63229 2.28572 8.57142 2.28572C7.51055 2.28572 6.49314 2.70715 5.74299 3.45729C4.99285 4.20744 4.57142 5.22485 4.57142 6.28572C4.57142 7.34659 4.99285 8.364 5.74299 9.11415C6.49314 9.86429 7.51055 10.2857 8.57142 10.2857C9.63229 10.2857 10.6497 9.86429 11.3998 9.11415C12.15 8.364 12.5714 7.34659 12.5714 6.28572V6.28572ZM6.28571 6.28572C6.28571 5.67951 6.52652 5.09813 6.95518 4.66948C7.38383 4.24082 7.96521 4.00001 8.57142 4.00001C9.17763 4.00001 9.75901 4.24082 10.1877 4.66948C10.6163 5.09813 10.8571 5.67951 10.8571 6.28572C10.8571 6.89193 10.6163 7.47331 10.1877 7.90196C9.75901 8.33062 9.17763 8.57143 8.57142 8.57143C7.96521 8.57143 7.38383 8.33062 6.95518 7.90196C6.52652 7.47331 6.28571 6.89193 6.28571 6.28572ZM23.4286 30.8571C25.3987 30.8571 27.2882 30.0745 28.6814 28.6814C30.0745 27.2882 30.8571 25.3988 30.8571 23.4286C30.8571 21.4584 30.0745 19.5689 28.6814 18.1758C27.2882 16.7827 25.3987 16 23.4286 16C21.4584 16 19.5689 16.7827 18.1758 18.1758C16.7826 19.5689 16 21.4584 16 23.4286C16 25.3988 16.7826 27.2882 18.1758 28.6814C19.5689 30.0745 21.4584 30.8571 23.4286 30.8571V30.8571ZM23.4286 18.2857C23.5801 18.2857 23.7255 18.3459 23.8326 18.4531C23.9398 18.5603 24 18.7056 24 18.8571V22.8571H28C28.1515 22.8571 28.2969 22.9174 28.4041 23.0245C28.5112 23.1317 28.5714 23.277 28.5714 23.4286C28.5714 23.5801 28.5112 23.7255 28.4041 23.8326C28.2969 23.9398 28.1515 24 28 24H24V28C24 28.1516 23.9398 28.2969 23.8326 28.4041C23.7255 28.5112 23.5801 28.5714 23.4286 28.5714C23.277 28.5714 23.1317 28.5112 23.0245 28.4041C22.9173 28.2969 22.8571 28.1516 22.8571 28V24H18.8571C18.7056 24 18.5602 23.9398 18.4531 23.8326C18.3459 23.7255 18.2857 23.5801 18.2857 23.4286C18.2857 23.277 18.3459 23.1317 18.4531 23.0245C18.5602 22.9174 18.7056 22.8571 18.8571 22.8571H22.8571V18.8571C22.8571 18.7056 22.9173 18.5603 23.0245 18.4531C23.1317 18.3459 23.277 18.2857 23.4286 18.2857V18.2857Z" fill="black"/>
</svg>
