<svg width="32" height="32" viewBox="0 0 32 32" fill="none" xmlns="http://www.w3.org/2000/svg">
<path d="M17.6 16C18.2038 15.9996 18.7955 16.1701 19.3065 16.4917C19.8175 16.8134 20.2272 17.273 20.488 17.8176L19.1968 19.1088C19.1735 18.701 18.9952 18.3176 18.6983 18.037C18.4014 17.7565 18.0085 17.6002 17.6 17.6H6.40001C5.97567 17.6 5.5687 17.7686 5.26864 18.0686C4.96858 18.3687 4.80001 18.7757 4.80001 19.2V21.6C4.80001 23.8512 7.32641 25.6 12 25.6C13.0464 25.6 13.984 25.512 14.8128 25.3504L14.488 26.6464C14.456 26.7744 14.432 26.9056 14.4176 27.0336C13.6672 27.1424 12.8592 27.2 12 27.2C6.54081 27.2 3.20001 24.8864 3.20001 21.6V19.2C3.20001 18.3513 3.53715 17.5374 4.13727 16.9373C4.73739 16.3371 5.55132 16 6.40001 16H17.6Z" fill="black"/>
<path d="M25.2913 15.2768C25.5691 14.9989 25.899 14.7785 26.2621 14.6281C26.6251 14.4777 27.0143 14.4003 27.4073 14.4003C27.8002 14.4003 28.1894 14.4777 28.5524 14.6281C28.9155 14.7785 29.2454 14.9989 29.5233 15.2768C29.8011 15.5547 30.0216 15.8846 30.1719 16.2476C30.3223 16.6107 30.3997 16.9998 30.3997 17.3928C30.3997 17.7858 30.3223 18.1749 30.1719 18.538C30.0216 18.901 29.8011 19.2309 29.5233 19.5088L21.7953 27.2352C21.3451 27.6856 20.781 28.0052 20.1633 28.16L17.7665 28.7584C17.5282 28.8174 17.2788 28.8139 17.0423 28.7482C16.8059 28.6824 16.5904 28.5567 16.4169 28.3831C16.2434 28.2096 16.1176 27.9942 16.0519 27.7577C15.9861 27.5212 15.9826 27.2718 16.0417 27.0336L16.6401 24.6368C16.7953 24.0192 17.1137 23.4528 17.5649 23.0048L25.2929 15.2768H25.2913Z" fill="black"/>
<path d="M23.2 14.4C23.7254 14.4002 24.2456 14.2969 24.731 14.0959C25.2164 13.895 25.6574 13.6004 26.0289 13.2289C26.4004 12.8574 26.695 12.4164 26.896 11.931C27.0969 11.4456 27.2002 10.9253 27.2 10.4C27.2 9.60887 26.9654 8.83551 26.5259 8.17772C26.0864 7.51992 25.4617 7.00723 24.7307 6.70448C23.9998 6.40173 23.1956 6.32251 22.4197 6.47685C21.6437 6.6312 20.931 7.01216 20.3716 7.57157C19.8122 8.13098 19.4312 8.84371 19.2769 9.61963C19.1225 10.3956 19.2017 11.1998 19.5045 11.9307C19.8072 12.6616 20.3199 13.2863 20.9777 13.7259C21.6355 14.1654 22.4089 14.4 23.2 14.4ZM23.2 8C23.8365 8 24.447 8.25285 24.8971 8.70294C25.3472 9.15303 25.6 9.76348 25.6 10.4C25.6 11.0365 25.3472 11.647 24.8971 12.0971C24.447 12.5471 23.8365 12.8 23.2 12.8C22.5635 12.8 21.953 12.5471 21.503 12.0971C21.0529 11.647 20.8 11.0365 20.8 10.4C20.8 9.76348 21.0529 9.15303 21.503 8.70294C21.953 8.25285 22.5635 8 23.2 8Z" fill="black"/>
<path d="M12 3.2C12.7354 3.2 13.4636 3.34485 14.1431 3.62627C14.8225 3.9077 15.4398 4.32019 15.9598 4.8402C16.4798 5.36021 16.8923 5.97755 17.1738 6.65697C17.4552 7.33639 17.6 8.06459 17.6 8.8C17.6 9.5354 17.4552 10.2636 17.1738 10.943C16.8923 11.6224 16.4798 12.2398 15.9598 12.7598C15.4398 13.2798 14.8225 13.6923 14.1431 13.9737C13.4636 14.2551 12.7354 14.4 12 14.4C10.5148 14.4 9.09043 13.81 8.04023 12.7598C6.99002 11.7096 6.40002 10.2852 6.40002 8.8C6.40002 7.31478 6.99002 5.8904 8.04023 4.8402C9.09043 3.79 10.5148 3.2 12 3.2V3.2ZM12 4.8C10.9392 4.8 9.92174 5.22142 9.1716 5.97157C8.42145 6.72172 8.00002 7.73913 8.00002 8.8C8.00002 9.86086 8.42145 10.8783 9.1716 11.6284C9.92174 12.3786 10.9392 12.8 12 12.8C13.0609 12.8 14.0783 12.3786 14.8285 11.6284C15.5786 10.8783 16 9.86086 16 8.8C16 7.73913 15.5786 6.72172 14.8285 5.97157C14.0783 5.22142 13.0609 4.8 12 4.8Z" fill="black"/>
</svg>
