<svg width="32" height="32" viewBox="0 0 32 32" fill="none" xmlns="http://www.w3.org/2000/svg">
<path d="M24.6666 26.6667C24.6666 26.8435 24.5964 27.013 24.4714 27.1381C24.3464 27.2631 24.1768 27.3333 24 27.3333H16.3573C15.9756 28.0648 15.4916 28.7383 14.92 29.3333H24C24.7072 29.3333 25.3855 29.0524 25.8856 28.5523C26.3857 28.0522 26.6666 27.3739 26.6666 26.6667V13.104C26.6665 12.3968 26.3854 11.7186 25.8853 11.2187L18.1133 3.44799C18.0927 3.42883 18.0709 3.41101 18.048 3.39466C18.0315 3.38192 18.0155 3.36858 18 3.35466C17.9082 3.26808 17.8107 3.1879 17.708 3.11466C17.6738 3.09263 17.6382 3.07303 17.6013 3.05599L17.5373 3.02399L17.4706 2.98532C17.3986 2.94399 17.3253 2.90132 17.2493 2.86932C16.9838 2.76327 16.7028 2.70113 16.4173 2.68532C16.3906 2.68399 16.364 2.67999 16.3386 2.67599C16.3025 2.6704 16.2659 2.66728 16.2293 2.66666H7.99998C7.29274 2.66666 6.61446 2.94761 6.11436 3.4477C5.61426 3.9478 5.33331 4.62608 5.33331 5.33332V15.3307C5.9748 15.063 6.64636 14.874 7.33331 14.768V5.33332C7.33331 5.15651 7.40355 4.98694 7.52858 4.86192C7.6536 4.73689 7.82317 4.66666 7.99998 4.66666H16V10.6667C16 11.3739 16.2809 12.0522 16.781 12.5523C17.2811 13.0524 17.9594 13.3333 18.6666 13.3333H24.6666V26.6667ZM18 6.16132L23.1706 11.3333H18.6666C18.4898 11.3333 18.3203 11.2631 18.1952 11.1381C18.0702 11.013 18 10.8435 18 10.6667V6.16132Z" fill="black"/>
<path d="M16 23.3333C16 22.3703 15.8103 21.4167 15.4418 20.527C15.0732 19.6373 14.5331 18.8288 13.8521 18.1479C13.1711 17.4669 12.3627 16.9268 11.473 16.5582C10.5833 16.1897 9.62967 16 8.66665 16C7.70362 16 6.75002 16.1897 5.8603 16.5582C4.97058 16.9268 4.16216 17.4669 3.4812 18.1479C2.80023 18.8288 2.26006 19.6373 1.89153 20.527C1.523 21.4167 1.33331 22.3703 1.33331 23.3333C1.33331 25.2783 2.10593 27.1435 3.4812 28.5188C4.85646 29.894 6.72173 30.6667 8.66665 30.6667C10.6116 30.6667 12.4768 29.894 13.8521 28.5188C15.2274 27.1435 16 25.2783 16 23.3333V23.3333ZM9.33331 24L9.33465 27.3373C9.33465 27.5141 9.26441 27.6837 9.13938 27.8087C9.01436 27.9338 8.84479 28.004 8.66798 28.004C8.49117 28.004 8.3216 27.9338 8.19658 27.8087C8.07155 27.6837 8.00131 27.5141 8.00131 27.3373V24H4.66131C4.4845 24 4.31493 23.9298 4.18991 23.8047C4.06488 23.6797 3.99465 23.5101 3.99465 23.3333C3.99465 23.1565 4.06488 22.987 4.18991 22.8619C4.31493 22.7369 4.4845 22.6667 4.66131 22.6667H7.99998V19.3333C7.99998 19.1565 8.07022 18.987 8.19524 18.8619C8.32027 18.7369 8.48984 18.6667 8.66665 18.6667C8.84346 18.6667 9.01303 18.7369 9.13805 18.8619C9.26308 18.987 9.33331 19.1565 9.33331 19.3333V22.6667H12.6626C12.8395 22.6667 13.009 22.7369 13.1341 22.8619C13.2591 22.987 13.3293 23.1565 13.3293 23.3333C13.3293 23.5101 13.2591 23.6797 13.1341 23.8047C13.009 23.9298 12.8395 24 12.6626 24H9.33331Z" fill="black"/>
</svg>
