<svg width="32" height="32" viewBox="0 0 32 32" fill="none" xmlns="http://www.w3.org/2000/svg">
<path d="M25.8853 11.2187L18.1133 3.44799C18.0927 3.42883 18.0709 3.41102 18.048 3.39466C18.0315 3.38193 18.0155 3.36858 18 3.35466C17.9082 3.26808 17.8107 3.1879 17.708 3.11466C17.6738 3.09263 17.6382 3.07303 17.6013 3.05599L17.5373 3.02399L17.4706 2.98532C17.3986 2.94399 17.3253 2.90132 17.2493 2.86932C16.9838 2.76327 16.7028 2.70113 16.4173 2.68532C16.3906 2.68399 16.364 2.67999 16.3386 2.67599C16.3025 2.6704 16.2659 2.66728 16.2293 2.66666H7.99998C7.29274 2.66666 6.61446 2.94761 6.11436 3.4477C5.61426 3.9478 5.33331 4.62608 5.33331 5.33332V26.6667C5.33331 27.3739 5.61426 28.0522 6.11436 28.5523C6.61446 29.0524 7.29274 29.3333 7.99998 29.3333H17.08C16.5084 28.7383 16.0244 28.0648 15.6426 27.3333H7.99998C7.82317 27.3333 7.6536 27.2631 7.52858 27.1381C7.40355 27.013 7.33331 26.8435 7.33331 26.6667V5.33332C7.33331 5.15651 7.40355 4.98694 7.52858 4.86192C7.6536 4.73689 7.82317 4.66666 7.99998 4.66666H16V10.6667C16 11.3739 16.2809 12.0522 16.781 12.5523C17.2811 13.0524 17.9594 13.3333 18.6666 13.3333H24.6666V14.768C25.364 14.876 26.0346 15.0667 26.6666 15.3307V13.104C26.6665 12.3968 26.3854 11.7186 25.8853 11.2187V11.2187ZM18 6.16132L23.1706 11.3333H18.6666C18.4898 11.3333 18.3203 11.2631 18.1952 11.1381C18.0702 11.013 18 10.8435 18 10.6667V6.16132ZM14.3333 23.3333H14.6666C14.6666 24.0213 14.7466 24.6907 14.8986 25.3333H14.3333C14.0681 25.3333 13.8137 25.228 13.6262 25.0404C13.4387 24.8529 13.3333 24.5985 13.3333 24.3333C13.3333 24.0681 13.4387 23.8138 13.6262 23.6262C13.8137 23.4387 14.0681 23.3333 14.3333 23.3333ZM14.8986 21.3333C15.0653 20.6293 15.3173 19.96 15.6426 19.3333H14.3333C14.0681 19.3333 13.8137 19.4387 13.6262 19.6262C13.4387 19.8138 13.3333 20.0681 13.3333 20.3333C13.3333 20.5985 13.4387 20.8529 13.6262 21.0404C13.8137 21.228 14.0681 21.3333 14.3333 21.3333H14.8986ZM17.08 17.3333C17.9041 16.4738 18.8962 15.793 19.9946 15.3333H14.3333C14.0681 15.3333 13.8137 15.4387 13.6262 15.6262C13.4387 15.8138 13.3333 16.0681 13.3333 16.3333C13.3333 16.5985 13.4387 16.8529 13.6262 17.0404C13.8137 17.228 14.0681 17.3333 14.3333 17.3333H17.08V17.3333ZM10.3333 15.3333C10.0681 15.3333 9.81374 15.4387 9.62621 15.6262C9.43867 15.8138 9.33331 16.0681 9.33331 16.3333C9.33331 16.5985 9.43867 16.8529 9.62621 17.0404C9.81374 17.228 10.0681 17.3333 10.3333 17.3333C10.5985 17.3333 10.8529 17.228 11.0404 17.0404C11.228 16.8529 11.3333 16.5985 11.3333 16.3333C11.3333 16.0681 11.228 15.8138 11.0404 15.6262C10.8529 15.4387 10.5985 15.3333 10.3333 15.3333V15.3333ZM9.33331 20.3333C9.33331 20.0681 9.43867 19.8138 9.62621 19.6262C9.81374 19.4387 10.0681 19.3333 10.3333 19.3333C10.5985 19.3333 10.8529 19.4387 11.0404 19.6262C11.228 19.8138 11.3333 20.0681 11.3333 20.3333C11.3333 20.5985 11.228 20.8529 11.0404 21.0404C10.8529 21.228 10.5985 21.3333 10.3333 21.3333C10.0681 21.3333 9.81374 21.228 9.62621 21.0404C9.43867 20.8529 9.33331 20.5985 9.33331 20.3333ZM9.33331 24.3333C9.33331 24.0681 9.43867 23.8138 9.62621 23.6262C9.81374 23.4387 10.0681 23.3333 10.3333 23.3333C10.5985 23.3333 10.8529 23.4387 11.0404 23.6262C11.228 23.8138 11.3333 24.0681 11.3333 24.3333C11.3333 24.5985 11.228 24.8529 11.0404 25.0404C10.8529 25.228 10.5985 25.3333 10.3333 25.3333C10.0681 25.3333 9.81374 25.228 9.62621 25.0404C9.43867 24.8529 9.33331 24.5985 9.33331 24.3333ZM30.6666 23.3333C30.6666 21.3884 29.894 19.5231 28.5188 18.1479C27.1435 16.7726 25.2782 16 23.3333 16C21.3884 16 19.5231 16.7726 18.1479 18.1479C16.7726 19.5231 16 21.3884 16 23.3333C16 25.2782 16.7726 27.1435 18.1479 28.5188C19.5231 29.894 21.3884 30.6667 23.3333 30.6667C25.2782 30.6667 27.1435 29.894 28.5188 28.5188C29.894 27.1435 30.6666 25.2782 30.6666 23.3333ZM22.96 23.8907C22.8545 23.8209 22.771 23.7225 22.7193 23.6071C22.6676 23.4916 22.6498 23.3638 22.668 23.2387L22.6666 18C22.6666 17.8232 22.7369 17.6536 22.8619 17.5286C22.9869 17.4036 23.1565 17.3333 23.3333 17.3333C23.5101 17.3333 23.6797 17.4036 23.8047 17.5286C23.9297 17.6536 24 17.8232 24 18L24.0013 22.6667H27.3293C27.5061 22.6667 27.6757 22.7369 27.8007 22.8619C27.9257 22.9869 27.996 23.1565 27.996 23.3333C27.996 23.5101 27.9257 23.6797 27.8007 23.8047C27.6757 23.9298 27.5061 24 27.3293 24H23.4133C23.254 24.0185 23.0933 23.9797 22.96 23.8907V23.8907Z" fill="black"/>
</svg>
