<svg width="32" height="32" viewBox="0 0 32 32" fill="none" xmlns="http://www.w3.org/2000/svg">
<path d="M17.6 16C18.4487 16 19.2626 16.3371 19.8628 16.9373C20.4629 17.5374 20.8 18.3513 20.8 19.2H20C19.72 19.2 19.4496 19.248 19.2 19.336V19.2C19.2 18.7756 19.0314 18.3687 18.7314 18.0686C18.4313 17.7686 18.0244 17.6 17.6 17.6H6.40001C5.97567 17.6 5.5687 17.7686 5.26864 18.0686C4.96858 18.3687 4.80001 18.7756 4.80001 19.2V21.6C4.80001 23.8512 7.32641 25.6 12 25.6C14.5008 25.6 16.3872 25.0992 17.6 24.288V26.1072C16.1536 26.8048 14.2576 27.2 12 27.2C6.54081 27.2 3.20001 24.8864 3.20001 21.6V19.2C3.20001 18.3513 3.53715 17.5374 4.13727 16.9373C4.73739 16.3371 5.55132 16 6.40001 16H17.6ZM28 19.2C28.28 19.2 28.5504 19.248 28.8 19.336V19.2C28.8 18.3513 28.4629 17.5374 27.8628 16.9373C27.2626 16.3371 26.4487 16 25.6 16H21.176C21.5942 16.4662 21.917 17.0098 22.1264 17.6H25.6C26.0244 17.6 26.4313 17.7686 26.7314 18.0686C27.0314 18.3687 27.2 18.7756 27.2 19.2H28ZM12 3.2C12.7354 3.2 13.4636 3.34485 14.143 3.62627C14.8225 3.9077 15.4398 4.32019 15.9598 4.8402C16.4798 5.36021 16.8923 5.97755 17.1737 6.65697C17.4552 7.33639 17.6 8.06459 17.6 8.8C17.6 9.5354 17.4552 10.2636 17.1737 10.943C16.8923 11.6224 16.4798 12.2398 15.9598 12.7598C15.4398 13.2798 14.8225 13.6923 14.143 13.9737C13.4636 14.2551 12.7354 14.4 12 14.4C10.5148 14.4 9.09042 13.81 8.04021 12.7598C6.99001 11.7096 6.40001 10.2852 6.40001 8.8C6.40001 7.31478 6.99001 5.8904 8.04021 4.8402C9.09042 3.79 10.5148 3.2 12 3.2V3.2ZM12 4.8C10.9391 4.8 9.92173 5.22142 9.17158 5.97157C8.42144 6.72172 8.00001 7.73913 8.00001 8.8C8.00001 9.86086 8.42144 10.8783 9.17158 11.6284C9.92173 12.3786 10.9391 12.8 12 12.8C13.0609 12.8 14.0783 12.3786 14.8284 11.6284C15.5786 10.8783 16 9.86086 16 8.8C16 7.73913 15.5786 6.72172 14.8284 5.97157C14.0783 5.22142 13.0609 4.8 12 4.8ZM23.2 6.4C24.2609 6.4 25.2783 6.82142 26.0284 7.57157C26.7786 8.32172 27.2 9.33913 27.2 10.4C27.2 11.4609 26.7786 12.4783 26.0284 13.2284C25.2783 13.9786 24.2609 14.4 23.2 14.4C22.1391 14.4 21.1217 13.9786 20.3716 13.2284C19.6214 12.4783 19.2 11.4609 19.2 10.4C19.2 9.33913 19.6214 8.32172 20.3716 7.57157C21.1217 6.82142 22.1391 6.4 23.2 6.4ZM23.2 8C22.5635 8 21.953 8.25285 21.503 8.70294C21.0529 9.15303 20.8 9.76348 20.8 10.4C20.8 11.0365 21.0529 11.647 21.503 12.0971C21.953 12.5471 22.5635 12.8 23.2 12.8C23.8365 12.8 24.447 12.5471 24.8971 12.0971C25.3472 11.647 25.6 11.0365 25.6 10.4C25.6 9.76348 25.3472 9.15303 24.8971 8.70294C24.447 8.25285 23.8365 8 23.2 8ZM20 20.8C19.7878 20.8 19.5844 20.8843 19.4343 21.0343C19.2843 21.1843 19.2 21.3878 19.2 21.6C19.2 21.8122 19.2843 22.0157 19.4343 22.1657C19.5844 22.3157 19.7878 22.4 20 22.4H28C28.2122 22.4 28.4157 22.3157 28.5657 22.1657C28.7157 22.0157 28.8 21.8122 28.8 21.6C28.8 21.3878 28.7157 21.1843 28.5657 21.0343C28.4157 20.8843 28.2122 20.8 28 20.8H20ZM20 24C19.7878 24 19.5844 24.0843 19.4343 24.2343C19.2843 24.3843 19.2 24.5878 19.2 24.8C19.2 25.0122 19.2843 25.2157 19.4343 25.3657C19.5844 25.5157 19.7878 25.6 20 25.6H28C28.2122 25.6 28.4157 25.5157 28.5657 25.3657C28.7157 25.2157 28.8 25.0122 28.8 24.8C28.8 24.5878 28.7157 24.3843 28.5657 24.2343C28.4157 24.0843 28.2122 24 28 24H20ZM20 27.2C19.7878 27.2 19.5844 27.2843 19.4343 27.4343C19.2843 27.5843 19.2 27.7878 19.2 28C19.2 28.2122 19.2843 28.4157 19.4343 28.5657C19.5844 28.7157 19.7878 28.8 20 28.8H28C28.2122 28.8 28.4157 28.7157 28.5657 28.5657C28.7157 28.4157 28.8 28.2122 28.8 28C28.8 27.7878 28.7157 27.5843 28.5657 27.4343C28.4157 27.2843 28.2122 27.2 28 27.2H20Z" fill="black"/>
</svg>
