<svg width="32" height="32" viewBox="0 0 32 32" fill="none" xmlns="http://www.w3.org/2000/svg">
<path d="M17.08 17.3333H5.33335C4.62611 17.3333 3.94783 17.6143 3.44774 18.1144C2.94764 18.6145 2.66669 19.2928 2.66669 20V22L2.67335 22.3067C2.88669 26.7253 7.70402 28 11.3334 28C12.7067 28 14.252 27.8173 15.652 27.3507C15.3454 26.764 15.1014 26.1373 14.936 25.48C14.0054 25.7787 12.9094 25.9587 11.756 25.9933L11.3334 26L10.9107 25.9933C9.22669 25.9413 7.65735 25.5827 6.55602 24.9893C5.26669 24.296 4.66669 23.3453 4.66669 22V19.9987L4.68002 19.864C4.70661 19.7364 4.76959 19.6192 4.86135 19.5267C4.9541 19.4352 5.07119 19.3722 5.19869 19.3453L5.33335 19.332H15.6427C16.0254 18.5987 16.5107 17.9253 17.0787 17.3333H17.08ZM17.3334 8.66667C17.3334 7.07537 16.7012 5.54925 15.576 4.42403C14.4508 3.29881 12.9247 2.66667 11.3334 2.66667C9.74205 2.66667 8.21593 3.29881 7.09071 4.42403C5.96549 5.54925 5.33335 7.07537 5.33335 8.66667C5.33335 10.258 5.96549 11.7841 7.09071 12.9093C8.21593 14.0345 9.74205 14.6667 11.3334 14.6667C12.9247 14.6667 14.4508 14.0345 15.576 12.9093C16.7012 11.7841 17.3334 10.258 17.3334 8.66667V8.66667ZM7.33335 8.66667C7.33335 6.46134 9.12802 4.66667 11.3334 4.66667C13.5387 4.66667 15.3334 6.46134 15.3334 8.66667C15.3334 10.872 13.5387 12.6667 11.3334 12.6667C9.12802 12.6667 7.33335 10.872 7.33335 8.66667ZM28 10C28 8.76233 27.5084 7.57534 26.6332 6.70017C25.758 5.825 24.571 5.33334 23.3334 5.33334C22.0957 5.33334 20.9087 5.825 20.0335 6.70017C19.1584 7.57534 18.6667 8.76233 18.6667 10C18.6667 11.2377 19.1584 12.4247 20.0335 13.2998C20.9087 14.175 22.0957 14.6667 23.3334 14.6667C24.571 14.6667 25.758 14.175 26.6332 13.2998C27.5084 12.4247 28 11.2377 28 10V10ZM20.6667 10C20.6667 8.52934 21.8627 7.33334 23.3334 7.33334C24.804 7.33334 26 8.52934 26 10C26 11.4707 24.804 12.6667 23.3334 12.6667C21.8627 12.6667 20.6667 11.4707 20.6667 10ZM21.4174 17.2013L20.7507 16.5027C20.0267 16.796 19.36 17.2093 18.7747 17.7187L19.0387 18.6333C19.1384 18.9781 19.1674 19.3395 19.1241 19.6958C19.0808 20.0522 18.966 20.3961 18.7866 20.7069C18.6072 21.0178 18.3669 21.2893 18.0801 21.505C17.7932 21.7208 17.4658 21.8765 17.1174 21.9627L16.3387 22.1547C16.2139 22.9531 16.2166 23.7664 16.3467 24.564L17.0667 24.7373C17.4181 24.822 17.7487 24.9772 18.0383 25.1936C18.3279 25.4099 18.5705 25.6829 18.7513 25.9959C18.9321 26.309 19.0474 26.6555 19.0902 27.0144C19.1329 27.3734 19.1023 27.7373 19 28.084L18.7507 28.9267C19.3374 29.4413 20.004 29.8587 20.7294 30.1547L21.388 29.464C21.6371 29.202 21.9369 28.9933 22.2691 28.8508C22.6014 28.7082 22.9592 28.6347 23.3207 28.6347C23.6822 28.6347 24.04 28.7082 24.3722 28.8508C24.7045 28.9933 25.0043 29.202 25.2534 29.464L25.9174 30.164C26.6393 29.8705 27.3075 29.4591 27.8947 28.9467L27.6307 28.032C27.5312 27.6872 27.5024 27.3259 27.5459 26.9696C27.5894 26.6134 27.7043 26.2696 27.8838 25.9589C28.0634 25.6481 28.3038 25.3768 28.5906 25.1612C28.8775 24.9456 29.205 24.7901 29.5534 24.704L30.3307 24.512C30.4556 23.7131 30.4529 22.8994 30.3227 22.1013L29.6027 21.928C29.2512 21.8434 28.9207 21.6881 28.6311 21.4718C28.3415 21.2554 28.0989 20.9824 27.9181 20.6694C27.7373 20.3564 27.622 20.0099 27.5792 19.6509C27.5365 19.292 27.5671 18.9281 27.6694 18.5813L27.9187 17.7413C27.3321 17.2241 26.6634 16.8081 25.94 16.5107L25.2827 17.2027C25.0336 17.4649 24.7337 17.6737 24.4013 17.8164C24.069 17.9591 23.7111 18.0327 23.3494 18.0327C22.9877 18.0327 22.6297 17.9591 22.2974 17.8164C21.965 17.6737 21.6651 17.4649 21.416 17.2027L21.4174 17.2013ZM21.4 23.3333C21.4 22.228 22.2667 21.3333 23.3334 21.3333C24.4 21.3333 25.2667 22.228 25.2667 23.3333C25.2667 24.4373 24.4 25.3333 23.3334 25.3333C22.2667 25.3333 21.4 24.4373 21.4 23.3333Z" fill="black"/>
</svg>
