<svg width="32" height="32" viewBox="0 0 32 32" fill="none" xmlns="http://www.w3.org/2000/svg">
<path d="M8.66665 16C10.6116 16 12.4768 16.7726 13.8521 18.1479C15.2274 19.5231 16 21.3884 16 23.3333C16 25.2782 15.2274 27.1435 13.8521 28.5188C12.4768 29.894 10.6116 30.6667 8.66665 30.6667C6.72173 30.6667 4.85646 29.894 3.4812 28.5188C2.10593 27.1435 1.33331 25.2782 1.33331 23.3333C1.33331 21.3884 2.10593 19.5231 3.4812 18.1479C4.85646 16.7726 6.72173 16 8.66665 16V16ZM16.172 2.66666C16.9672 2.667 17.7297 2.98304 18.292 3.54532L22.0413 7.29199L25.7853 11.0413C26.3466 11.604 26.6626 12.3667 26.6626 13.1613V26.3333C26.6626 27.129 26.3466 27.892 25.784 28.4546C25.2214 29.0173 24.4583 29.3333 23.6626 29.3333H14.92C15.488 28.7427 15.9733 28.0693 16.356 27.3347L23.6626 27.3333C23.9279 27.3333 24.1822 27.228 24.3698 27.0404C24.5573 26.8529 24.6626 26.5985 24.6626 26.3333L24.6613 13.3373H19C18.24 13.3374 17.5083 13.0491 16.9527 12.5307C16.3971 12.0122 16.059 11.3021 16.0066 10.544L16 10.3387L15.9986 4.66666H8.33331C8.0681 4.66666 7.81374 4.77201 7.62621 4.95955C7.43867 5.14709 7.33331 5.40144 7.33331 5.66666V14.7693C6.64636 14.8754 5.9748 15.0643 5.33331 15.332V5.66666C5.33331 4.87101 5.64938 4.10795 6.21199 3.54534C6.7746 2.98273 7.53766 2.66666 8.33331 2.66666H16.172ZM5.45731 19.9547L5.36398 20.032L5.28798 20.1253C5.21115 20.2367 5.17 20.3687 5.17 20.504C5.17 20.6393 5.21115 20.7713 5.28798 20.8827L5.36531 20.976L7.72531 23.3347L5.36798 25.6893L5.29198 25.7827C5.21515 25.894 5.174 26.0261 5.174 26.1613C5.174 26.2966 5.21515 26.4287 5.29198 26.54L5.36798 26.6333L5.46131 26.7093C5.57264 26.7862 5.70471 26.8273 5.83998 26.8273C5.97525 26.8273 6.10732 26.7862 6.21865 26.7093L6.31198 26.6333L8.66665 24.2773L11.0266 26.636L11.1186 26.7133C11.23 26.7902 11.362 26.8313 11.4973 26.8313C11.6326 26.8313 11.7646 26.7902 11.876 26.7133L11.9693 26.636L12.0453 26.5427C12.1221 26.4313 12.1633 26.2993 12.1633 26.164C12.1633 26.0287 12.1221 25.8967 12.0453 25.7853L11.968 25.692L9.60931 23.3347L11.972 20.9747L12.0493 20.8827C12.1264 20.7712 12.1678 20.6389 12.1678 20.5033C12.1678 20.3678 12.1264 20.2355 12.0493 20.124L11.972 20.032L11.88 19.9547C11.7685 19.8775 11.6362 19.8362 11.5006 19.8362C11.3651 19.8362 11.2328 19.8775 11.1213 19.9547L11.0293 20.032L8.66665 22.392L6.30665 20.032L6.21598 19.9547C6.10452 19.8775 5.97219 19.8362 5.83665 19.8362C5.7011 19.8362 5.56878 19.8775 5.45731 19.9547V19.9547ZM18 6.07999L18.0013 10.34C18.0013 10.8467 18.3773 11.264 18.8653 11.3307L19.0013 11.34L23.256 11.3387L18 6.07999Z" fill="black"/>
</svg>
