<svg width="32" height="32" viewBox="0 0 32 32" fill="none" xmlns="http://www.w3.org/2000/svg">
<path d="M10.004 17.336C9.8272 17.336 9.65763 17.4062 9.5326 17.5313C9.40758 17.6563 9.33734 17.8259 9.33734 18.0027V22.0027C9.33734 22.1795 9.40758 22.349 9.5326 22.4741C9.65763 22.5991 9.8272 22.6693 10.004 22.6693C10.1808 22.6693 10.3504 22.5991 10.4754 22.4741C10.6004 22.349 10.6707 22.1795 10.6707 22.0027V21.336H11.3333C11.8638 21.336 12.3725 21.1253 12.7476 20.7502C13.1226 20.3751 13.3333 19.8664 13.3333 19.336C13.3333 18.8056 13.1226 18.2969 12.7476 17.9218C12.3725 17.5467 11.8638 17.336 11.3333 17.336H10.004V17.336ZM11.3333 20.0027H10.6707V18.6693H11.3333C11.5102 18.6693 11.6797 18.7396 11.8047 18.8646C11.9298 18.9896 12 19.1592 12 19.336C12 19.5128 11.9298 19.6824 11.8047 19.8074C11.6797 19.9324 11.5102 20.0027 11.3333 20.0027Z" fill="black"/>
<path d="M19.9973 18.0013C19.9977 17.8248 20.0681 17.6555 20.1931 17.5308C20.3181 17.4061 20.4874 17.336 20.664 17.336H22.6707C22.8475 17.336 23.0171 17.4062 23.1421 17.5313C23.2671 17.6563 23.3373 17.8259 23.3373 18.0027C23.3373 18.1795 23.2671 18.349 23.1421 18.4741C23.0171 18.5991 22.8475 18.6693 22.6707 18.6693H21.3293L21.328 20.0053H22.6707C22.8475 20.0053 23.0171 20.0756 23.1421 20.2006C23.2671 20.3256 23.3373 20.4952 23.3373 20.672C23.3373 20.8488 23.2671 21.0184 23.1421 21.1434C23.0171 21.2684 22.8475 21.3387 22.6707 21.3387H21.328L21.3307 22.0013C21.3309 22.0889 21.3138 22.1756 21.2804 22.2566C21.2471 22.3375 21.1981 22.4111 21.1364 22.4731C21.0116 22.5984 20.8422 22.669 20.6653 22.6693C20.4885 22.6697 20.3188 22.5998 20.1936 22.475C20.0683 22.3502 19.9977 22.1808 19.9973 22.004L19.9933 20.6733V20.6707L19.9973 18.0013V18.0013Z" fill="black"/>
<path d="M15.3334 17.336C15.1565 17.336 14.987 17.4062 14.8619 17.5313C14.7369 17.6563 14.6667 17.8259 14.6667 18.0027V22.0027C14.6667 22.1795 14.7369 22.349 14.8619 22.4741C14.987 22.5991 15.1565 22.6693 15.3334 22.6693H15.9974C16.7046 22.6693 17.3829 22.3884 17.883 21.8883C18.3831 21.3882 18.664 20.7099 18.664 20.0027C18.664 19.2954 18.3831 18.6171 17.883 18.117C17.3829 17.617 16.7046 17.336 15.9974 17.336H15.3334V17.336ZM16 21.336V18.6693C16.3536 18.6693 16.6928 18.8098 16.9428 19.0599C17.1929 19.3099 17.3334 19.649 17.3334 20.0027C17.3334 20.3563 17.1929 20.6954 16.9428 20.9455C16.6928 21.1955 16.3536 21.336 16 21.336Z" fill="black"/>
<path d="M26.6667 26.6667V25.1147C27.4547 24.74 28 23.936 28 23.0053V17C28 16.0693 27.4547 15.2667 26.6667 14.8907V13.104C26.6665 12.3968 26.3855 11.7186 25.8853 11.2187L18.1133 3.44799C18.0927 3.42883 18.0709 3.41101 18.048 3.39466C18.0315 3.38192 18.0155 3.36858 18 3.35466C17.9083 3.26808 17.8107 3.1879 17.708 3.11466C17.6739 3.09263 17.6382 3.07303 17.6013 3.05599L17.5373 3.02399L17.4707 2.98532C17.3987 2.94399 17.3253 2.90132 17.2493 2.86932C16.9838 2.76327 16.7028 2.70113 16.4173 2.68532C16.3907 2.68399 16.364 2.67999 16.3387 2.67599C16.3025 2.6704 16.2659 2.66728 16.2293 2.66666H8C7.29276 2.66666 6.61448 2.94761 6.11438 3.4477C5.61428 3.9478 5.33333 4.62608 5.33333 5.33332V14.8907C4.54533 15.2653 4 16.0693 4 17V23.0053C4 23.936 4.54533 24.7387 5.33333 25.1147V26.6667C5.33333 27.3739 5.61428 28.0522 6.11438 28.5523C6.61448 29.0524 7.29276 29.3333 8 29.3333H24C24.7072 29.3333 25.3855 29.0524 25.8856 28.5523C26.3857 28.0522 26.6667 27.3739 26.6667 26.6667ZM24 27.3333H8C7.82319 27.3333 7.65362 27.2631 7.5286 27.1381C7.40357 27.013 7.33333 26.8435 7.33333 26.6667V25.3387H24.6667V26.6667C24.6667 26.8435 24.5964 27.013 24.4714 27.1381C24.3464 27.2631 24.1768 27.3333 24 27.3333ZM24.6667 13.3333V14.6667H7.33333V5.33332C7.33333 5.15651 7.40357 4.98694 7.5286 4.86192C7.65362 4.73689 7.82319 4.66666 8 4.66666H16V10.6667C16 11.3739 16.281 12.0522 16.781 12.5523C17.2811 13.0524 17.9594 13.3333 18.6667 13.3333H24.6667ZM23.1707 11.3333H18.6667C18.4899 11.3333 18.3203 11.2631 18.1953 11.1381C18.0702 11.013 18 10.8435 18 10.6667V6.16132L23.1707 11.3333ZM6.33333 16.6667H25.6667C25.7551 16.6667 25.8399 16.7018 25.9024 16.7643C25.9649 16.8268 26 16.9116 26 17V23.0053C26 23.0937 25.9649 23.1785 25.9024 23.241C25.8399 23.3035 25.7551 23.3387 25.6667 23.3387H6.33333C6.24493 23.3387 6.16014 23.3035 6.09763 23.241C6.03512 23.1785 6 23.0937 6 23.0053V17C6 16.9116 6.03512 16.8268 6.09763 16.7643C6.16014 16.7018 6.24493 16.6667 6.33333 16.6667Z" fill="black"/>
</svg>
