<svg width="32" height="32" viewBox="0 0 32 32" fill="none" xmlns="http://www.w3.org/2000/svg">
<path d="M12 3.2C12.7354 3.2 13.4636 3.34485 14.1431 3.62627C14.8225 3.9077 15.4398 4.32019 15.9598 4.8402C16.4798 5.36021 16.8923 5.97755 17.1738 6.65697C17.4552 7.33639 17.6 8.06459 17.6 8.8C17.6 9.5354 17.4552 10.2636 17.1738 10.943C16.8923 11.6224 16.4798 12.2398 15.9598 12.7598C15.4398 13.2798 14.8225 13.6923 14.1431 13.9737C13.4636 14.2551 12.7354 14.4 12 14.4C10.5148 14.4 9.09043 13.81 8.04023 12.7598C6.99002 11.7096 6.40002 10.2852 6.40002 8.8C6.40002 7.31478 6.99002 5.8904 8.04023 4.8402C9.09043 3.79 10.5148 3.2 12 3.2V3.2ZM12 4.8C10.9392 4.8 9.92174 5.22142 9.1716 5.97157C8.42145 6.72172 8.00002 7.73913 8.00002 8.8C8.00002 9.86086 8.42145 10.8783 9.1716 11.6284C9.92174 12.3786 10.9392 12.8 12 12.8C13.0609 12.8 14.0783 12.3786 14.8285 11.6284C15.5786 10.8783 16 9.86086 16 8.8C16 7.73913 15.5786 6.72172 14.8285 5.97157C14.0783 5.22142 13.0609 4.8 12 4.8Z" fill="black"/>
<path d="M23.2 14.4C24.2609 14.4 25.2783 13.9786 26.0284 13.2284C26.7786 12.4783 27.2 11.4609 27.2 10.4C27.2 9.33913 26.7786 8.32171 26.0284 7.57157C25.2783 6.82142 24.2609 6.39999 23.2 6.39999C22.1391 6.39999 21.1217 6.82142 20.3716 7.57157C19.6214 8.32171 19.2 9.33913 19.2 10.4C19.2 11.4609 19.6214 12.4783 20.3716 13.2284C21.1217 13.9786 22.1391 14.4 23.2 14.4ZM20.8 10.4C20.8 9.76347 21.0529 9.15302 21.503 8.70294C21.953 8.25285 22.5635 7.99999 23.2 7.99999C23.8365 7.99999 24.447 8.25285 24.8971 8.70294C25.3472 9.15302 25.6 9.76347 25.6 10.4C25.6 11.0365 25.3472 11.647 24.8971 12.0971C24.447 12.5471 23.8365 12.8 23.2 12.8C22.5635 12.8 21.953 12.5471 21.503 12.0971C21.0529 11.647 20.8 11.0365 20.8 10.4Z" fill="black"/>
<path d="M18.088 16.0368C17.9265 16.0122 17.7634 15.9999 17.6 16H6.40001C5.55132 16 4.73739 16.3371 4.13727 16.9373C3.53715 17.5374 3.20001 18.3513 3.20001 19.2V21.6C3.20001 24.8864 6.54081 27.2 12 27.2C13.1712 27.2 14.2464 27.0928 15.2096 26.8928C14.9842 26.4053 14.8043 25.8981 14.672 25.3776C13.7898 25.5316 12.8955 25.606 12 25.6C7.32641 25.6 4.80001 23.8512 4.80001 21.6V19.2C4.80001 18.7757 4.96858 18.3687 5.26864 18.0686C5.5687 17.7686 5.97567 17.6 6.40001 17.6H16.4112C16.8992 17.008 17.4624 16.4832 18.088 16.0368Z" fill="black"/>
<path d="M16 23.2C16 25.1096 16.7586 26.9409 18.1088 28.2912C19.4591 29.6414 21.2904 30.4 23.2 30.4C25.1096 30.4 26.9409 29.6414 28.2912 28.2912C29.6414 26.9409 30.4 25.1096 30.4 23.2C30.4 21.2904 29.6414 19.4591 28.2912 18.1088C26.9409 16.7586 25.1096 16 23.2 16C21.2904 16 19.4591 16.7586 18.1088 18.1088C16.7586 19.4591 16 21.2904 16 23.2V23.2ZM19.8464 27.6848L27.6864 19.8448C28.4952 20.9232 28.8879 22.2572 28.7923 23.6018C28.6968 24.9464 28.1194 26.2114 27.1662 27.1646C26.213 28.1178 24.948 28.6952 23.6034 28.7907C22.2588 28.8863 20.9248 28.4936 19.8464 27.6848V27.6848ZM18.7152 26.5536C17.9064 25.4752 17.5137 24.1412 17.6093 22.7966C17.7048 21.452 18.2822 20.187 19.2354 19.2338C20.1886 18.2806 21.4536 17.7032 22.7982 17.6077C24.1428 17.5121 25.4768 17.9048 26.5552 18.7136L18.7152 26.5536V26.5536Z" fill="black"/>
</svg>
