<svg width="32" height="32" viewBox="0 0 32 32" fill="none" xmlns="http://www.w3.org/2000/svg">
<path d="M9.60002 16.8C9.60002 16.5878 9.68431 16.3844 9.83434 16.2343C9.98437 16.0843 10.1879 16 10.4 16C10.6122 16 10.8157 16.0843 10.9657 16.2343C11.1157 16.3844 11.2 16.5878 11.2 16.8C11.2 17.0122 11.1157 17.2157 10.9657 17.3657C10.8157 17.5157 10.6122 17.6 10.4 17.6C10.1879 17.6 9.98437 17.5157 9.83434 17.3657C9.68431 17.2157 9.60002 17.0122 9.60002 16.8ZM10.4 19.2C10.1879 19.2 9.98437 19.2843 9.83434 19.4343C9.68431 19.5844 9.60002 19.7878 9.60002 20C9.60002 20.2122 9.68431 20.4157 9.83434 20.5657C9.98437 20.7157 10.1879 20.8 10.4 20.8C10.6122 20.8 10.8157 20.7157 10.9657 20.5657C11.1157 20.4157 11.2 20.2122 11.2 20C11.2 19.7878 11.1157 19.5844 10.9657 19.4343C10.8157 19.2843 10.6122 19.2 10.4 19.2ZM9.60002 23.2C9.60002 22.9878 9.68431 22.7844 9.83434 22.6343C9.98437 22.4843 10.1879 22.4 10.4 22.4C10.6122 22.4 10.8157 22.4843 10.9657 22.6343C11.1157 22.7844 11.2 22.9878 11.2 23.2C11.2 23.4122 11.1157 23.6157 10.9657 23.7657C10.8157 23.9157 10.6122 24 10.4 24C10.1879 24 9.98437 23.9157 9.83434 23.7657C9.68431 23.6157 9.60002 23.4122 9.60002 23.2ZM13.6 16C13.3879 16 13.1844 16.0843 13.0343 16.2343C12.8843 16.3844 12.8 16.5878 12.8 16.8C12.8 17.0122 12.8843 17.2157 13.0343 17.3657C13.1844 17.5157 13.3879 17.6 13.6 17.6H21.6C21.8122 17.6 22.0157 17.5157 22.1657 17.3657C22.3157 17.2157 22.4 17.0122 22.4 16.8C22.4 16.5878 22.3157 16.3844 22.1657 16.2343C22.0157 16.0843 21.8122 16 21.6 16H13.6ZM12.8 20C12.8 19.7878 12.8843 19.5844 13.0343 19.4343C13.1844 19.2843 13.3879 19.2 13.6 19.2H21.6C21.8122 19.2 22.0157 19.2843 22.1657 19.4343C22.3157 19.5844 22.4 19.7878 22.4 20C22.4 20.2122 22.3157 20.4157 22.1657 20.5657C22.0157 20.7157 21.8122 20.8 21.6 20.8H13.6C13.3879 20.8 13.1844 20.7157 13.0343 20.5657C12.8843 20.4157 12.8 20.2122 12.8 20ZM13.6 22.4C13.3879 22.4 13.1844 22.4843 13.0343 22.6343C12.8843 22.7844 12.8 22.9878 12.8 23.2C12.8 23.4122 12.8843 23.6157 13.0343 23.7657C13.1844 23.9157 13.3879 24 13.6 24H21.6C21.8122 24 22.0157 23.9157 22.1657 23.7657C22.3157 23.6157 22.4 23.4122 22.4 23.2C22.4 22.9878 22.3157 22.7844 22.1657 22.6343C22.0157 22.4843 21.8122 22.4 21.6 22.4H13.6ZM9.60002 3.20001C8.75133 3.20001 7.9374 3.53715 7.33728 4.13727C6.73717 4.73739 6.40002 5.55132 6.40002 6.40001V25.6C6.40002 26.4487 6.73717 27.2626 7.33728 27.8628C7.9374 28.4629 8.75133 28.8 9.60002 28.8H22.4C23.2487 28.8 24.0626 28.4629 24.6628 27.8628C25.2629 27.2626 25.6 26.4487 25.6 25.6V11.8624C25.5995 11.2261 25.3462 10.6161 24.896 10.1664L18.6336 3.90241C18.1837 3.45278 17.5737 3.20015 16.9376 3.20001H9.60002ZM8.00002 6.40001C8.00002 5.97567 8.1686 5.5687 8.46865 5.26864C8.76871 4.96858 9.17568 4.80001 9.60002 4.80001H16V10.4C16 11.0365 16.2529 11.647 16.703 12.0971C17.1531 12.5472 17.7635 12.8 18.4 12.8H24V25.6C24 26.0244 23.8315 26.4313 23.5314 26.7314C23.2313 27.0314 22.8244 27.2 22.4 27.2H9.60002C9.17568 27.2 8.76871 27.0314 8.46865 26.7314C8.1686 26.4313 8.00002 26.0244 8.00002 25.6V6.40001ZM23.6688 11.2H18.4C18.1879 11.2 17.9844 11.1157 17.8343 10.9657C17.6843 10.8157 17.6 10.6122 17.6 10.4V5.13121L23.6688 11.2Z" fill="black"/>
</svg>
