<svg width="29" height="27" viewBox="0 0 29 27" fill="none" xmlns="http://www.w3.org/2000/svg">
<path d="M17.916 16.6667C17.768 16.0942 17.434 15.5872 16.9665 15.2252C16.4991 14.8632 15.9246 14.6667 15.3334 14.6667L3.33335 14.6653L3.13335 14.672C2.46236 14.7228 1.83534 15.0252 1.37792 15.5188C0.920493 16.0123 0.66645 16.6604 0.666687 17.3333V19.3333L0.673354 19.64C0.886687 24.0587 5.70402 25.3333 9.33335 25.3333C10.4734 25.3333 11.7307 25.208 12.9254 24.8987L12.0174 23.9893C11.782 23.7542 11.5998 23.4714 11.4827 23.16C10.9115 23.2541 10.3347 23.3097 9.75602 23.3267L9.33335 23.3333L8.91069 23.3267C7.22669 23.2747 5.65735 22.916 4.55602 22.3227C3.26669 21.6293 2.66669 20.6787 2.66669 19.3333V17.332L2.68002 17.1973C2.70661 17.0697 2.76959 16.9526 2.86135 16.86C2.9541 16.7685 3.07119 16.7055 3.19869 16.6787L3.33335 16.6653L17.916 16.6667Z" fill="black"/>
<path d="M17.7067 24.964C17.8834 25.1536 17.9795 25.4043 17.975 25.6634C17.9704 25.9224 17.8654 26.1696 17.6822 26.3528C17.499 26.5361 17.2518 26.641 16.9927 26.6456C16.7337 26.6501 16.483 26.554 16.2934 26.3773L12.9601 23.0467C12.8671 22.9538 12.7934 22.8435 12.7431 22.7222C12.6928 22.6008 12.6669 22.4707 12.6669 22.3393C12.6669 22.208 12.6928 22.0779 12.7431 21.9565C12.7934 21.8351 12.8671 21.7249 12.9601 21.632L16.2934 18.2973C16.3849 18.1991 16.4953 18.1203 16.618 18.0656C16.7407 18.011 16.8731 17.9816 17.0074 17.9792C17.1416 17.9769 17.275 18.0016 17.3995 18.0518C17.524 18.1021 17.6371 18.177 17.7321 18.272C17.8271 18.3669 17.9019 18.48 17.9522 18.6045C18.0025 18.7291 18.0272 18.8624 18.0248 18.9967C18.0225 19.131 17.9931 19.2634 17.9384 19.3861C17.8838 19.5087 17.805 19.6191 17.7067 19.7107L16.0801 21.3373H25.2507L23.6254 19.7107C23.5299 19.6184 23.4538 19.508 23.4014 19.386C23.3491 19.2639 23.3216 19.1327 23.3205 18.9999C23.3194 18.8672 23.3447 18.7355 23.3951 18.6126C23.4454 18.4897 23.5197 18.3781 23.6137 18.2843C23.7076 18.1904 23.8193 18.1162 23.9422 18.066C24.0651 18.0158 24.1968 17.9905 24.3296 17.9918C24.4624 17.993 24.5936 18.0206 24.7156 18.0731C24.8375 18.1256 24.9478 18.2018 25.0401 18.2973L28.3734 21.6333C28.5607 21.8208 28.6658 22.075 28.6658 22.34C28.6658 22.605 28.5607 22.8592 28.3734 23.0467L25.0401 26.3787C24.9478 26.4741 24.8374 26.5503 24.7153 26.6026C24.5933 26.655 24.4621 26.6825 24.3293 26.6836C24.1965 26.6847 24.0649 26.6593 23.942 26.609C23.8191 26.5586 23.7075 26.4843 23.6137 26.3904C23.5198 26.2965 23.4456 26.1848 23.3954 26.0619C23.3452 25.9389 23.3199 25.8072 23.3211 25.6745C23.3224 25.5417 23.35 25.4105 23.4025 25.2885C23.4549 25.1665 23.5312 25.0562 23.6267 24.964L25.2534 23.3373H16.0801L17.7067 24.964V24.964Z" fill="black"/>
<path d="M27.3333 18.6667V18.7067L25.984 17.3547C25.7195 17.0891 25.3947 16.8915 25.0373 16.7787C24.9616 16.728 24.8763 16.6935 24.7867 16.6773L24.6667 16.6667H19.2653C19.1551 16.014 18.8822 15.3995 18.472 14.88L18.2933 14.6667H24.6667C26.072 14.6667 27.224 15.7547 27.3253 17.1333L27.3333 17.3333V18.6667Z" fill="black"/>
<path d="M15.3334 6C15.3334 4.4087 14.7012 2.88258 13.576 1.75736C12.4508 0.632141 10.9247 0 9.33337 0C7.74208 0 6.21595 0.632141 5.09073 1.75736C3.96551 2.88258 3.33337 4.4087 3.33337 6C3.33337 7.5913 3.96551 9.11742 5.09073 10.2426C6.21595 11.3679 7.74208 12 9.33337 12C10.9247 12 12.4508 11.3679 13.576 10.2426C14.7012 9.11742 15.3334 7.5913 15.3334 6V6ZM5.33337 6C5.33337 3.79467 7.12804 2 9.33337 2C11.5387 2 13.3334 3.79467 13.3334 6C13.3334 8.20533 11.5387 10 9.33337 10C7.12804 10 5.33337 8.20533 5.33337 6Z" fill="black"/>
<path d="M26 7.33334C26 6.09566 25.5084 4.90868 24.6332 4.03351C23.758 3.15834 22.571 2.66667 21.3334 2.66667C20.0957 2.66667 18.9087 3.15834 18.0335 4.03351C17.1584 4.90868 16.6667 6.09566 16.6667 7.33334C16.6667 8.57102 17.1584 9.758 18.0335 10.6332C18.9087 11.5083 20.0957 12 21.3334 12C22.571 12 23.758 11.5083 24.6332 10.6332C25.5084 9.758 26 8.57102 26 7.33334V7.33334ZM18.6667 7.33334C18.6667 5.86267 19.8627 4.66667 21.3334 4.66667C22.804 4.66667 24 5.86267 24 7.33334C24 8.80401 22.804 10 21.3334 10C19.8627 10 18.6667 8.80401 18.6667 7.33334Z" fill="black"/>
</svg>
