<svg width="32" height="32" viewBox="0 0 32 32" xmlns="http://www.w3.org/2000/svg">
<path d="M16 8C7.66401 8 1.25001 15.344 1.25001 15.344L0.656006 16L1.25001 16.656C1.25001 16.656 7.09801 23.324 14.875 23.938C15.246 23.984 15.617 24 16 24C16.383 24 16.754 23.984 17.125 23.937C24.902 23.324 30.75 16.657 30.75 16.657L31.344 16L30.75 15.344C30.75 15.344 24.336 8 16 8ZM16 10C18.203 10 20.234 10.602 22 11.406C22.637 12.461 23 13.676 23 15C23.0042 16.7238 22.3718 18.3884 21.2241 19.6746C20.0764 20.9607 18.4942 21.7778 16.781 21.969C16.761 21.973 16.738 21.965 16.719 21.969C16.48 21.98 16.242 22 16 22C15.734 22 15.477 21.984 15.219 21.969C13.5059 21.7778 11.9236 20.9607 10.7759 19.6746C9.62819 18.3884 8.99577 16.7238 9.00001 15C9.00001 13.695 9.35201 12.48 9.96901 11.437H9.93801C11.717 10.617 13.773 10 16 10ZM16 12C15.2041 12.0003 14.4409 12.3167 13.8783 12.8797C13.3157 13.4427 12.9997 14.2061 13 15.002C13.0003 15.7979 13.3167 16.5611 13.8797 17.1237C14.4427 17.6863 15.2061 18.0023 16.002 18.002C16.3961 18.0019 16.7863 17.9241 17.1504 17.7732C17.5144 17.6222 17.8452 17.4011 18.1237 17.1223C18.4023 16.8436 18.6233 16.5127 18.774 16.1485C18.9246 15.7844 19.0021 15.3941 19.002 15C19.0019 14.6059 18.9241 14.2157 18.7732 13.8516C18.6223 13.4876 18.4011 13.1568 18.1223 12.8783C17.8436 12.5997 17.5127 12.3787 17.1485 12.2281C16.7844 12.0774 16.3941 11.9999 16 12V12ZM7.25001 12.938C7.08742 13.6134 7.00353 14.3053 7.00001 15C7.00001 16.754 7.50001 18.395 8.37501 19.781C6.59981 18.7411 4.97085 17.4696 3.53101 16C4.66447 14.8565 5.91045 13.8303 7.25001 12.937V12.938ZM24.75 12.938C26.0895 13.831 27.3355 14.8568 28.469 16C27.0292 17.4696 25.4002 18.7411 23.625 19.781C24.527 18.3498 25.0038 16.6917 25 15C25 14.285 24.906 13.602 24.75 12.937V12.938Z" fill="black"/>
</svg>
