<svg xmlns="http://www.w3.org/2000/svg" fill-rule="evenodd" viewBox="0 0 10000 10000">
  <path d="M9155 3574.6c67.1 0 122 54.8 122 122s-54.9 122-122 122c-67.3 0-122-54.8-122-122s54.7-122 122-122zm-8308.5 0c67.2 0 122 54.8 122 122s-54.8 122-122 122-122-54.8-122-122 54.8-122 122-122zm8222.9 540l50.5 286.9 84 10.7-3-17.2c-46.8-29.5-57.5-49.2-61.9-74-2.3-13-5.5-25.1 17-29l260.5-46c15.6-2.8 28.3-3.3 33.4 25.7l1.9 10.8 27-4.7-29.9-169-26.9 4.7 2 11.3c5.6 31.7-10.8 33-22.7 35l-260.4 46c-22.6 4-23.7-8.6-26-22-3.4-18.8-1.8-50.8 32.9-90.2l-3-17.2-75.4 38.3zm63.2 348.6l25 286.3 27.2-2.4-1-11.4c-2.6-30 11.5-31.7 25.1-32.9l263-23c11.9-1 28-4.1 30.9 28l1 11.4 27.2-2.4-26.6-304.2-93.7-11 1.6 18c61 25.8 66 70.4 68 93.8l4 46.3c2.1 24-4.8 31.7-25.6 33.5l-123 10.7-5-58.2c-3.6-40.3 10.2-45.9 20.9-49 3.7-.9 5.9-1.6 10.2-2.5l-1.5-17.4-104 9 1.5 17.5c4.4 0 6.6.5 10.5.7 16.7 2.4 25.8 0 31.6 65.8l3.2 37-95.8 8.4c-24 2-29-6.3-31-28.6l-3.5-39.7c-4.7-53.3 29.2-79.4 50.2-90.5l-1.5-17.4-89 24.2zm24.9 326.9l10.2 291 81.6 22.4-.6-17.5c-42.2-35.7-50-56.8-51-81.9-.4-13-2-25.6 21-26.4l264.3-9.2c15.8-.6 28.4.6 29.5 30l.3 11 27.4-1-6-171.4-27.3 1 .4 11.4c1 32.2-15.4 31.2-27.4 31.6l-264.3 9.2c-22.9.8-22.2-11.8-22.7-25.4-.7-19.1 5.3-50.5 45.2-84.7l-.7-17.5-80 27.4zm43.1 589.4c-12-.9-28.4-.4-26.2-32.5l.8-11.5-27.3-1.9-12 170.6 27.4 2 .7-11c2.3-32.1 18.5-29.3 30.5-28.5l262.7 18.4c12 .8 28.5.3 26.2 32.5l-.8 11.4 27.3 2 12-171.2-27.3-2-.8 11.5c-2.3 32.2-18.5 29.4-30.5 28.5l-21.2-1.4-159.3-150.3.4-6.5 190.3 13.3c22.3 1.5 27.8 9.6 26.1 33l-.7 11 27.2 1.9 12-170.7-27.3-2-.7 10.5c-1.6 22.3-8.2 30.6-30.5 29l-262.7-18.3c-22.4-1.6-27.8-10.7-26.2-33l.7-10.4-27.3-2-11.9 170.7 27.3 1.9.7-11c1.7-23.3 8.2-30.6 30.6-29l8.7.6 159.8 150.9-.4 6-178.3-12.5zm20.7 183.9l-74.2-6.8a251.4 251.4 0 00-49.8 112.1c-18.9 119.3 53.1 202.6 166.5 220.6 111.1 17.6 199.5-37 218.8-158.4 11.6-74-7.5-121.2-14.3-137.8l-83.8-18.8-2.8 17.2c49.2 21 78 73.2 70.1 122.9-5.5 35-33.6 104.2-167.4 83-114.4-18.1-162.2-76-152.7-136.5 5.7-35.6 31-65.9 86.9-80.3l2.7-17.2zm-1.9 554.2l-135.2-28.8c-23.5-5-25.7-15.5-20.7-39 5.4-25.7 25.2-74 95.7-59 34.3 7.3 80.1 33.2 64.4 107l-4.2 19.7zm32 6.7l6.8-31.5c27.1-127.7-12-179.6-73.6-192.7-60.9-13-133.2 22.5-152.5 136.8l-35.1 165.2 26.7 5.7 2.2-10.2c4.5-21.4 12.3-29.2 34.3-24.6l257.6 54.8c21.9 4.7 25.8 15 21.3 36.4l-2.2 10.2 26.8 5.6 37-174.7-26.6-5.7-4 18.1c-4.8 23-12.2 29.3-34.2 24.6l-84.4-18zm-283 122.5l-88.9 273.3 26 8.5 3.5-11c9.3-28.5 23-24.6 36-20.4l251 81.5c11.4 3.7 27.5 7.3 17.5 38l-3.5 10.8 26 8.5 94.4-290.5-82-46.7-5.5 17c46 47.8 33.1 90.7 25.9 113l-14.4 44.2c-7.4 23-16.9 27.3-36.6 21l-117.4-38.2 18-55.7c12.5-38.4 27.4-38.2 38.4-36.9 3.9.7 6.1.8 10.4 1.7l5.4-16.7-99.2-32.2-5.4 16.6c4 1.9 5.9 3 9.4 4.8 14.4 8.7 23.7 10 3.3 72.9l-11.5 35.3-91.5-29.7c-22.8-7.4-24.3-17.1-17.4-38.4l12.4-38c16.5-50.9 57.9-61.6 81.6-63.6l5.3-16.7-91.3-12.4zm-3.3 547.9c35.8-102 95.5-85.5 112.5-78 25.4 11.4 63 46.6 37.5 106.4-.4 1-1 2.6-1.5 3.5-13.2 28.3-24.2 23.4-38.7 17l-109.8-49zm-120.8-53.8c-14.4-6.5-26-11.6-13.3-40 26-58.5 70.4-45.3 89.9-36.6 44 19.5 38.4 64.3 11.8 116l-88.4-39.4zm-108.3 92.9l25 11.1 4.2-9.5c12.4-28 25.6-21.4 34.9-18 8.5 3.8 2.7.7 10.2 4l227.6 101.4c25 11 30 19.9 19.8 42.8l-4.5 10 25 11.2 80.7-181.3c48.6-109.3-2.7-156.6-38.1-172.4-57.9-25.8-107.9 11.2-128.8 51.5l-4.5-2c9.2-30 6.4-86.9-40-107.6-81.9-36.4-126.6 68.1-144.6 108.5l-67 150.3zm-93.2 290.4c-10.5-5.8-25.6-12.3-10-40.5l5.6-10-23.9-13.3-83 149.6 24 13.3 5.3-9.6c15.6-28.2 29.1-18.8 39.7-13l230.3 127.7c10.5 5.8 25.6 12.3 10 40.5l-5.5 10 23.9 13.3 83.1-150-23.9-13.3-5.5 10c-15.7 28.2-29.2 18.9-39.7 13l-18.6-10.3-80.9-203.5 3.2-5.8 166.8 92.5c19.6 10.8 21 20.5 9.7 41l-5.3 9.6 23.9 13.2 83-149.6-24-13.2-5 9c-10.9 19.7-20.4 24.4-40 13.6l-230.3-127.8c-19.6-10.8-20.6-21.4-9.7-41l5-9-24-13.3-82.8 149.6 23.9 13.3 5.3-9.6c11.4-20.6 20.3-24.3 40-13.5l7.6 4.3 81 204.2-2.9 5.3-156.3-86.7zm-68.7 572.4c18.4 12.9 18.2 23.4 5.4 41.8l-4 5.8 22.3 15.7 94-134.3-22.3-15.7-4.1 5.9c-13.5 19.2-22.8 22-41.2 9.2l-111-77.7 80.6-115 111 77.6c9.9 7 24.2 15 5.7 41.4l-4.4 6.3 22.4 15.7 94-134.3-22.4-15.7-4 5.8c-17 24.2-28.2 18.3-41.2 9.2l-215.7-151c-14.7-10.3-23.5-17.8-1.3-47.6l-22.4-15.7-94 134.3 22.4 15.6 4.3-6.2c18.5-26.4 31-15.7 40.9-8.8l77.8 54.5-80.5 115-77.9-54.5c-18.3-12.8-18.8-22.5-5.4-41.8l4-5.8-22.3-15.7-94 134.3 22.4 15.7 4-5.9c12.6-17.8 22.8-22 39.8-10l217 151.9zm-420.4 8.9l-106 126.4 20.9 17.5c19.6-24.2 37-25.3 65.5-17.7l252.6 67.8c15.7 23.9 16.6 52.5 4.7 66.7-11 13-19.7 9.9-23.9 6.4-3.3-2.8-4.8-7-7.5-10.6a56.7 56.7 0 00-12.5-14.8c-23.5-19.7-44.6-12.4-52.7-2.8-12.2 14.7-13.2 38.8 11 59.2 26.8 22.5 73.2 28.6 108.7-13.7 26-31 20.7-68.2 1.8-107.7l-119.5-247.8c-12.8-26.4-12.2-41.6 11.3-70.4l-21-17.6-81.4 97.1 21 17.6 11.5-13.8a15.7 15.7 0 0122.4-1.2c4.2 3.5 7 8 10.6 15.3 2.8 4.4 3.6 5.2 5.4 8.1 3.6 5.9 5 8.5 9.7 18.2l51.6 106-4.2 5-142.5-41c-8.7-2.4-13.4-2.8-20.5-8.7-4.6-3.9-11.4-10.3 4-26l-21-17.5zm-385.5 375.9c37.8-34 38.2-71.9 20.3-91.8a34.4 34.4 0 00-47.9-1.7c-10.5 9.5-11 23.8-.7 35.1 4.4 5 9.8 6 16.4 6 8 0 14-3.2 17 0 4.4 5 3.5 21.9-16.4 39.8-16.3 14.6-35.8 18.2-41.3 12.2-3.6-4.1 1-10.4 1.7-17 .6-5-.9-13.2-4.2-16.8-8.4-9.4-22.4-14.3-35-3a34 34 0 00-3.3 47.8c22.3 24.7 61 18.7 93.4-10.6zM7755 8114l-127.5 114.8 18.3 20.3 8.1-7.3c17.5-15.7 27.1-16.4 42.2.3l176.2 195.7c15 16.6 13.3 26.2-4.2 41.9l-8 7.3 18.2 20.3 127.5-114.8-18.3-20.3-8.5 7.7c-24 21.6-33.7 8.3-41.8-.6l-14.2-15.9-10.2-218.7 4.9-4.4 127.6 141.7c15 16.7 12 27.3-4.2 42l-8.1 7.3 18.3 20.3 127-114.5-18.2-20.3-7.7 7c-17.5 15.7-27.2 16.4-42.2-.3L7934 8027.8c-15-16.7-13.3-26.2 4.1-42l7.8-6.9-18.3-20.3-127.1 114.4 18.3 20.3 8-7.3c16.3-14.6 27.2-16.4 42.2.3l5.9 6.5 10.2 219.5-4.5 4-119.6-132.7c-8-9-20.2-20 3.8-41.6l8.5-7.7-18.3-20.3zM7389 8634c8-7.7 22.1-20.7 32.3-28.1 52.6-38.2 89.8-11.2 110.3 17 31.2 43 13.5 85.6-17.9 108.4l-12 8.6c-18 13.2-28.8 9.5-40-6l-72.7-99.8zm-216-78l16 22.1 8.9-6.4c24.8-18 34-5.2 42.7 6.8l153.5 211.2c15.8 21.7 8.4 31.1-16.9 47.5l16.1 22 147.2-106.9c53-38.5 126.9-102.3 66.2-185.9-42.7-58.8-142.5-58.5-236.9 41.1l-59.7-82.2c-12.9-17.7-10.5-27.4 8.5-41.3l8.8-6.4-16-22.1-138.4 100.5zm297-215.8l16 22.1 8.5-6c23.9-17.5 32.6-8.3 41.9 4.6l154.8 213c10.3 14.2 18 24-17 47.5l16.1 22 138.4-100.5-16-22c-35.3 27.6-42.6 12-50.3 1.3l-154.8-213c-7.1-9.8-17.2-22.7 8.5-41.3l8.3-6.1-16-22.1-138.4 100.5zm-464.8 672.8c11.2 19.4 6.6 29-12.8 40.1l-6.1 3.6 13.6 23.7 142-82-13.7-23.7-6.1 3.6c-20.4 11.7-30 10.4-41.2-9L7013 8852l121.7-70.2 67.7 117.4c6 10.4 15.6 23.7-12.3 39.9l-6.6 3.8 13.6 23.6 142-81.9-13.7-23.7-6.1 3.6c-25.6 14.7-33.3 4.6-41.2-9l-131.6-228.1c-9-15.6-13.9-26.1 18.8-43.8l-13.6-23.6-142 82 13.7 23.6 6.6-3.8c28-16.1 34.7-1.1 40.7 9.3l47.6 82.3-121.7 70.2-47.5-82.3c-11.2-19.4-7.6-28.4 12.8-40.2l6.1-3.5-13.6-23.7-142 82 13.7 23.6 6.1-3.5c19-11 30-10.4 40.4 7.6l132.5 229.5zm-404.5 183.2c9.5 20.4 4.1 29.5-16.1 39l-6.5 3 11.6 24.7 148.5-69.3-11.5-24.7-6.5 3c-21.3 10-30.8 7.7-40.2-12.6l-57.3-122.8 127.3-59.4 57.3 122.8c5 11 13.4 25.1-15.7 38.7l-7 3.3 11.5 24.7 148.6-69.3-11.5-24.7-6.5 3c-26.7 12.4-33.5 1.8-40.2-12.6l-111.3-238.7c-7.6-16.3-11.5-27.2 22.7-41.9l-11.6-24.8-148.6 69.3 11.6 24.8 7-3.2c29.1-13.7 34.6 1.9 39.7 12.8l40.1 86.1L6609 9007l-40.2-86.2c-9.5-20.3-5-29 16.2-38.9l6.4-3-11.5-24.8-148.5 69.3 11.5 24.8 6.4-3c19.8-9.3 30.8-7.7 39.6 11l112 240.2zm-220.2-269.2l-271.8 93.6 8.9 25.8 10.8-3.7c28.4-9.8 33.6 3.5 38 16.4l86 249.5c3.8 11.3 10.8 26.3-19.7 36.8l-10.9 3.8 9 25.8 288.7-99.5-12-93.5-17 5.9c-10.4 65.4-52.4 81-74.6 88.7l-44 15c-22.7 8-31.9 3-38.7-16.6l-40.2-116.8 55.3-19c38.3-13.2 47-1.2 52.6 8.4l5 9.3 16.5-5.7-34-98.6-16.5 5.6c.9 4.3 1 6.6 1.8 10.4 1.7 16.8 6.3 25-56.2 46.5l-35.1 12.1-31.3-91c-7.9-22.7-1-29.6 20.1-37l37.8-12.9c50.6-17.5 84 9.2 100 26.8l16.5-5.7-45-80.4zM5934 9252c102.3-34.5 126.1 22.6 130.7 40.6 6.7 27.1 2 78.4-60.8 95.1l-3.7 1c-30.4 7-33.3-4.7-37.1-20L5934 9252zm-32-128.3c-3.8-15.4-6.9-27.6 23.4-35 62-15.6 79 27.5 84.1 48.2 11.6 46.7-27 69.8-84 80.7l-23.5-93.8zm-140-28.1l6.7 26.5 10-2.6c29.8-7.4 32.8 7 35.7 16.5 2.3 9 1.2 2.5 3.2 10.5l60.3 241.7c6.6 26.5 2.7 36-21.6 42l-10.7 2.7 6.7 26.5 192.4-48c116.1-29 121.8-98.6 112.4-136.2-15.3-61.5-75.2-78-119.8-69.8l-1.2-4.7c29.3-11.3 72.4-48.5 60-97.8-21.6-87-131.5-57.8-174.4-47.1l-159.6 39.8zm-20 3.7l-288.3 40.5-13.7 83.6 17.3-2.4c31.1-45.8 51.2-55.8 76.1-59.3 13-1.8 25.3-4.7 28.5 18l36.8 262c2.2 15.7 2.4 28.3-26.9 32.4l-10.8 1.5 3.8 27.1 170-23.9-4-27-11.2 1.5c-32 4.6-32.6-12-34.3-23.8l-36.8-261.9c-3.2-22.7 9.4-23.4 23-25.3 18.8-2.7 50.7 0 88.9 36l17.3-2.4-35.6-76.6zm-337.7 138.5l-11.4-73.6a251.8 251.8 0 00-120.9-21.2c-120.3 10.5-183.7 100.5-173.7 214.9 9.8 112 84.2 184.7 206.6 174 74.6-6.6 115.9-36.6 130.3-47.2l-2-86-17.4 1.6c-8.6 52.8-52.2 93.4-102.3 97.8-35.3 3-109.2-7.5-121-142.5-10.1-115.4 34.5-175.7 95.4-181 36-3.2 71.5 14 99 64.8l17.4-1.6zM4875 9357.4l4.8-138.2c.9-24 10.8-28 34.9-27.2 26.2.9 77.2 12 74.7 84-1.3 35-18.9 84.7-94.2 82l-20.2-.6zm-1.2 32.7l32.3 1.1c130.4 4.6 174.8-43 177-105.9 2.2-62.2-45.4-127.3-161.3-126.4l-168.7-5.9-1 27.3 10.4.4c21.9.7 31 7 30.2 29.5l-9.2 263.1c-.8 22.5-10.3 28.1-32.2 27.4l-10.3-.4-1 27.3 178.6 6.2 1-27.3-18.6-.6c-23.5-.8-31-7-30.2-29.5l3-86.3zm-337-163l6.4.9 30.3 141.6-105-14.7 68.2-127.8zm58.7-92.7l-22.1-3.2c-31.5 20-43.8 24.8-77.6 21.7l-2.4 17.3 6 .9c18.9 2.6 18.4 9.7 17.7 15.1-1.2 8.2-5.4 14.7-9.8 22.4l-115 210c-3.7 6.7-3.4 8.4-12.8 20.3-10.6 12.9-15.5 20-48.8 17l-3.7 27 109.3 15.3 3.8-27-13.6-2c-4.3-.6-11.8-2.2-13-6.2-.3-1.1 0-2.7.6-3.7a166 166 0 018.7-18.7l28.7-55 131 18.4 14 69.3c1.6 8 1.8 10.2 1.8 10.7-.2 1.1.1 2.8-.6 3.8-1.9 5.8-6.1 4.7-9.4 4.2l-17.8-2.5-3.9 27 140.7 19.8 3.8-27c-15.2-1.6-22.6-3.8-30.9-15.4-10.6-14.8-14.8-39.6-16.6-47l-68-312.5zM4186 9405.9c-3.4 19.4-12 24.5-34.6 20.5l-114.7-20.2 1-5.3c18.2-21.8 54.6-77 92.5-241.2 4.8-21.3 12-49 43.6-43.3l31.3 5.5c30 5.3 27.7 18.8 25.2 33.3l-44.3 250.7zm-278.1 98.6l19.4 3.5c25-50.5 84.8-75 159-62l49 8.7c88.8 15.6 134.6 32.7 158.3 118.4l17.2 3 3-121-15.5-2.7c-22.1-4-30-9.8-25.8-33.4l45.2-256.1c3.9-22.1 12.4-26.7 35.6-22.6l10.8 1.9 4.7-27-306.2-54-4.7 27 9.6 1.7c23.7 4.2 38.9 6.3 27.6 70.3-10.6 60.3-41.2 161.4-78.5 209.2-18.6 24-35.3 33.2-76.2 26.5l-32.5 108.6zm-81.5-515.4l-157.8-48.2-8 26.1c30 8.6 37.8 24.1 42 53.4l36.2 259c-15.8 23.8-41.8 35.8-59.5 30.4-16.2-5-16.8-14.3-15.2-19.5 1.3-4.2 4.5-7.2 6.8-11 3.8-5.2 6.8-11.1 8.7-17.4 9-29.3-6-45.8-18-49.5-18.3-5.6-40.9 3-50.2 33.2-10.2 33.5 2.3 78.6 55 94.7 38.8 11.8 71-7.6 99.9-40.4l181.5-206.8c19.3-22.1 33.5-27.5 69.2-17.1l8-26.2-121.2-37-8 26.1 17.2 5.3a15.7 15.7 0 019.9 20 44.7 44.7 0 01-10 16c-3 4.1-3.4 5.2-5.3 8-4 5.6-6 8-13 16l-77.4 89-6.3-2-17.8-147.2c-1.3-8.9-2.8-13.3 0-22.2 1.7-5.8 5-14.5 25.3-6.5l8-26.2zm-212.2 42.4l23.2-70.8a252 252 0 00-98-73.8c-112-45.2-209.4 6.2-252.4 112.6-42.1 104.4-8.8 202.8 105.2 248.8 69.4 28 119.8 20 137.4 17.2l37.2-77.5-16.2-6.6c-31.6 43.2-88.9 59.6-135.5 40.8-32.9-13.4-94-56.3-43.2-182 43.4-107.3 110.6-140.9 167.4-118 33.4 13.6 57.2 45 58.6 102.7l16.3 6.6zm-600 14.9c-24.6-13.1-78.1-50.9-5.8-187 55.7-104.6 110.5-125 158.2-99.6 38.1 20.3 69.7 68 6.3 187.1-72.3 136.1-133.1 113-158.6 99.5zm-15.4 29c86.8 46.2 196.6 29.5 257.1-84.3 61-114.9 13-214.1-73.9-260.3-97-51.5-200.9-20.2-256.6 84.5-60.5 113.9-12.5 214.4 73.4 260zm-16-438.1l-236.5-136.6-13.7 23.6 9.5 5.5c20.3 11.8 24 20.8 12.7 40.2l-131.7 228c-11.2 19.5-20.8 20.8-41.1 9.1l-9.5-5.5-13.6 23.7 155.2 89.6 13.6-23.6-16.5-9.6c-28-16.1-18.3-29.5-12.3-39.9l125.4-217.2c4-7.1 1-.7 5.9-9.2 5.4-8.2 13.3-20.8 36.4-7.4l10.5 6c46.8 27 59 69.4 60.7 98.2l15 8.7 30-83.6zM2443 8254.9c39.5 32 77 26.5 93.8 5.7a34.4 34.4 0 00-5.8-47.6c-11-9-25.2-7-34.8 4.8-4.1 5.1-4.3 10.6-3.3 17 1.3 8.1 5.3 13.5 2.6 16.9-4.2 5.1-21 6.9-41.9-10-17-13.7-23.6-32.4-18.4-38.8 3.4-4.3 10.4-.7 17-1 5-.1 12.9-3 16-6.8 7.9-9.7 10.6-24.4-2.5-35a34 34 0 00-47.8 4.2c-21 25.9-8.9 63 25.1 90.6zm-34.3-8l-133.3-108-17.2 21.2 8.5 6.9c18.3 14.8 20.4 24.3 6.3 41.7l-165.7 204.6c-14.1 17.5-23.8 17.3-42 2.5l-8.6-6.8-17.2 21.2 133.4 108 17.2-21.3-9-7.2c-25-20.3-13.4-32-5.9-41.4l13.4-16.5 214.5-44.3 5 4.1-120 148.2c-14 17.4-25 16.3-42 2.5l-8.5-6.9-17.2 21.2 133 107.7 17.1-21.3-8-6.5c-18.3-14.8-20.5-24.2-6.4-41.7l165.8-204.6c14-17.5 23.8-17.3 42-2.5l8 6.5 17.3-21.2-133-107.6-17.1 21.2 8.5 6.9c17 13.7 20.4 24.2 6.3 41.6l-5.5 6.8-215.2 44.4-4.7-3.7 112.5-139c7.5-9.3 16.6-23 41.6-2.7l9 7.2 17.1-21.3zm-392-271.3c8.3-8.7 18.5-21.6 41.7.8l8.3 8 19-19.7-123.1-118.8-19 19.7 7.9 7.6c23.2 22.4 10.6 33 2.3 41.7l-183 189.4c-8.3 8.7-18.5 21.6-41.7-.8l-8.3-8-19 19.7 123.4 119.2 19-19.7-8.2-8c-23.2-22.4-10.6-33-2.3-41.7l14.8-15.3 217.5-25.4 4.7 4.5-132.4 137.2c-15.6 16.1-25.3 15.1-42.2-1.2l-7.9-7.6-19 19.7 123.1 118.8 19-19.7-7.5-7.2c-16.1-15.6-18.2-26-2.6-42l182.9-189.5c15.6-16.1 26-14.3 42.1 1.2l7.5 7.2 19-19.6-123-118.9-19 19.7 7.8 7.6c17 16.3 18.3 26 2.7 42l-6 6.4-218.3 25.4-4.4-4.2 124.1-128.5zm-299.3-421.7l-21 17.6 7 8.4c19 22.6 10.5 31.9-1.7 42L1500 7791.4c-12.1 10.1-22.8 17-41.8-5.6l-7-8.4-21 17.6 110.4 131.4 20.9-17.6-7.4-8.8c-19.3-23-7.5-33.6 2-41.7l71.7-60 49.4 2-48.8 128.7c-2 5.3-9 22.5-13.6 26.4-8 6.7-14 .3-17.5-3.9l-4.6-5.4-21 17.5 106.5 126.9 21-17.6-7.4-8.8c-16.9-20 5.5-76.7 16.6-106l58.4-153.8 81.2 3.2c28.2 1.3 49.8 7.4 70 28.2l21-17.5-74.1-88.4-21 17.6 4 4.6c5.2 6.3 10 12.9 3.4 18.5-3.8 3.2-9.8 5.4-29.1 4.4L1673 7768l-4-4.6 88.8-74.5c9.2-7.7 20.7-19.5 41.5 5.2l7.3 8.8 21-17.5-110.3-131.5zm-109.5 21.7l58-46.6c-3.7-40.8-20-84-42-115.3-69.2-99-178.9-108.9-273-43-92.1 64.5-117.8 165.2-47.2 265.9 42.9 61.3 89.5 82 106 89.2l73.3-44.7-10-14.4c-50 19-107 1.6-135.8-39.6-20.4-29-48.2-98.3 62.8-176 94.9-66.5 169.5-58 204.6-8 20.7 29.7 23.6 69-6.7 118.2l10 14.3zM1232 7166.1c7 9.2 18 24.4 24 35.4 34.7 62.6-10.3 96.3-30.4 107.4-26.8 14.9-76.1 21.6-105.3-31l-7.1-12.8c-14.3-25.9 1.7-34.1 10.8-39.2l108-59.8zm103.5-205.5l-23.9 13.3 5.6 10c11.9 21.5 7.2 31-12 41.6L1076.8 7152c-14.8 8.2-26.5 15.3-45.2-23l-24 13.2 106.3 190.5c45 81.2 113.8 82.4 158.7 57.5 63.6-35.2 75.2-134.7-12-240.1l89-49.3c10.5-5.8 24-15.2 39.7 13l5.5 10 23.9-13.2-83.2-150zm-364-4c-11 4.8-25.3 13-38.4-16.5l-4.7-10.5-25 11.2 69.8 156.7 25-11.1-4.5-10c-12-27-1.1-33.6 13.3-40l240.6-107.1c14.5-6.5 26.6-10 38.7 16.9l4.4 10 25-11.2-123.2-276.5-25 11.1 4.7 10.5c9.6 21.5 7.2 30.9-13.2 40l-22.5 10c-97.3 43.3-241.8 116.6-267.6 58.7-2.8-6.5-8-22.1 3-27 6-2.7 13.5-1.8 20.3-1.3 8 .6 18.6 1.3 30.6-4 24.4-10.9 27.3-32.5 21.3-46-8.2-18.5-35.4-33.9-72.3-17.4-51.4 22.8-50.8 72.8-32.6 113.7 31.1 70 103.8 49 207.6 2.7l103.4-46c28.9-13 45.5-17.3 57.7 10.2l9.6 21.4c9.7 22 11 37-10.4 46.5l-235.6 105zm24.4-517.2l2 6.2-114 89.4-32.8-100.8 144.8 5.2zm109 12.2l-6.9-21.2c-31.6-19.7-41.4-28.5-53.4-60.2l-16.6 5.3 1.8 5.8c6 18.2-.7 20.9-5.9 22.6-7.8 2.5-15.5 1.6-24.3 1l-239.3-11.3c-7.6-.4-9 .6-23.8-2.6-16.2-4-24.7-5.2-36.5-36.4l-26 8.4 34.1 105 26-8.5-4.2-13c-1.4-4.1-3.2-11.5-.1-14.3.9-.9 2.4-1.4 3.6-1.2 3.8-.6 16-.5 20.6-.3l62 1.6 40.9 125.8-56.2 43c-6.4 5-8.3 6-8.8 6.3-1 .3-2.4 1.3-3.6 1.1-6.1.9-7-3.4-8-6.6l-5.5-17.1-26 8.4 43.9 135.1 26-8.4c-5.3-14.4-6.6-22 .2-34.6 8.6-16 29.1-30.7 35-35.5l251-198.2zm-179-568.4l-26.3 7.5 3 10.5c8.2 28.4-3.4 33.4-18.7 37.8l-253.1 72.6c-15.2 4.4-27.8 6.2-36-22.1l-3-10.5-26.2 7.5 47.3 165 26.3-7.6-3.2-11c-8.3-29 6.8-33.8 18.9-37.3l89.8-25.7 44.4 22-97 97.7c-4 4-17.4 16.9-23.1 18.5-10 2.9-13-5.4-14.5-10.6l-2-6.9-26.2 7.6 45.6 159.1 26.3-7.5-3.2-11c-7.2-25.2 36.3-67.8 58.4-90l116-116.9 72.8 36c25.2 12.6 42.4 27 52.5 54.3l26.2-7.6-31.7-110.8-26.3 7.5 1.7 5.8c2.2 7.9 4 15.9-4.4 18.3-4.8 1.4-11.2 1-28.4-7.8l-133.4-66.9-1.7-5.8 111.3-31.9c11.6-3.3 26.9-9.4 35.8 21.6l3.2 11 26.2-7.5-47.3-164.9zM910.9 5668c8 50.2 39.5 71.2 66 67a34.4 34.4 0 0027.5-39.2c-2.2-14-14-22.1-29.2-19.7-6.5 1-10.2 5-13.8 10.5-4.5 6.8-5 13.5-9.4 14.2-6.4 1-20.2-9-24.4-35.4-3.4-21.6 4.2-40 12.3-41.2 5.4-.9 8.2 6.4 13.3 10.6 3.8 3.3 11.5 6.4 16.4 5.7 12.4-2 24.2-11 21.6-27.8a34 34 0 00-38.3-28.8c-32.9 5.3-48.8 41-42 84.1zm-20-28.9l-27-169.4-27 4.3 1.8 10.7c3.7 23.3-1 31.7-23.2 35.2l-260.1 41.3c-22.1 3.4-29.2-3.2-33-26.4l-1.6-10.8-27 4.3 26.8 169.5 27-4.3-1.8-11.3c-5-31.9 11.4-32.8 23.3-34.7l21-3.3 189 110.5 1 6.5-188.3 29.8c-22.1 3.6-29.5-4.7-33-26.3l-1.6-10.8-27 4.3 26.7 169 27-4.4-1.6-10.2c-3.7-23.2 1-31.7 23.2-35.2l260.1-41.2c22.2-3.5 29.3 3.1 33 26.3l1.6 10.3 27-4.3-26.8-169-27 4.3 1.7 10.8c3.4 21.6-1 31.7-23.2 35.2l-8.6 1.4-189.6-111-1-6 176.5-28c11.9-1.8 27.8-6 32.8 25.9l1.8 11.3 27-4.3zm-131.3-369.9l.4 6.5-132.2 59.2-7.4-105.8 139.2 40.1zm102.9 38.3l-1.6-22.4c-26-26.6-33.3-37.6-37.3-71.3l-17.4 1.2.4 6c1.3 19.1-5.7 20.2-11.2 20.5-8.2.6-15.5-2.2-23.9-4.9l-229.4-68.8c-7.3-2.3-8.8-1.6-22.5-8.3-14.7-7.8-22.6-11-26.6-44.2l-27.3 2 7.7 110 27.3-1.9-1-13.6c-.3-4.4-.2-12 3.4-14 1.1-.5 2.7-.7 3.9-.2 3.8.3 15.6 3.3 20 4.6l59.8 16.7 9.2 131.9-64.8 28c-7.5 3.3-9.6 4-10.2 4-1 .1-2.7.8-3.8.3-6-.7-5.8-5-6-8.3l-1.3-18-27.3 1.9 10 141.7 27.2-1.9c-1.6-15.2-1-23 8.6-33.5 12.2-13.4 35.7-22.7 42.6-26l291.5-131.5zm-204.6-413.8c11.5 93.8-29.9 119.7-73 118.2-29.5-1-82.8-8.9-82.5-81l.4-11.5c2-24 7.7-31 29.5-30.2l125.6 4.5zm182.6 155.6l9.8-278-27.4-1-.3 10.4c-.9 23.5-7.7 31-29.5 30.2l-263.2-9.2c-30-1-27.8-19.6-27.3-32.1l.4-10.4-27.4-1-7.3 210.8c-3 84.1 41.2 134.3 104 136.5 101.6 3.6 123.6-93.5 118.4-210.7l93.9 3.3c10.4.3 27.4-3.5 27.3 32l-.4 12.6c-2.4 37.1-7.2 63.2-54.5 104.7l-.7 18 84.2-16.1zm-71.4-492.7l-1 6.5-141.6 30.3 14.8-105 127.8 68.2zm92.7 58.8l3-22.1c-19.8-31.5-24.7-43.8-21.6-77.6l-17.3-2.4-.8 6c-2.7 18.9-9.8 18.4-15.2 17.7-8.1-1.2-14.7-5.4-22.4-9.8l-210-115c-6.7-3.8-8.4-3.4-20.3-12.8-12.8-10.7-19.9-15.5-16.9-48.8l-27-3.8-15.4 109.3 27 3.8 2-13.5c.6-4.3 2.2-11.8 6.2-13a5 5 0 013.8.6c3.7 1 14.5 6.5 18.6 8.7l55 28.7-18.4 131-69.2 14a63 63 0 01-10.8 1.7c-1-.1-2.8.2-3.8-.5-5.8-2-4.6-6.1-4.2-9.4l2.6-17.9-27.1-3.8-19.8 140.7 27 3.8c1.6-15.2 3.8-22.6 15.5-31 14.7-10.5 39.6-14.8 47-16.5l312.5-68zM837 4103.2L834 4121c36.3 20.3 63.2 56.6 54.7 105-7 39.4-34.3 59-68.1 53-60.9-10.7-66.3-55.5-52-124.6l-32.7-5.7c-17.2 106.8-74.6 111.6-110.7 105.3-47.9-8.5-62.7-50.5-56-88.1 9.3-53.3 58.5-80.2 98.3-88.7l3-17.2-84.8-6.6a296.6 296.6 0 00-51.6 125.2c-20.7 117.2 32.3 160.4 78 168.5 64.6 11.4 107.9-32.6 118.2-81.8l5.9 1c-1.3 58 31.5 95.4 67 101.7 13.4 2.4 91.3 13.9 112-103.4 11-63 5.3-118.4.3-140.3l-78.4-21zM8903.4 3106l-74.3 34.6c-20.3 9.5-29 5.1-38.7-15.7l-4.9-10.4-24.7 11.5 72.2 155 24.8-11.5-4.4-9.4c-10-21.3-7.7-30.8 12.6-40.3l88.6-41.3 140.7-3.5c38.6-1.1 63.5-4.9 84.3 27l24.8-11.5-43.7-93.6-24.7 11.5 1.6 3.5c5.5 11.9 8.7 23.7-3.2 29.2-7.5 3.5-24.8 2.5-29 2.7l-134.5 3.6-2.5-5.4 91.3-113.1c4.3-5 11.8-13.4 15.8-15.3 10.4-4.8 17.2 4.7 23.7 16l24.8-11.5-63.5-136.1-24.7 11.5c11 27.4-.2 41-10.6 57.4-11.3 17.3-11.2 14.9-17 21.8L8903.4 3106zm119.4-290.8L8877.2 2563l-82.6 18.6 8.7 15.2c54.1 11.7 70.9 26.5 83.5 48.3 6.5 11.4 13.8 21.7-6.1 33.2l-229 132.2c-13.8 8-25.4 12.8-40.2-12.8l-5.5-9.4-23.6 13.6 85.7 148.6 23.7-13.6-5.7-10c-16.2-27.9-1.1-34.7 9.3-40.7l229-132.2c19.9-11.5 25.2 0 32 11.8 9.6 16.5 19 47 0 96l8.7 15.1 57.7-61.7zm-578.6-271.6l-22.1 16 100.8 138.9 22.1-16.1-6.4-8.9c-17.3-23.8-8.1-32.6 4.7-41.9l213-154.8c12.9-9.3 24-15.3 41.4 8.6l6.4 8.8 22-16-100.4-138.4-22.2 16 6.4 8.9c19 26 4.8 34.3-5 41.4L8492 2561c-9.7 7-22 18-41-8l-6.7-9.3zm144.2-237.5l51.8-49c-5.8-34-26.9-77.4-47.2-102.5-53.6-66.2-117.5-67.9-162.2-31.8-50.5 41-41.5 92.8-29.1 159.4 11.8 61.4 17.6 98.2-7.8 118.8-22.1 17.9-49 15-73-14.7-19-23.3-40.3-80-18.2-137.8l-11-13.6-55.4 57.5c17.9 54.4 37.3 87.9 57.3 112.5 45.7 56.5 120.9 84.9 175.2 40.9 45.9-37.2 46.2-88.8 20.7-211.5-4.4-21-10.6-51.2 13.2-70.5 14.9-12 41.8-17 61.7 7.7 18 22 37.5 72.3 12.6 120.5l11.4 14zm-332-431.9c11.7-11.4 21-17.4 43.1 5.4 53.1 55 13.4 95.7 2 106.7-50.3 48.6-91.8 14.3-112-6.6l-20.4-21.2 87.2-84.3zm-111 107l29 30-33.1 98.7c-2 6.5-7.7 21.9-12 26-6 5.7-15.2 4.8-20.9-1.1l-4.2-4.4-19.6 19 110 114 19.7-19c-20.3-33.5-9.4-60.8 6.1-107.6l24.5-75.3 5.9-2.7c37.7 29.7 83.4 26.6 116.8-5.7 62.9-60.7 23.4-125.9-40.4-192L8210 1739.8l-19.7 19 7.6 7.9c22.4 23.2 9.5 33.4.8 41.7l-189.4 183c-8.7 8.3-19.3 20.9-41.7-2.3l-8-8.3-19.7 19 114 118 19.6-19-8-8.3c-15.2-15.8-1.8-30.2 4.5-36.3l75.5-72.8zm-19-323.5L7909.5 1469l-18 20.6 8.7 7.5c22.7 19.8 13.8 30.8 4.9 41.1l-173.2 199.2c-7.9 9-17.4 22.5-41.7 1.4l-8.7-7.6-17.9 20.7 230.5 200.4 75-57.2-13.6-11.8c-61.9 23.7-96.4-5-114.1-20.3l-35-30.5c-18.2-15.8-18.5-26.2-5-41.9l81-93.2 44.2 38.4c30.5 26.5 24.5 40.1 19 49.8-2.1 3.3-3.1 5.3-5.6 8.9l13.2 11.5 68.5-78.8-13.2-11.5c-3.3 3-5.1 4.3-8 6.8-13.7 9.9-18.6 18-68.5-25.4l-28-24.4 63-72.6c15.9-18.1 25.3-15.7 42.3-1l30 26.2c40.5 35.1 34.1 77.4 26.8 100l13.2 11.5 47.1-79.2zM7535 1197.5l-15.3 22.6 5 3.4c18.6 12.5 24.3 21.6 12 78l-66.5 303.7 31.7 21.4 239.5-175.2c9.3-7 10.7-8 25.4-17.2 14.8-9.1 37.7-24.6 66.4-2.6l15.3-22.7-99.2-67-15.3 22.7c15.2 9.7 30.2 19.8 22 32a120 120 0 01-25.3 21.8l-153 112.4-4-2.8 43.6-198.6c1.1-4.5 4.8-15.8 7.9-20.3 7.3-11 22.1-3.6 33.1 4.5l15.3-22.6-138.6-93.5zm-367.7 167.7l-14.9 23 144 93.4 14.8-23-9.2-6c-24.7-16-19.3-27.4-10.6-40.7l143.4-220.9c8.6-13.3 16.8-23 41.6-6.8l9.2 6 14.8-23-143.4-93.1-14.9 22.9 9.2 6c27 17.5 16.7 30.3 10.2 40.4L7218 1364.3c-6.5 10-14 24.7-41 7.2l-9.7-6.3zm-222.2-509.7l-12.4 24.4 9.8 5c11.2 5.6 29 12.9 15.5 39.2l-119.5 234.6c-10.4 20.5-21.2 21-41.2 11l-10.2-5.3-12.4 24.4 105.7 53.8 12.4-24.3-10.2-5.2c-26.3-13.4-22.1-25.4-14.9-39.5l94.5-185.5 5.6 3.5 46.9 328.1 48.6 24.8 148.4-291.2c12.9-25.3 27.3-17.4 40.4-10.7l10.2 5.2 12.4-24.3-105.6-53.9-12.4 24.4 10.2 5.2c12.2 6.2 28.5 13.9 15.6 39.2l-88.3 173.3-5.4-2.7-41.4-301.4-102.3-52zM6440 936c-6.7 17.3-39 109.2 114.5 168.1 97.4 37.4 145 6.4 179.5-83.4l66.2-172.4c8-20.9 17.3-23.7 39.2-15.3l10.2 3.9 9.8-25.5-108.1-41.5-9.8 25.5c32.8 13.7 35.9 20.8 27.9 41.7l-64.6 168.3c-26.9 69.9-58.4 98.8-130.9 71-80-30.8-56.6-97.9-47.8-120.8l71-185.2c8-21 17.4-23.8 39.3-15.4l10.2 4 9.8-25.6-159.7-61.2-9.7 25.5 9.7 3.7c20.3 7.8 26.9 16.8 18.8 37.7L6440 936zm-269.1-367.2L5889.7 509l-5.7 26.8 11.2 2.4c29.4 6.2 27 20.2 24.1 33.6l-54.9 258.1c-2.4 11.8-4.2 28.1-35.8 21.4l-11.2-2.4-5.7 26.8 298.8 63.5 37.9-86.4-17.7-3.7c-42.5 50.7-86.6 42.4-109.6 37.5l-45.4-9.6c-23.5-5-29-14-24.6-34.3l25.7-120.8 57.2 12.2c39.5 8.4 40.8 23.2 40.7 34.3l-.5 10.6 17 3.6 21.8-102-17.1-3.7-3.8 9.8c-7.2 15.2-7.5 24.7-72.2 10.9l-36.3-7.7 20-94c5-23.6 14.5-26 36.4-21.4l39 8.3c52.3 11.1 67.3 51.2 71.8 74.5l17.2 3.6 2.8-92.1zm-370.9-80.9l-289-35.5-34.9 77.2 17.4 2.2c41.9-36.2 63.9-40.6 88.8-37.6 13 1.6 25.6 2 22.9 24.8l-32.3 262.5c-1.9 15.8-5 28-34.4 24.4l-10.8-1.3-3.3 27.1 170.3 21 3.3-27.2-11.4-1.4c-32-4-28.4-20-26.9-32l32.2-262.4c2.8-22.8 15.2-20.2 28.7-18.5 19 2.3 49 13.2 76.6 57.9l17.4 2-14.6-83.2zm-560 35.5l6.5.4 40.1 139.2-105.7-7.4 59-132.2zm52.2-96.6l-22.3-1.6c-30 22-42 27.8-75.9 27l-1.2 17.5 6 .4c19 1.3 19.1 8.4 18.8 14-.6 8-4.4 15-8.2 22.9l-100.1 217.6c-3.3 6.8-2.8 8.5-11.4 21-9.7 13.6-14 21-47.4 20.3l-2 27.3 110.2 7.7 1.9-27.3-13.6-1c-4.4-.3-12-1.4-13.3-5.3-.5-1-.4-2.7.2-3.8.8-3.7 5.4-15 7.4-19.2l24.8-56.8 131.9 9.2 18.8 68c2.2 8 2.5 10.2 2.5 10.7 0 1 .4 2.8-.3 3.8-1.4 6-5.8 5-9 4.8l-18-1.2-2 27.2 141.8 10 1.9-27.3c-15.3-.5-22.9-2.2-32-13.2-11.6-14-17.5-38.5-19.8-45.8l-89.7-307zm-275.8-3H4725l-25.2 80.9h17.5c37.1-41 58.4-48.1 83.6-48.1 13 0 25.7-1.1 25.7 21.8V743c0 15.8-1.7 28.4-31.2 28.4h-11v27.3h171.6v-27.3h-11.4c-32.2 0-30.6-16.4-30.6-28.4V478.4c0-23 12.6-21.8 26.2-21.8 19.1 0 50.3 7 83 48h17.5l-24.5-80.8zm-417.5 104l-14-69.8a253.5 253.5 0 00-112-14.4C4388.4 454 4353 507.4 4360 564.3c8 64.6 56.6 84.4 119.6 109.2 58.4 22.5 92.7 37 96.6 69.6 3.5 28.2-13.1 49.5-51 54.2-29.9 3.6-89.2-8.3-126.6-57.7l-17.4 2.1 19.4 77.5c55.7 13.6 94.4 14.9 125.8 11 72.1-8.8 136-57.5 127.6-127-7.2-58.5-50.8-86.2-168.4-129.5-20.2-7.5-49-18.3-52.8-48.6a42.5 42.5 0 0139.2-48.3c28.2-3.5 81.2 6.5 109 53.2l17.8-2.2zm-835.3 63l6.2 26.6 10.1-2.3c21.3-5 31.7-1.2 36.7 20.7l57.7 249.7c1.8 8 0 2.2 1.9 10.7 1.7 9.7 5.5 24-24.3 30.9l-10 2.3 6 26.6 303.5-70-4.2-88.8-17 4c-10.6 27-34 63.9-87.3 76.2l-49 11.3c-20.2 4.7-29 .5-34-21.3l-58-251.3c-5.1-21.8 1-29.4 23.9-34.7l10.6-2.4-6.1-26.7-166.7 38.5zM3534 762.3l6.3-2 87.3 115.6-101.4 31 7.8-144.6zm14.1-109l-21.4 6.6c-20.1 31.4-29.2 41-61.1 52.4l5 16.8 5.9-1.8c18.3-5.6 20.8 1 22.5 6.3 2.4 7.8 1.3 15.6.5 24.4L3484 997c-.6 7.5.4 9-3 23.7-4.3 16.2-5.7 24.6-37 35.9l8 26.1 105.5-32.2-8-26.2-13 4c-4.3 1.3-11.8 3-14.4-.2a4.8 4.8 0 01-1.2-3.6c-.6-3.8-.2-16 0-20.6l2.8-62 126.4-38.6 42 56.8c4.9 6.6 6 8.5 6.2 9 .3 1 1.3 2.5 1 3.7.8 6-3.5 6.8-6.7 7.8l-17.2 5.2 8 26.2 135.8-41.6-8-26c-14.4 5-22 6-34.5-1-15.9-8.8-30.2-29.6-34.9-35.6L3548 653.4zm-600.8 255.5l11.1 25 10-4.4c27-12 33.6-1.2 40 13.2l107.2 240.7c6.4 14.4 10 26.6-17 38.6l-10 4.4 11.2 25 156.7-69.8-11-25-10 4.5c-15.6 6.8-29.8 9.6-40-13.3l-38.1-85.4 15.6-47 110.3 82.5c4.5 3.4 19.1 14.8 21.6 20.3 4.2 9.5-3.6 13.5-8.6 15.8l-6.5 2.8 11.2 25 151.2-67.3-11.1-25-10.5 4.7c-24 10.6-72.2-26.5-97.3-45.2l-131.8-98.7 25.5-77c9-26.8 20.8-45.9 46.4-59.6l-11-25-105.4 46.9 11.1 25 5.5-2.5c7.5-3.3 15.2-6.2 18.8 1.8 2 4.5 2.4 11-3.8 29.2l-47.7 141.5-5.5 2.4-47-105.8c-5-11-13.1-25.3 16.3-38.4l10.5-4.7-11.1-25-156.8 69.8zm-64 431l13.2 24 150-83.2-13.2-24-9.5 5.4c-25.8 14.3-33.4 4.1-41-9.7L2855 1021.9c-7.7-13.9-12.4-25.6 13.4-40l9.6-5.3-13.2-23.8-149.6 82.9 13.2 23.9 9.6-5.3c28.1-15.7 34.7-.5 40.5 10l127.7 230.3c5.8 10.5 15.2 24-13 39.7l-10 5.6zm-339.9-90.6l5.6-3.5 114.2 89-89.9 56.2-29.9-141.7zm-14.5-108.8l-19 11.8c-11.4 35.5-17.6 47.1-45.5 66.5l9.3 14.8 5-3.2c16.3-10.1 20.5-4.4 23.4.2 4.4 7 5.4 14.8 6.9 23.5l46.9 234.8c1.5 7.5 2.8 8.6 3.2 23.8.2 16.6 1 25.2-26.4 44.2l14.5 23.2 93.5-58.5-14.5-23.2-11.5 7.3c-3.7 2.3-10.5 5.8-14 3.5-1-.6-1.8-2-2-3.2a162 162 0 01-5.3-20l-13.3-60.5 112-70 55.4 44c6.3 5 8 6.6 8.2 7 .6 1 2 2 2 3.3 2.3 5.7-1.7 7.5-4.5 9.3l-15.3 9.5 14.5 23.2 120.5-75.3-14.5-23.2c-12.7 8.6-19.7 11.7-33.6 8.1-17.6-4.4-36.8-20.8-42.9-25.3l-253-195.6zm-267.1 439.8c80.7-71.8 125-28.5 136.2-13.7 16.7 22.3 32.4 71.3-18.8 111.3l-3 2.3c-25.3 18.3-32.5 8.7-42-4l-72.4-96zm-79.6-105.6c-9.5-12.7-17-22.8 7.8-41.5 51-38.5 83.5-5.4 96.3 11.6 29 38.4 2.4 74.8-45.9 107l-58.2-77.1zm-139.8 28.7l16.5 21.8 8.3-6.3c24.4-18.3 32.8-6.3 39.2 1.3 5.6 7.4 2 1.8 7 8.4l150 199c16.4 21.8 16.5 32-3.6 47l-8.7 6.6 16.5 21.9 158.4-119.4c95.5-72 73.6-138.3 50.3-169.3-38.2-50.6-99.8-42.5-137.6-17.4l-3-3.9c22.6-21.8 47.7-72.9 17.1-113.4-54-71.6-143.7-2-179 24.7l-131.4 99zm-33.6 159.8l-52.4-48.2a253.3 253.3 0 00-99 54.2c-62.3 58.1-59.5 122-20.3 164 44.3 47.5 95.4 35 160.9 18 60.5-16.1 96.7-24.5 119.1-.5 19.4 20.7 18.4 47.8-9.5 73.8-22 20.5-77 45.7-136.3 27.8l-12.8 11.9 61.2 51.2c53-21.6 85.1-43.3 108.3-65 53.1-49.5 76.2-126.5 28.6-177.6-40.3-43.2-91.8-40-212.5-6-20.7 6-50.3 14.2-71.2-8.2a42.4 42.4 0 013.3-62.1c20.8-19.4 69.6-42.4 119.4-21l13.2-12.3zM1459.2 2100l20.3 18.3 7.3-8.1c8.4-9.4 20-24.7 42-5l195.6 176.3c17.1 15.3 15 25.9 0 42.5l-7.7 8.6 20.3 18.3 79.3-88.2-20.3-18.3-7.7 8.6c-19.7 22-30.2 14.7-42 4.1l-154.6-139.3 4.8-4.5 329 39.7 36.6-40.6-242.9-218.7c-21-19-9.7-30.8.2-41.8l7.6-8.5-20.3-18.3-79.3 88.1 20.3 18.3 7.7-8.5c9.1-10.2 20.8-24 41.9-5l144.5 130.2-4 4.5-301.8-38-76.8 85.3zm-94.5 286.3l3.8-5.4 140 37.3-60.9 86.9-82.9-118.8zm-55.9-94.5L1296 2310c3.4 37 2.1 50.2-16 79l14.4 10 3.5-5c10.9-15.6 17-12 21.5-8.9 6.7 4.8 10.7 11.5 15.5 18.9l135 197.9c4.2 6.3 5.8 6.8 12.2 20.5 6.6 15.4 10.7 22.9-7 51.1l22.3 15.7 63.3-90.4-22.4-15.7-7.8 11.2c-2.5 3.6-7.4 9.5-11.4 8.7a4.7 4.7 0 01-3.2-2.2c-2.8-2.7-10-12.4-12.6-16.2l-36-50.5 75.8-108.4 68.1 19a61 61 0 0110.4 3.3c.9.6 2.6 1.1 3.1 2.2 4.3 4.3 1.4 7.6-.5 10.3l-10.4 14.8 22.4 15.6 81.5-116.4-22.4-15.6c-8.3 12.8-13.6 18.5-27.7 20.6-18 2.8-42-4.8-49.4-6.6l-309.4-81.2zm-216.7 447.1c-14.2-8.1-22.6-15.5-6.7-43 38.2-66.2 88.2-39.2 102-31.3 60.5 35 39 84.3 24.5 109.4l-14.8 25.6-105-60.7zm133.4 77l20.8-35.9 104 4.5c6.8.2 23.1 1.5 28.4 4.4 7 4.2 8.7 13.3 4.6 20.4l-3 5.2 23.7 13.7 79.2-137.3-23.7-13.6c-26.7 28.7-55.9 25.7-105.2 23.8l-79.1-2.8-4.2-5c18.2-44.4 2.6-87.4-37.6-110.6-75.7-43.7-127.5 12.2-173.4 91.6l-84.4 146.3 23.6 13.6 5.5-9.4c16-28 29.4-18.3 39.9-12.3l228 131.7c10.4 6 25.5 12.7 9.3 40.7l-5.7 9.9 23.7 13.6 82-142-23.7-13.6-5.8 10c-11 18.9-28.5 10-36 5.7l-90.9-52.5zm-297 88l-123 263.9 62.6 57 7.4-15.9c-21.4-51-18.9-73.3-8.2-96 5.5-12 9.9-23.8 30.7-14.1l239.6 111.8c14.4 6.6 25 13.4 12.6 40.2l-4.6 9.9 24.7 11.5 72.6-155.5-24.8-11.5-4.8 10.4c-13.7 29.2-27.8 20.8-38.7 15.7l-239.7-111.8c-20.8-9.6-14.5-20.6-8.7-33 8-17.3 27.6-42.5 78.7-54.9l7.3-15.9-83.6-11.9zM6498.8 7709v-29.3c11.8.2 19 .4 21.5.6 28 3.2 64.9 4.9 110.4 4.9a803.2 803.2 0 0075.5-5.5h25l.7 28c-22.9 3-36.1 4.8-40 5.8a52.8 52.8 0 00-22.3 11 12.2 12.2 0 00-3.7 8.8c0 2.6.2 5 .7 7.6l11.3 29.6c8 23.4 21.1 54.9 39.7 94.7l39 88.3c7.4 17 14.3 33.2 20.4 48.5l19.8-48.5 40.7-112.9 9.5-23.9c1.2-3.4 2.6-8.1 4.5-14.3 6-20.3 10.8-35.7 14.9-46.2 4-10.4 6-19 6-25.6 0-4.3-2.3-8.1-6.6-11.3-6.6-5-17.3-8.1-32.4-9.5a78 78 0 00-12.7-2.3c-5.3-.5-10-1.3-14-2.2-1.3-4.5-2-8-2-10.3 0-2.9.5-8.1 1.3-15.7 4.2 0 15.8 1 35.2 2.8 19.4 1.8 38.3 2.7 56.8 2.7 19 0 35-.8 48.6-2.6 13.4-1.7 24.2-2.6 32.7-2.9v11c0 2.7 0 6.9-.3 12.2-29.4 10.8-46.7 18.1-51.7 22-3.1 2.2-6.2 6-9.2 11.3-8.6 15.3-21.8 46-39.6 92.6l-43.7 113c-4.2 11-8.6 22.5-13.5 34.8-5 12.1-10.2 25.5-15.7 40.1-1 3.4-6.4 17-16 41l-3.4 6.1a924.2 924.2 0 01-22.6 66.8l-17 .5a470 470 0 01-18.2-.5l-7.5-21c-2.5-7-12.2-31.8-29-74.1l-64.6-144.9-38.6-93.3c-19.9-42.4-30.7-65.1-32.5-68a35.8 35.8 0 00-13-12.3 88.6 88.6 0 00-29.7-5.8l-14.7-1.8zm-241.3 416.6v-24.6c4.6-1.3 12.1-3.3 22.6-5.7 14.8-3.7 25.8-7.5 33.2-11.3 4-7.1 6.2-17 6.2-29.4l-.4-40.4.6-78-.2-18.3 2.3-69.7-.7-45.5 1-18.4-1.7-39-.4-14.7c-.2-2.3-1-6-2.3-11-9.4-4.3-24.5-7-45.5-8.1-5-.2-9-.6-12-1l-1-30.2 97.8 4.1c12 .5 19.6.8 22.5.8 13.4 0 35-1 64.6-2.7 16.6-1.2 27-2 31.4-2.2.2 4.4.4 8 .4 11 0 3.9-.3 8.9-.7 15-9.1 3.2-19.5 6.2-31.3 9a245 245 0 00-28.8 8.8c-1.4 6-2.1 14.5-2.1 25.7 0 9.8.3 17.7 1 23.9-.7 38.5-1 68.1-1 88.9l.3 90.1-1 45.9.7 68.3-.4 13c0 1.7.5 4.4 1.5 7.8 13.8 3 26.6 5 37.8 6.2l21 2.7a133.2 133.2 0 011 28.7c-3 0-5.3 0-6.9.3l-12.6.7c-1.6 0-4.6-.3-8.9-1l-45.4-4.8-60.6-.6c-12 0-29.6 1-52.6 3.4a807 807 0 01-29.4 2.3zm-505.1-442.5l19.8-.3c5.5 0 10 .1 13.3.3l18.6 1.3 8.5-.3a387 387 0 0067.3 4.8c29.6 0 57.6-1.8 84-5.5 3.7.2 7.7.6 12 1-.5 7.6-.7 15-.7 22.7l-7.1 3-33.8 5.8c-2.8.7-6.6 1.9-11.4 3.8.3 4 .7 7 1.4 8.8a665.3 665.3 0 0046.8 71l33.2 47.7 3.8 5.5 19.5-24 42.3-61.9a186.7 186.7 0 0019.5-34.2c1-2.2 1.4-4.4 1.4-6.4l-1-5.5a48 48 0 00-11-4.8c-1.6-.2-6-.4-13-.7-11.9-.2-22.5-1.1-31.8-2.8-.7-4.5-1-7.9-1-10.1 0-1.2.2-4 .7-8.3 0-1.5 0-4.2.3-7.8 2.6-.3 4.8-.8 6.9-1.8 20.5 1.5 62.8 2.1 127.1 2.1 8.2 0 15.4-.3 21.8-1s10.3-1 11.7-1c2.2 0 5.7.3 10.3 1 1 4.5 1.6 8.6 1.6 12.2l-.3 11-52.6 11.3a47.9 47.9 0 00-14.4 9.3c-5.3 4.7-19.4 21.9-42.4 51.5l-49.5 64.3c-5.8 7.8-10.4 14-14.3 18.6l-10 12.5 5.1 7.1c12.5 18.1 25.4 36.2 38.3 54.4l68 100.4c18 26.7 31.4 43.2 40 49.2 6.2 4.4 21.7 9 46.8 13.7a82 82 0 011 9c0 1-.5 5.3-1.7 12.6l1 3-24.2.7c-5.3 0-15.5-.6-30.7-1.6l-42.1-2.8-4.4-.7c-4.8-.3-8-.4-10-.4-14.3 0-31.2.8-50.8 2.5-19.6 1.6-34 2.3-43.2 2.3-5.8 0-15.5-.2-29-.6v-9c0-4 .2-8.2.7-12.5 17.6-4.6 35.9-8.3 55-11.4l8.6-4.8.3-3.7c0-2-.3-4-1-6.2a96.5 96.5 0 00-9.6-18.7c-10-16-23.6-35.3-40.6-57.8l-40.7-54.3c-5.3 6.1-23.6 31.5-55 75.9a178.8 178.8 0 00-25.3 36.9 52.3 52.3 0 00-6.9 16l.4 2.7 4.4 6.2c8.4 3.9 19 7.8 31.5 11.8 12.5 4 20.5 6.7 24.3 8l2 15.8v1.6l-.7 3.8c-6.6.9-11 1.4-13.3 1.4-3.6 0-14.6-1-32.8-2.7a396 396 0 00-33.1-1.4l-16.1-.4-75.6 3.4-16-.3-1.4-15.3c0-2.1.4-5 1-9 3.9-.3 8.8-1 14.7-1.6 17.8-1.7 31.4-4.8 41-9.6 4-2 11-9 21.6-20.9a751 751 0 0043.7-52.2c7.5-10 13.4-17.6 17.7-22.7 12.2-16.5 30.3-40.3 54.4-71.4l-20.2-30.4a687 687 0 01-33.8-44.7l-20.2-29.4a300.2 300.2 0 00-15.3-23.9c-11-14.1-24-33.1-39-56.8-5.6-8.6-13-15-21.9-19.1-8.8-4.1-23.3-6.7-43.3-7.8v-5.2c0-2.5-.2-4.3-.4-5.4-1-4.4-1.4-7.3-1.4-8.6l.7-8.2zm-481.2 0l19.8-.3c5.5 0 10 .1 13.4.3l18.5 1.3 8.5-.3a386.8 386.8 0 0067.3 4.8c29.7 0 57.6-1.8 84.1-5.5l12 1c-.5 7.6-.8 15-.8 22.7l-7.1 3-33.8 5.8c-2.8.7-6.6 1.9-11.3 3.8.2 4 .7 7 1.3 8.8a665.2 665.2 0 0046.8 71l33.2 47.7 3.8 5.5 19.5-24 42.3-61.9a187.3 187.3 0 0019.5-34.2c1-2.2 1.4-4.4 1.4-6.4l-1-5.5c-4.6-2.6-8.3-4-11-4.8-1.6-.2-6-.4-13-.7-11.9-.2-22.5-1.1-31.8-2.8-.7-4.5-1-7.9-1-10.1 0-1.2.2-4 .7-8.3 0-1.5 0-4.2.3-7.8 2.6-.3 4.8-.8 6.9-1.8 20.5 1.5 62.9 2.1 127.1 2.1 8.2 0 15.5-.3 21.8-1 6.5-.7 10.3-1 11.7-1 2.2 0 5.7.3 10.3 1a56 56 0 011.6 12.2l-.3 11-52.6 11.3a48 48 0 00-14.4 9.3c-5.2 4.7-19.4 21.9-42.3 51.5l-49.6 64.3c-5.7 7.8-10.4 14-14.3 18.6l-10 12.5 5.2 7.1a4848 4848 0 0038.2 54.4l68 100.4c18 26.7 31.4 43.2 40 49.2 6.2 4.4 21.7 9 46.8 13.7.7 4.7 1 7.6 1 9 0 1-.5 5.3-1.7 12.6l1 3-24.2.7c-5.3 0-15.5-.6-30.7-1.6l-42.1-2.8-4.4-.7c-4.8-.3-8-.4-10-.4-14.3 0-31.2.8-50.8 2.5a558 558 0 01-43.2 2.3c-5.8 0-15.5-.2-29-.6v-9c0-4 .2-8.2.7-12.5 17.6-4.6 36-8.3 55-11.4l8.6-4.8.3-3.7c0-2-.3-4-1-6.2a96.5 96.5 0 00-9.6-18.7c-10-16-23.5-35.3-40.6-57.8l-40.7-54.3c-5.3 6.1-23.6 31.5-55 75.9a178.8 178.8 0 00-25.3 36.9 52.2 52.2 0 00-6.8 16l.3 2.7 4.4 6.2c8.4 3.9 19 7.8 31.5 11.8 12.5 4 20.6 6.7 24.3 8l2 15.8v1.6l-.7 3.8c-6.5.9-11 1.4-13.3 1.4-3.6 0-14.6-1-32.8-2.7a396 396 0 00-33.1-1.4l-16.1-.4-75.6 3.4-16-.3-1.4-15.3c0-2.1.4-5 1-9 4-.3 8.8-1 14.7-1.6 17.8-1.7 31.4-4.8 41-9.6 4-2 11-9 21.6-20.9a754.1 754.1 0 0043.7-52.2 442 442 0 0117.7-22.7 3341 3341 0 0154.4-71.4l-20.1-30.4a684.1 684.1 0 01-33.9-44.7l-20.2-29.4a300.2 300.2 0 00-15.3-23.9c-11-14.1-24-33.1-39-56.8-5.6-8.6-13-15-21.8-19.1-9-4.1-23.4-6.7-43.4-7.8v-5.2c0-2.5-.1-4.3-.4-5.4-1-4.4-1.4-7.3-1.4-8.6l.7-8.2zm-433 414.2c7-2 17-4 29.9-6 12.8-2 20.4-3 22.7-3 8.9-.1 14.8-1.7 17.7-4.3 1.5-5.5 2.1-10 2.1-13.7l-.6-43.7 2-44.5V7954l.4-33.5-.7-35.6 1.3-76.1.3-34.6v-4.8c-1.5-23.9-3.1-37-4.5-39.5-1.5-2.3-8-5.4-19.7-9-1-.5-5.5-2.2-13-5.1a86 86 0 00-15.4-4.8 43 43 0 01-16.7-7.2 122.4 122.4 0 01-.3-21.8c2-1.2 4.2-1.8 6.4-1.8 5.5 0 25.3 1 59.5 2.8l48.9-.3 36.2.6a724.8 724.8 0 0073.2-4.1c3.4 0 5.7.9 7.1 2.8 1.9 2.4 2.7 7 2.7 13.6 0 5.2-1.2 9.2-3.7 12-1.3 1.5-6.3 3-15 4.1l-42.4 10c-1.2.3-3 1.2-5.9 2.6a34 34 0 00-2 4l-.3 9.6-1 21.6v6.2l.3 3.7-1 18.8c-.3 3-.4 6-.4 8.9 0 3.6.2 9.8.7 18.4a716.1 716.1 0 010 76.7c-.2 5.6-.3 13-.3 22.1l-1.5 162c0 6.8 1.2 11.2 3.5 13.3l32.5 1.5 20.2-.4 21.4.7c36.8 0 65.6-4.3 86.6-12.7 15.6-6.4 25.9-12.7 30.7-19.1a98.4 98.4 0 0019-22.2 212 212 0 0016.5-39.7h11c5.5 0 11.6.5 18.4 1.3v9.7c0 16.3-2 45-6.2 86a134 134 0 01-4.7 30.2c-5.3.8-8.6 1.3-10 1.3h-12.5l-17.8.3c-2 0-15.6-1-40.7-2.7l-65.3-2.4c-39-1.3-77.1-2-114.4-2l-69.8 2c-26.8.7-52 2-75.5 3.8h-5.1c-1.4 0-3.5 0-6.5-.3a64 64 0 011.8-27.4zm-643.2 28l1-23.2c28.5-3.7 46.6-9.5 54.4-17.4 5-5.5 8.9-19.7 11.6-42.7l4.4-121.7 5.1-123.8c.5-7.4.7-12 .7-13.6 0-32-1.8-50.7-5.6-55.8-3.7-5-18.4-9.9-44-14.7-6.3-1.2-11.3-2.4-14.9-3.4-.5-5.7-.7-10.4-.7-14.3v-10.6c8.4-.7 18.3-1 29.8-1l100 3.4c2.3.3 5.5.5 9.6.7l15.8.6c3.8 4.7 7.7 10.6 11.5 18.2 8.5 16.6 19.6 41 33.5 73.2l3.8 9.2 53.3 115.8c1.1 2.7 3 6.8 5.5 12 3.4 8.2 6.9 16 10.5 23.4 3.8 7.4 7.5 15.6 11.6 24.5 4 8.8 7.7 16.6 11.4 23.5 3.2-5.5 6.2-11.5 9.2-18 9.1-21 18-40.3 26.6-58 15-30.8 35.5-78.2 61.3-142 4-10.3 10.8-25.8 20.3-46.3a610 610 0 0115.5-32.7c2-1.9 6.2-2.8 12.3-2.8 2.3 0 5.9 0 10.7-.2 11.7-.7 26-1.3 42.7-1.7 23.9-.3 43-1 57.6-2.3 14.4-1.2 22.5-1.8 24.4-1.8 2.3 0 5 .2 8.1.7l.4 7.4-.7 10.3c0 2-.1 5.1-.4 9.2-21.3 3.1-38.8 8-52.2 14.3-9.4 4.6-14 10.3-14 17.2v5.1l5.8 104.5c.7 9.6 2.4 57 5.5 142.6a1731.8 1731.8 0 005.1 81.3c.2 5.5 1.4 9 3.5 10.6 2.2 1.6 22.6 8.2 61.4 19.8a148 148 0 010 22.6c-6.1 0-21.6-1.3-46.5-4-24.8-2.6-48-3.8-69.7-3.8a1087.5 1087.5 0 00-108.3 5l.6-23.6c9.3-3.6 21.8-6.6 37.3-9.2 10.9-1.8 17.9-5 20.8-9.2 3-4.4 4.6-16.4 4.6-36.2 0-7.6-.2-14.1-.4-19.8-1.2-24-1.9-57.2-2.1-99.9l-5.8-120.6c-.7-17-1.4-29-2.4-35.6l-85.1 195.5a3528.6 3528.6 0 00-19.8 42.7 1143.4 1143.4 0 00-36.6 96.9c-1.8 5.6-4.5 13-8.1 22.1l-26.4-.3-18.4-52.3c-5.5-13.6-14.8-34.4-28.1-62.2-7.7-16.2-13.8-29.3-18.1-39.3l-4.5-9.2-4-8.6a13 13 0 00-1-3.4l-51-109.7-31-66.7-2.8 161.7-2.4 104.9c0 17.3 3.2 29.7 9.8 37 6.4 7.5 20.4 13.8 41.7 19l16.5 4.2v25a452 452 0 01-42.6-3 551.6 551.6 0 00-60.3-2.6c-5.2 0-27.6 1-67.3 3zm-67.9-435c3 6.9 9 26.3 18 58.4a181 181 0 016.6 46.5h-31.1c-22-31-44.5-53.2-67.7-66.8a151 151 0 00-77.9-20.4c-35.4 0-63.8 13.9-85.5 41.4-29.3 37.3-44 89.4-44 156.2 0 38.7 2.5 66.3 7.5 82.7a212.3 212.3 0 0031.1 65.2c9.6 12.9 22 23 37.6 30.5 20 10.2 41.4 15.4 64.3 15.4 25 0 49.2-7.8 72.5-23.5 23.3-15.6 45.7-38.8 67.2-69.9 8.4-1.6 19.5-2.4 33.1-2.6a233 233 0 01-4.4 26.9l-7.8 43.4-3.1 10.3-4.9 16c-13.8 10.7-33.3 18.7-58.5 24.1-25.2 5.4-56.1 8-92.9 8-28 0-54.4-2.5-79.4-7.8-25-5.2-46.3-13.6-64-25a235.7 235.7 0 01-61.3-53.2 203 203 0 01-32.9-62.6 248 248 0 01-10.8-76c0-67.8 22.4-123.8 67.2-168 44.8-44.2 102-66.3 171.3-66.3 28.4 0 55 1.4 79.8 4.2 25 3 48.3 7.2 70 12.9zm-1047.5 435l1-23.2c28.5-3.7 46.6-9.5 54.4-17.4 5-5.5 8.8-19.7 11.6-42.7l4.4-121.7 5.1-123.8c.5-7.4.7-12 .7-13.6 0-32-1.8-50.7-5.6-55.8-3.7-5-18.4-9.9-44-14.7-6.3-1.2-11.3-2.4-14.9-3.4-.5-5.7-.7-10.4-.7-14.3v-10.6c8.4-.7 18.3-1 29.7-1l100.1 3.4c2.3.3 5.5.5 9.6.7l15.8.6a100 100 0 0111.5 18.2 1301 1301 0 0133.5 73.2l3.8 9.2 53.3 115.8c1 2.7 3 6.8 5.5 12 3.4 8.2 6.9 16 10.5 23.4 3.8 7.4 7.5 15.6 11.6 24.5 4 8.8 7.7 16.6 11.4 23.5 3.2-5.5 6.2-11.5 9.2-18 9.1-21 18-40.3 26.6-58 15-30.8 35.5-78.2 61.2-142 4.1-10.3 10.9-25.8 20.3-46.3a610 610 0 0115.6-32.7c2-1.9 6.2-2.8 12.3-2.8 2.3 0 5.8 0 10.6-.2 11.8-.7 26-1.3 42.7-1.7 24-.3 43-1 57.7-2.3a551 551 0 0124.3-1.8c2.4 0 5 .2 8.2.7.3 3.1.3 5.6.3 7.4l-.6 10.3-.4 9.2c-21.4 3.1-38.9 8-52.3 14.3-9.3 4.6-14 10.3-14 17.2v5.1l5.9 104.5c.7 9.6 2.4 57 5.5 142.6a1731.8 1731.8 0 005.1 81.3c.2 5.5 1.4 9 3.5 10.6 2.2 1.6 22.6 8.2 61.4 19.8a140.5 140.5 0 010 22.6c-6.1 0-21.6-1.3-46.5-4-24.8-2.6-48-3.8-69.7-3.8a1087.5 1087.5 0 00-108.3 5l.6-23.6c9.3-3.6 21.8-6.6 37.3-9.2 10.9-1.8 17.9-5 20.8-9.2 3-4.4 4.6-16.4 4.6-36.2 0-7.6-.2-14.1-.4-19.8-1.2-24-1.9-57.2-2.1-99.9l-5.8-120.6c-.7-17-1.4-29-2.4-35.6l-85.1 195.5c-2 4.6-5.2 11.2-9.2 19.9l-10.7 22.8a1142.5 1142.5 0 00-36.5 96.9c-1.8 5.6-4.5 13-8.1 22.1l-26.4-.3-18.4-52.3c-5.5-13.6-14.8-34.4-28.2-62.2-7.6-16.2-13.7-29.3-18-39.3l-4.5-9.2-4-8.6c-.3-1.3-.6-2.5-1-3.4l-51-109.7-31.1-66.7-2.7 161.7-2.4 104.9c0 17.3 3.2 29.7 9.8 37 6.4 7.5 20.4 13.8 41.7 19l16.5 4.2v25a452 452 0 01-42.6-3 551.6 551.6 0 00-60.3-2.6c-5.3 0-27.7 1-67.3 3zm3223.4-1728.8l173-121c4.8-3.2 8.1-6 10-8.2 2-2.2 2.6-5.3 1.9-9.3l3.5-2.4 8.6-6 43.9 62.7-3.6 2.3-12.6 8.8c-15.8-13.2-29.7-18.9-42-17-12.2 2-25.8 8.1-40.6 18.5l-55 38.4 61.7 88.5 35.4-24.7a53.9 53.9 0 0018.8-20c3.2-7 1.9-14.5-3.8-22.6l-.6-.8 3.7-2.4 12.5-8.7 44 62.8-3.7 2.6-12.5 8.7a28 28 0 00-25.6-11.6c-3.2.6-5.7 1.7-8 2.8l-5 2.8-42 29.6 70.2 100.8 80.5-56.2a63.7 63.7 0 0022.1-80l3.5-2.4 12.7-8.9 43.2 62-3.5 2.4-219.8 153.4-8.8-12.5c5.6-5 8.5-9.7 9-14.4.4-4.7-.3-9-2-13-.8-1.5-1.5-3.1-2.4-4.5-.7-1.5-1.7-2.8-2.5-4L6346 6419.6l-2-3-2.4-2.7a30.3 30.3 0 00-11.7-7.8c-4.7-1.7-10.8-.8-18.2 3.1l-8.8-12.6zm884.5-3068.4l-29-34.4-11.5 3.2-39.5 9.8-39 8.9-38 8.2-36.4 8-34.6 8-32.2 8.5-29.2 9-25.8 9.8-21.8 10.5-17.2 11.2-12.7 11.4-8.7 11.8-5.6 13.1-2.7 16.1 1 21 8 36.5c21.1 28.8 51 63.6 87.3 101.8l5.1-7.4 26.2-35 27.6-34 29-33 30.3-31.7 31.7-30.2 32.9-28.5 34.2-26.6 35.4-24.6 35.2-21.4zM5002.2 6611.7c-784-3.6-2143.4-539.7-2382.8-2358.6-192.2-12.1-233.3 288.3-568.5 199.6 42.9 1627.9 1550 2847 2951.3 2820 1401.3 27 2908.3-1192.1 2951.2-2820-335.2 88.7-376.3-211.7-568.4-199.6-227.9 1819-1610.4 2355-2382.8 2358.6zM2519.8 4522.5l14 79.4-159.5 188.9v.4l146.3-25.8 5-1c1.9-.6 3.9-1.4 6-2.7 2.9-1.6 5.4-4.4 7.4-8.4s3-9.7 2.8-17.2l15.1-2.6.8 4.2 12.7 71.8-15.2 2.7c-2-7-4.8-11.7-8.2-14.6a26.8 26.8 0 00-9.6-5.7 45.8 45.8 0 00-12.2 0l-253.4 44.7-.7-4.2-4-22.3 194.4-229.7-187 33c-1.4.2-2.9.6-4.4 1a22.6 22.6 0 00-13.5 10.6c-2.4 4-3.6 10-3.3 17.7l-15.2 2.7-.7-4.2-12.7-71.9 15.1-2.6a32.3 32.3 0 009.3 15.4 22.6 22.6 0 0016.3 5.4c1.5-.1 3-.3 4.4-.6l212.7-37.5 5-1a32 32 0 005.7-2.1c3.5-1.5 6.5-4 9-7.5 2.6-3.5 3.3-8.6 2.1-15.3l-.4-2.5 15.1-2.7.8 4.2zm105 428.6c15.3 44.4 12.1 84.4-9.5 120a163.6 163.6 0 01-87.3 72.7l-.6.2c-43.9 15.1-83.8 12.8-120-7a151.2 151.2 0 01-73.5-85.7l-1.8-3.9a153 153 0 015.6-113c16.3-37.7 46.4-64.2 90.2-79.2l.6-.2.6-.3c36.4-12.2 74-11 113 3.8 39 14.7 66 44.2 81.3 88.6l1.4 4zm-22 5.4a75 75 0 00-40.6-44.2c-19.7-9.2-56.3-4.6-109.8 13.8-47.1 16.3-77.2 33.4-90.3 51.7-13.2 18.2-15.8 39.6-8 64.3 9.2 24.5 24.4 39.9 46 46 21.5 6.2 55.8 1.2 102.8-15 53.3-18.4 85-37.3 95-56.7a74.6 74.6 0 004.8-59.9zm74 151.3l34 73-105.2 223.8.2.4 134.6-62.8 4.5-2.4a20 20 0 0010.1-14.1c1-4.4.5-10.1-1.7-17.3l14-6.5 1.8 3.9 30.8 66.1-14 6.5c-3.7-6-7.6-10-11.6-12-4-1.9-7.7-2.9-10.8-3a32.3 32.3 0 00-11.8 3.2l-233.1 108.7-1.8-3.9-9.6-20.4 128.3-272.2-172.2 80.3a58 58 0 00-3.9 2 22.9 22.9 0 00-10.3 13.7 32.5 32.5 0 001.3 18l-13.9 6.6-1.8-3.9-30.8-66.1 14-6.5a32.7 32.7 0 0012.8 12.5 22.6 22.6 0 0017.2 1c1.5-.5 2.9-1.1 4.1-1.7l195.7-91.2 4.6-2.4c1.7-1 3.3-2.1 5-3.5 2.9-2.3 5.2-5.5 6.8-9.5 1.5-4 .9-9.2-2-15.4l-1-2.3 13.8-6.5 1.8 3.9zm277.2 561l-61 33.6-2-3.7-8-14.6c13-11.8 20.9-23.8 23.7-36a79.3 79.3 0 00-2.4-45.5 67.4 67.4 0 00-4.4-9.7c-7-12.1-15.3-19.5-24.9-22.1a43.6 43.6 0 00-26.6.3c-1 .5-2 1-3 1.3l-2.8 1.4a30.6 30.6 0 00-15.2 17.9 77.3 77.3 0 00-2.6 36.7c.5 4.3 1 7.7 1.5 10.4l.6 4 .5 4.1c4.4 28.2 5.8 54.1 4 78-1.8 23.9-15.9 43.1-42.3 57.7a92 92 0 01-73.4 7.3c-26-7.7-46.8-25.7-62.3-53.8l-2.5-3.5c-4.3-8.4-7.5-16.1-9.8-23.2-2.2-7-4.1-13.5-5.8-19.4l-.7-3-.7-3c-1-4.7-1.9-8.7-2.8-12.1-.9-3.4-2-6.6-3.2-9.5a14.4 14.4 0 00-9.8-6.3l-1.6-.1c-.6 0-1 0-1.5-.2l-1.3.3-2.1-3.7-6.3-11.6 63-40.2 2.1 3.8 8 14.6a98.6 98.6 0 00-17 41 95 95 0 007.5 58.3 65.8 65.8 0 0030.4 29 56.8 56.8 0 0040 2.6c2.5-1 4.9-2 7-3.3a32.4 32.4 0 0018.4-29.5 247.3 247.3 0 00-4-49l-2.6-18.7a133 133 0 016.6-68 71.4 71.4 0 0135.3-38.2 80.5 80.5 0 0166.7-7 87 87 0 0151.2 42.4l2 3.7c4 7.2 7 14 8.8 20 1.9 6.1 3 11.8 3.4 17.2.5 5.5.6 10.2.5 14a41 41 0 00.7 10.2v1.4l.7 1.6c1.2 1.6 2.6 3 4.4 4 1.8 1.3 4 1.8 6.5 1.6l2 3.8 7 12.7zm-16.4 362.2l-5.3 20.5c-30-6.6-53.3-15.4-70.2-26.2a156.4 156.4 0 01-41.1-37.5l-2.9-3.1a149 149 0 01-29.5-109.7c4.8-40.2 26.2-74.6 64.5-103.3 39-29.2 77.5-40 115.9-32.5 38.3 7.5 68.1 25 89.4 52.4l1 1.3.6.8 2.5 3.4a191 191 0 0120.6 34.7c1.3 3 2.3 5.6 3 7.9l2 5a78.8 78.8 0 008.4 17.6c1 .8 2 1.4 3 2 1.2.5 2.4 1 3.8 1.4l.7.6 1 .2c.4.2.8.2 1 .4l1 .2 1.2.2 1.3.2 2.5 3.4 9.2 12.3-56.3 42.3-2.6-3.5-9.2-12.3a72 72 0 0011.5-43c-.7-15.6-4.5-30-11.4-43l-3-4.9-3-4.3c-18.6-23.5-39.6-32.2-63.1-26.3a218.2 218.2 0 00-79.3 39 295.5 295.5 0 00-21.2 15.8 143.4 143.4 0 00-48.8 63.3c-8.3 21-2.7 45 16.8 71.9a125.4 125.4 0 0049.8 37.9l16.1 6.3c5.7 2 11.5 3.7 17.6 5.2l2.5 3.4zm280.3-40.3l-11.2 10.5c-.8-.9-1.9-1.7-3.3-2.5-1.3-.9-2.8-1.6-4.4-2a24 24 0 00-11.3-1.5 23 23 0 00-13.4 6.9l-68.7 63.8 98 105.7 68.9-63.8 2-1.9c.7-.7 1.3-1.4 1.7-2.2 2.8-3.3 4.5-7.2 5.2-11.8.6-4.5-1.1-9.8-5.3-16l11.2-10.4 3 3.1 72.2 77.9-11.2 10.4a27 27 0 00-16.4-6.6c-5.3 0-10.6 2.5-16 7.5l-160.5 149.5c-5 4.7-7.8 9-8.4 12.9-.7 3.8.4 8.8 3.2 14.7l.7 2 1 2.3-11.3 10.5-3-3.1-72.2-77.9 11.3-10.5 2.2 1.1 1.9.9c5.7 3.2 10.6 4.7 14.5 4.3 4-.3 8.4-2.8 13.4-7.5l75.4-70-98.1-105.7-75.4 70a26.3 26.3 0 00-8.4 13.2c-1 4.7.8 11 5.1 19l-11.3 10.4-2.9-3-72.2-78 11.2-10.4a38 38 0 0018.2 5.8c4.4-.3 9-2.6 13.9-7l160.7-149.2c4.6-4.3 7.2-8.5 7.9-12.6.6-4.1.4-7.8-.7-11-.3-1.7-.9-3.2-1.6-4.6l-2-3.7 11.3-10.5 2.9 3.2 72.2 77.8zm267.5 250.2c36.4 29.6 54.9 65.2 55.2 106.8.5 41.7-11.3 77.5-35.3 107.4l-.4.5-.4.5c-29.3 36-64.5 55-105.6 57.4-41.1 2.4-77-9-107.7-34l-3.6-2.3a153 153 0 01-54.9-98.9c-6-40.7 5.5-79 34.8-115l.4-.5.4-.5c24.5-29.6 57-48.4 98-56.5 40.7-8 79.4 2.8 115.8 32.4l3.3 2.7zm-15.9 16.2a75 75 0 00-57.8-16.2c-21.6 2.6-50.2 25.8-86 69.8-31.4 38.6-47.8 69.1-49.4 91.5-1.5 22.4 7.5 42 27.3 58.8 20.7 16 41.7 21 63.2 14.9 21.5-6.2 48-28.6 79.4-67.2 35.5-43.6 52.5-76.4 50.7-98.1a74.9 74.9 0 00-27.4-53.5zm150 90.7l88.7 60.1-8.6 12.7c-6.4-3.3-11.7-4.3-16-3.1a21.8 21.8 0 00-10.4 6.3c-1.4 1.1-2.6 2.4-3.5 3.8l-3 4.2-.1.2-.1.2-130.5 192.5 76.7 52a61.5 61.5 0 0044.8 11 63.7 63.7 0 0037.9-19l3.5 2.4 12.7 8.6-42.4 62.6-3.5-2.4-217.2-147.3 8.6-12.7c6.6 3.5 12.1 4.6 16.6 3.3 4.5-1.2 8.2-3.5 11.3-6.5a65.1 65.1 0 006.2-7.6l118.8-175.2a37 37 0 007-17.7c.4-5.3-2.8-11.4-9.6-18l8.7-12.9 3.5 2.5zm74.2 389.4c2 .3 5.6.2 10.7-.2a70.5 70.5 0 0031.5-16.3l155.4-128.4c1.6-1.5 3.2-3 4.8-4.8 1.6-1.8 3-3.6 4.3-5.6 1.3-1.5 2.6-3.3 3.6-5.3 1.2-2 2.1-3.9 3-5.7 1-2 .4-4.6-1.5-7.5-1.9-3-5.1-5.3-9.6-7.1l-1.7-.8-1.7-.8 6.5-14c11 4.2 20.4 6.5 28.7 6.7a78.2 78.2 0 0025.6-2.9c1.5-.5 2.9-1 4.1-1.8l3.9 1.9 13.9 6.5 2 259.1a228 228 0 003.4 43.8 54.7 54.7 0 009.8 22.3l-6.5 14-3.9-1.8-110.5-51.9 6.6-14 1.1.6a19 19 0 0016.1.8c5.2-2.2 9.1-5.3 11.9-9.3l1.2-2a8.8 8.8 0 002-4.8c.3-1.2.4-2.5.4-3.8 0-.3.2-.5.4-.8v-1l.4-3c.2-.8.2-1.6.2-2.3l-.2-30.7-119.4-56-20.7 18.1c-.5.3-1 .8-1.3 1.3l-1.3 1.2-3.2 2.8c-1.2 1-2.2 2.3-3.2 3.7a9 9 0 00-1.5 2.3c-.5 1-1 1.9-1.4 3a19 19 0 00-.3 14.2c1.7 5.3 7 11.2 16 17.6l-6.5 13.9-3.8-1.8-75.8-35.6 6.5-13.8zm214.9-124.5l-96.5 81-.7 1.6 96.6 45.3.5-1.2v-126.7zm200.5 5.5l198.3 72.7c5.4 2 9.5 3 12.4 3.4 3 .3 5.8-1 8.7-3.9l4 1.5 10 3.6-26.2 71.8-4-1.5-14.5-5.3c1.8-20.5-1.6-35.3-10.1-44.2a101 101 0 00-38.5-22.7l-63-23-37 101.3 40.4 14.8c10.7 4 19.7 5.3 27.2 3.9 7.5-1.3 13-6.7 16.3-16l.3-.9 4 1.5 14.5 5.3-26.4 72-4-1.4-14.5-5.3c1.9-6.8 2.1-12.5.6-17-1.6-4.5-3.5-8.1-5.9-10.8-2.2-2-4.5-3.6-6.8-4.8l-5-2.3-48.6-17.8-42.2 115.4 92 33.8a61 61 0 0046.2-.1 63.7 63.7 0 0032.2-27.6l4 1.5 14.4 5.3-26 71-4-1.5-251.6-92.3 5.3-14.4c7.3 1.8 12.9 1.4 17-.9a26.2 26.2 0 0011.7-13.6 57 57 0 001.9-4.3l72.8-198.7 1.2-3.4c.5-1.2.8-2.4.9-3.6 1-4.5.9-9.1-.4-14-1.2-4.8-5.5-9.2-12.9-13.1l5.3-14.4zm557.1 148.5l-9.7 68.8-4.2-.5-16.5-2.4a71.5 71.5 0 00-14.5-40.6 79.3 79.3 0 00-26.8-21.2 94.7 94.7 0 00-21.5-6.5c-13.8-1.6-24.7.6-32.5 6.6a43.7 43.7 0 00-15.8 21.5l-.7 3.2-.6 3.1c-1.2 8.8.5 16.4 5.2 23a78.4 78.4 0 0027.8 24.1l9.2 5a65 65 0 007.2 4 336.3 336.3 0 0164.8 43.6c18 15.7 25 38.5 20.7 68.4a92 92 0 01-38.1 63.1c-21.9 16.2-48.7 22-80.5 17.6l-4.3-.2c-9.2-1.6-17.4-3.6-24.3-6a486.7 486.7 0 01-22-8.2l-2.8-1.3c-4.3-2-8-3.7-11.3-5a65.5 65.5 0 00-9.5-3 14.4 14.4 0 00-11 4 6 6 0 00-1 1.1c-.3.6-.6 1-1 1.2l-.6 1.2-4.2-.6-13-1.9 5.6-74.6 4.3.6 16.5 2.4a98.8 98.8 0 0022.6 38.3 96 96 0 0051 29 66 66 0 0041.5-7 56.7 56.7 0 0026-30.4c.9-2.6 1.4-5.1 1.8-7.7a32.7 32.7 0 00-12.7-32.4 250.3 250.3 0 00-36.4-23.2l-2.6-1.4-2.6-1.5-16.6-9.2c-6.2-3.4-12.5-7.5-18.7-12.1-12-8.9-22.5-20.2-31.6-34-9.2-13.8-12.3-30.8-9.5-51 3.5-24.9 15-44.1 34.4-57.7a87.5 87.5 0 0164.7-15.5l4.2.6a106 106 0 0121.3 5c6 2 11.3 4.6 15.7 7.5 4.8 3 8.7 5.7 11.6 8.1 3 2.4 5.8 4.3 8.5 5.5.2.4.6.6 1.2.8.5.3 1 .4 1.6.5 2 0 4-.4 6-1.1 2-.7 3.7-2.2 5.1-4.3l4.2.7 14.4 2zm30.2-5.4l211 7.4c5.8.2 10 0 13-.6 2.8-.6 5.1-2.8 7-6.4l4.3.1 10.6.4-2.7 76.3-4.3-.1-15.3-.5c-4.7-20-12.5-33-23.4-38.8-11-5.8-25.5-9-43.6-9.7l-67-2.3-3.8 107.9 43 1.5c11.5.4 20.5-1.2 27.2-4.9 6.6-3.5 10.1-10.4 10.5-20.3v-.8l4.3.1 15.4.5-2.7 76.8-4.3-.1-15.4-.6a29 29 0 00-4.7-16.4 31.4 31.4 0 00-8.9-8.4 30 30 0 00-8-2.4c-2.6-.4-4.4-.6-5.5-.6l-51.7-1.8-4.2 122.8 98 3.4c17.4.6 32-4.2 43.9-14.5a63.6 63.6 0 0022-36.1l4.2.1 15.4.5-2.7 75.5-4.2-.1-267.8-9.4.5-15.3c7.4-.6 12.7-2.6 15.8-6.1a26 26 0 007-16.6l.4-4.7 7.4-211.5v-3.6a29.4 29.4 0 00-5-16.8c-2.6-4.3-8-7.1-16.2-8.5l.5-15.4zm280.3 11.3l125.8-11c48.7-4.2 86 1 111.7 16 25.7 14.8 44.1 32 55.2 51.2 7.7 13.3 13 26.4 15.9 39.1 2.8 12.7 4.5 22.8 5.2 30.2 1.9 21.5-.2 42-6.2 61.6a129.8 129.8 0 01-51.5 68 169.7 169.7 0 01-63.3 25.9c-14.3 2.6-24.7 4.1-31.2 4.7l-4.2.4-135.6 11.9-1.4-15.4c10.2-4.3 16-8.6 17.3-13 1.3-4.4 1.7-9.6 1.2-15.5v-.7l-.1-.6-18.5-210.9v-.6-.6c-.6-6-1.9-11-4-15.1-2-4.1-8.5-7.4-19.2-10l-1.4-15.2 4.3-.4zm108.6 267.7l29-2.6c6.1-.5 13.4-1.6 21.7-3.2 8.3-1.6 16.7-4.3 25.2-8.2a99.7 99.7 0 0041.4-38.3c12-18.5 16.3-46.7 13-84.7-3.6-40.2-14-68.5-31.3-85a113.3 113.3 0 00-54.7-30.8 158.3 158.3 0 00-43-1.8l-23.4 2 22.1 252.6zm257.8-285.7l121-23.4 3.1 15.5-1.9.4-1.9.4c-7.8 1.5-13.4 4.4-16.7 8.6a17 17 0 00-3.5 14.5 27.7 27.7 0 003.6 9.3l2.4 3.8 2.5 3.5 110.5 143.9 2-.4 40.5-176.7.4-1.6.3-1.5a29.3 29.3 0 00.7-12.3c-1-5.4-3.6-9-7.4-11a31.6 31.6 0 00-19.2-3.4c-2.4.2-4.3.4-5.7.7l-3-15 4.2-1 84.2-16.4 3 15a37.7 37.7 0 00-18.6 15 77.4 77.4 0 00-9.4 24.5l-61.9 267-4.1.8-16 3-169.9-222.7-3.5-4.7a60.4 60.4 0 00-17.5-15.7 33.4 33.4 0 00-19.5-4.2l-3-15 4.3-1zm312.6-71.5l101.5-31.3 4.5 14.6c-5.6 2.7-9.5 5.9-11.3 9.6a26.5 26.5 0 00-3 10.5 44 44 0 002.4 12.2l.2.6v.2l62.4 202.3v.2l.3.6a56.4 56.4 0 004.8 11.5c2 2.6 4.8 5 8.4 7 3.6 2 8.5 2.5 14.8 1.4l4.5 14.7-4 1.3-101.6 31.2-4.5-14.6c6.2-2.9 10.3-6.3 12.1-10.5a25.1 25.1 0 001.2-18 71 71 0 00-1.3-4.7l-62.3-202.3a45.7 45.7 0 00-3.8-9.5c-2-3.6-5-6.6-8.8-9.1-4-2.5-9.3-3.2-16-2l-4.5-14.7 4-1.2zm103.8-37.6l15.8-6.4a55 55 0 0027.5-4.8l176.4-71.6c2.6-1.1 5-2.2 7.1-3.4l6.6-3.6a87.2 87.2 0 009.8-9l3.9-1.6 15.4-6.3 29 71.2-4 1.6-14.3 5.7a88 88 0 00-21.3-16.1c-7-3.7-13.6-6-20-7.1a53 53 0 00-22.3-.6c-6.5 1.4-11.7 2.9-15.6 4.5l-22.3 8.6 89.6 220.5c2.4 5.9 5.6 10 9.5 12.6 4 2.5 10.4 3.2 19.5 2l5.7 14.2-4 1.6-98.3 40-5.8-14.2 1.9-1.7 1.4-1.5a26 26 0 009.1-12c1-3.8.4-9-2.2-15.3l-89.7-220.5-18 7.8c-4 1.6-8.1 3.6-12.5 6a66.8 66.8 0 00-29.1 30.2 67.3 67.3 0 00-5.6 34.5l-4 1.7-14.2 5.8-29-71.2 4-1.6zm385 163.3a47.3 47.3 0 0011.7-28c.3-2.4.4-5 .5-7.6 0-2.6 0-5.3-.2-8l-10-201.4a48.6 48.6 0 00-2.8-13.4c-.4-2-1.1-4.1-2-6.2a72 72 0 00-2.9-5.8c-1-2-3.3-3-6.8-3.3-3.5-.2-7.3.9-11.5 3.4l-1.7 1-1.6.9-7.3-13.6a80.3 80.3 0 0035.6-41.2l1-4.5 3.7-2 13.6-7.2 208.8 153.5a229.2 229.2 0 0037.2 23.5 55 55 0 0023.7 5.4l7.2 13.6-3.7 2-107.7 57.5-7.2-13.6 1-.5c5.7-3 9-7.2 10.4-12.5a27.4 27.4 0 00-.3-15.1l-1-2.2a10.9 10.9 0 00-2.6-4.4c-.8-1-1.8-1.9-2.8-2.6l-.4-.8c-.1-.3-.4-.4-.8-.5a29.6 29.6 0 00-4-3.8l-24.6-18.2-116.3 62.2 2 27.5.3 1.7c.2.6.2 1.2.2 1.8l.3 4.2c.2 1.6.6 3.1 1.1 4.8.2.9.5 1.7 1 2.6l1.4 2.8c2.2 4 6 7 11.3 8.8 5.3 1.8 13.2 1 23.7-2.3l7.2 13.6-3.7 2-73.7 39.4-7.3-13.5zm28.8-246.7l7.2 125.9.8 1.4 94-50.3-.5-1-101.5-76zm413.8-400.5l93-85.4c36.1-33 68.9-51.5 98.4-55.4 29.4-3.9 54.4-1.5 75 7 14.2 5.9 26.4 13 36.4 21.3a259 259 0 0122.5 20.8c14.6 16 25.5 33.5 32.6 52.6a130 130 0 01.7 85.4 167.4 167.4 0 01-34.4 59 406.8 406.8 0 01-22 22.8l-3.2 2.9-100.3 92-10.3-11.3c5.4-9.6 7.3-16.6 5.7-21a41 41 0 00-8.5-13l-.4-.4-.5-.5-143-156-.5-.4c0-.2-.2-.3-.4-.5-4-4.5-8.1-7.6-12.3-9.6-4.1-2-11.2-.7-21.3 3.9l-10.3-11.3 3.1-2.9zm249.2 146l21.4-19.5a233 233 0 0015.3-15.9c5.6-6.2 10.6-13.6 15-21.8a99.5 99.5 0 009.5-55.6c-1.8-22-15.6-47-41.3-75-27.3-29.8-52.9-46-76.6-48.5a113 113 0 00-62.1 9 177.3 177.3 0 00-35.2 24.8l-17.3 15.8 171.3 186.7zm-7.7-362l71.7-78.5 11.3 10.4a22.7 22.7 0 00-5 14c.3 4 1.3 7.6 2.8 10.6a55 55 0 008.3 9.3l.4.4.2.1 156 143 .3.1.5.5 4 3.4a45 45 0 006 4c3 1.2 6.5 1.8 10.7 1.8 4.1-.1 8.6-2.2 13.5-6.2l11.3 10.3-2.9 3.2-71.7 78.4-11.4-10.4c4-5.7 5.7-10.7 5.3-15.2-.5-4.5-2-8.5-4.6-12a60.1 60.1 0 00-7-7.6l-156.1-142.9a57.4 57.4 0 00-8.1-6.3c-3.5-2-7.6-3.2-12.3-3.3-4.6-.2-9.6 1.9-14.8 6.3l-11.3-10.4 2.9-3zm224-244.8l53.7 44.2-2.8 3.4-10.6 12.8a71.5 71.5 0 00-42.2-8.8 78.6 78.6 0 00-41.4 19c-2.8 2.5-5.2 5-7.4 7.7-8.7 11-12.4 21.3-11.3 31.2 1 10 4.4 18.2 10 24.7 1 .7 1.7 1.4 2.4 2.2l2.3 2.2a30.7 30.7 0 0022.3 7.5 77.2 77.2 0 0035.1-11.1c3.7-2 6.8-3.8 9-5.3l3.6-2 3.6-2a342.2 342.2 0 0171-32.5c23-7.2 46-1.1 69.2 18a91.9 91.9 0 0134 65.6c2.3 27-6.7 53-27 77.7l-2.5 3.6c-6.2 7-12.1 13-17.8 17.6a447 447 0 01-21 16.2c-4 2.6-7.5 4.9-10.3 7a67.7 67.7 0 00-7.5 6.5 14.6 14.6 0 00-1.8 12.9c.2.6.4 1.1.4 1.5l.8 1.1-2.7 3.3-8.5 10.2-60.6-43.8 2.7-3.3 10.6-12.8a98.3 98.3 0 0044.5.7 95.6 95.6 0 0051.3-28.5 65.9 65.9 0 0015.8-39 57 57 0 00-12.3-38 55 55 0 00-5.7-5.5 32.6 32.6 0 00-34.2-6.1 249.5 249.5 0 00-38.8 18.8l-2.6 1.5-2.6 1.5-16.5 9.3a133.7 133.7 0 01-65.7 19 71.6 71.6 0 01-48.4-18.7 81 81 0 01-31.2-59.4 87.4 87.4 0 0120.5-63.2l2.8-3.3c5.2-6.4 10.3-11.6 15.2-15.6 5-4 9.9-7.2 14.7-9.5 5-2.5 9.4-4.4 13-5.6 3.6-1.3 6.7-2.7 9.1-4.4.4 0 .9-.2 1.3-.6a5 5 0 001.3-1.2 16 16 0 002.2-5.6c.4-2 0-4.3-1-6.6l2.7-3.3 9.2-11.2zm359.3-112.6l21.2-1.5c3.2 30.5 2.4 55.5-2.5 75a156.7 156.7 0 01-22.3 50.8l-2 3.8a149.3 149.3 0 01-94.5 63c-39.6 8.3-79-1-118.5-28-40-27.5-62.7-60.7-67.8-99.4-5.2-38.7 1.8-72.6 21-101.6l.8-1.2.6-.8 2.4-3.6a185.3 185.3 0 0126.2-30.6 394 394 0 0110.7-8.7 87.8 87.8 0 0014-13.7c.5-1 .7-2.2 1-3.5.1-1.3.2-2.6.1-4 .2-.3.3-.5.3-.8v-2.1l-.1-1.2-.2-1.2-.2-1.1 2.4-3.6 8.7-12.6 58 39.8-2.4 3.5-8.7 12.7a72.2 72.2 0 00-44.4 2.9 100.4 100.4 0 00-40.9 29 71.2 71.2 0 00-3.1 4.2c-16.3 25-17.8 47.8-4.7 68.2a217 217 0 0062.3 62.7 576.8 576.8 0 0021.8 15 142.9 142.9 0 0075.6 26c22.5 1 43.4-12 62.7-39 5.7-8.8 10.3-18.1 13.5-28 3.3-9.8 5.4-20.2 6.5-31.2.4-5.6.6-11.4.7-17.4.2-6 0-12-.6-18.3l2.4-3.5zM7227 5426.5l50.7-93.4 13.4 7.3a22.6 22.6 0 00-1.4 14.8c1.3 3.9 3 7 5.2 9.6a52.1 52.1 0 0011 7.4l186.1 100.9h.2l.5.4a60.1 60.1 0 0011.5 4.8c3.3.5 7 .2 11-1 3.9-1 7.8-4 11.5-9.2l13.5 7.4-2 3.7-50.7 93.4-13.5-7.3c2.5-6.4 3-11.7 1.4-16-1.5-4.2-4-7.8-7.4-10.5a55.5 55.5 0 00-8.5-5.7l-186-100.9a58.8 58.8 0 00-9.5-4.1c-4-1.2-8.1-1.3-12.7-.3s-8.9 4.1-12.8 9.7l-13.6-7.3 2.1-3.7zm63.6-102.9l39.3-95 222.9 9.4-164.4-150.6 1.6-4 37.2-89.8 14.1 5.8a24.2 24.2 0 004.3 22c2 2.2 3.8 3.6 5.8 4.5l4.4 2.2 203.1 84c5.5 2.2 10.2 2.8 14 1.8 3.8-1 7-2.5 9.8-4.5 1.4-1.3 2.6-2.6 3.7-4l2.6-3.5 14.2 5.8-1.7 4-40.6 98.1-14.2-5.8c1.5-5.9 1.7-10.6.6-14.2a25.5 25.5 0 00-5-8.9c-1.6-1.6-3.5-2.9-5.2-3.8l-4.3-2-198.7-82.2 199.6 182.8-1.6 4-11.4 27.5-274.1-11.7 198 81.9c8.3 3.4 15 4.3 20 2.7a22.7 22.7 0 0015-14l14.3 5.8-1.6 4-27.3 65.8-14.2-5.9c2.6-6.3 3.1-11.5 1.5-15.8-1.7-4.2-4-7.5-7-10a25.2 25.2 0 00-6.7-4.9l-5-2.3-189-78.1a45.7 45.7 0 00-26.2-4.1 20 20 0 00-15.2 12.8l-14.2-5.9 1.6-3.9zm137-332.6l26-101.2 15 3.8c-.7 8.4.7 14.2 4.4 17.7a33.3 33.3 0 0015.3 8.1l2.5.7 117.8 30.4 9.8 2.5c3.4.9 6.7 1.6 10 2.2 20.2 4 39.7 3.2 58.6-2.1 18.8-5.4 32.6-24.4 41.3-56.8 7-28.1 6-49.4-2.7-63.7a79.2 79.2 0 00-45.6-36c-4.4-1.4-8.5-2.6-12.3-3.6l-137.2-35.4-.2-.1-.6-.1-4.6-1-5-.7a22 22 0 00-10.4 4.2c-3.6 2.5-7 7.3-10.5 14.7l-14.8-3.8 1-4.2 17.7-68.6 15 4c-1 6.7-.4 12 1.5 16 2 3.8 4.1 6.8 6.5 8.9 2 1.4 4 2.4 6 3a76 76 0 005.2 1.6l135.4 35a181.5 181.5 0 0146.3 18.8c14.1 8.2 25 20.3 32.9 36.5a91.8 91.8 0 018 20.5c5 17.2 6.5 32.5 4.6 46.2-2 13.6-3.6 23-5 28.2l-.6 4.3a191 191 0 01-19.7 49 156 156 0 01-22 29.2 112.1 112.1 0 01-27 18.6c-2.2 1.2-5 2.5-7.9 3.7-7.4 2.5-16.9 4.3-28.5 5.2-11.5 1-26-.8-43.3-5.2l-136.8-35.3-3.7-1c-1.4-.3-2.6-.5-3.8-.5-4.5-1-8.9-.6-13.3 1-4.3 1.4-8.2 5.9-11.6 13.3l-14.8-3.9 1-4.1zm114-497.3l68.7 10.2-.6 4.3-2.5 16.4a71.4 71.4 0 00-40.7 14.3 79 79 0 00-21.4 26.5c-1.7 3.8-3.1 7.5-4.2 11a67 67 0 00-2.5 10.5c-1.7 13.8.4 24.7 6.4 32.6 6 8 13.1 13.3 21.4 16 1 .1 2.1.3 3 .6l3.2.7a31 31 0 0023-5 78.7 78.7 0 0024.4-27.6l5-9.2a102 102 0 004-7.2c13.6-25 28.3-46.5 44.2-64.4 15.9-18 38.8-24.6 68.6-20.1a92 92 0 0162.8 38.6c16 22 21.7 48.8 16.9 80.6l-.2 4.3a151 151 0 01-6.2 24.3 517 517 0 01-9.7 24.7c-2.1 4.3-3.8 8-5.2 11.3a66.2 66.2 0 00-3 9.4c-.2 2.6.2 4.9 1 6.7a15.3 15.3 0 004 5.3c.5.4 1 .7 1.1 1l1.3.7-.7 4.2-1.9 13-74.6-6.3.7-4.2 2.4-16.5a98.5 98.5 0 0038.5-22.2 96.3 96.3 0 0029.4-51c2-17-.2-30.7-6.6-41.4a56.7 56.7 0 00-30.1-26.3c-2.6-.8-5.2-1.5-7.7-1.8a32.7 32.7 0 00-32.6 12.4 251 251 0 00-25 38.7c-.4 1-1 1.8-1.4 2.7l-9.3 16.5c-3.6 6.2-7.7 12.4-12.3 18.6-9 12-20.4 22.4-34.2 31.4-13.9 9-30.9 12-51.2 9a80.9 80.9 0 01-57.3-35 87.4 87.4 0 01-15-64.7l.6-4.2c1.3-8.2 3-15.2 5.2-21.2 2.1-6 4.7-11.2 7.7-15.7 3-4.7 5.7-8.6 8.2-11.5 2.4-3 4.3-5.8 5.5-8.4.4-.3.6-.7.8-1.2.3-.5.4-1.1.5-1.7 0-2-.3-4-1-6-.8-2-2.1-3.7-4.2-5.1l.6-4.2 2.1-14.4zM7811 3450.2c-464.6-410.6-891.3 85.5-1022.2 447.7l60.2 156.8 17.8 38.8 18.3 32.9 18.5 27.4 18.5 22.3 18.4 17.7 18 13.6 17.5 9.8c221.8-419.6 646-722 910.4-301.4 73.5-113-130.7-346.6-75.4-465.6zm-5617.7 0c464.6-410.6 891.3 85.4 1022.2 447.7l-60.1 156.8-17.9 38.8-18.2 32.9-18.5 27.4-18.5 22.3-18.4 17.7-18.1 13.6-18 10.2-7.5 3C2793.1 3804 2377 3503.7 2118 3915.7c-73.4-113 130.8-346.6 75.4-465.6zm4862.6-1144c203 853.3-327 286.3-276.5 602.6 98.6 84.3-92.5 361.2-9 591.6-110-371.5 862.5-15.5 669.7-785.5-120-3.4-185.7-381-384.2-408.6zm-4107.4 0c-203.1 853.3 327 286.3 276.4 602.6-98.6 84.3 92.6 361.2 9 591.6 110-371.5-862.5-15.5-669.7-785.5 120-3.4 185.7-381 384.3-408.6zm4439 1905.6c-46.3-174.6-406.4 348.7-594.8-188.3l43.4 686.9c72.8 201.6 222.3 178.5 391.1 93.8l24.8-83.5 36.8-150.2 30.7-157.6 29.7-200.5 38.3-.6zm-4770.6 0c46.2-174.6 406.4 348.7 594.7-188.3l-43.3 686.9c-72.5 200.4-220.5 178.7-388 95.3l-25.6-85.1-37.4-150.3-31.5-157.6-30.9-200.4-38-.5zm4637.4-299.2c293 219.7 620.6 378.3 668.1 132.6l-94.6-142.4-24.2-30.7-24.6-26.8-25-22.8-25.2-19.1-25.5-15.7-25.6-12.3-25.9-9.4-26-6.4-26.6-3.6-26.8-.9-27.3 1.7-27.7 4.3-28 6.8-28.5 9.4-28.7 11.8-28.8 14.2-28.9 16.5-28.9 18.8-28.7 20.8-28.6 22.9-28.2 24.8-5.8 5.5zM2817 3328.2l29-34.4 11.4 3.2 39.6 9.8 39 8.9 37.9 8.2 36.5 8 34.5 8 32.2 8.5 29.3 9 25.8 9.8 21.7 10.5 17.3 11.2 12.7 11.4 8.7 11.8 5.6 13.1 2.7 16.1-1 21-2.5 11.5c-20.8 31.7-54.9 72.7-98.2 119l-26-34.6-27.6-34-29-33-30.3-31.7-31.7-30.2-32.9-28.5-34.1-26.7-35.5-24.5-35.1-21.4zm-80.3 586.6c-287.1 216.8-604.6 371.2-654 134.4l93.3-145.6 23.7-30 24-26 24.4-22.2 24.7-18.6 24.8-15.2 25-12 25.4-9 25.5-6 26-3.3 26.3-.8 26.8 1.9 27.2 4.4 27.7 7 28 9.4 28.3 11.8 28.6 14.2 28.5 16.5 28.7 18.7 28.5 20.8 28.4 22.8 28 24.8 2.2 2zm2357.8-999c10.2-11 11.4-47-.7-55 19.6 9.6 17.7 45 .7 55zm-216.2 0c10.3-11 11.4-46.9-.7-54.9 19.7 9.5 17.8 44.9.7 55zm90.5 96.5c-14.6 15-23.8 13.5-34 17.5-14 10.7 13.7 23 32.7 24.2 19 0 50.2-13 35.4-24.4-10.1-3.8-19.4-2.3-34-17.3zm0-15V2997.5zm1.4-323.7v3.8c-.5-.3-1-.7-1.4-1.3-.4.6-.7 1-1.2 1.3v-3.5c-1.6-3.2-2.8-7.2-5-8.3-1.5 2.4-2 14.2-2 13.4-4.7-4.7-5-9.3-9-14.1-1.7 7.5-.8 8-1 16.5-6.2-7.9-10.8-10.2-13.2-12.6.1 4 .7 8.4 1.1 17.2-2.9-6-13-13.3-13-14.8a173 173 0 012.5 20.5c-3.4-4.8-10.3-9.4-12.7-12.5.3 6.4 2.7 8.9 4.5 20.6 0 .7-9.5-9-14.4-11.4 7 38.6 15 28-9.1 9.6 6.2 16.3 29.6 96.4 24.6 126-3.7-22.3-23.7-105.7-39.5-111.4 3.3 16.6 14.4 53.4 15 71.4-11.2-32-15.2-57.4-24.5-64.2-4.7 14.4 5.1 37.1 10.7 60.2-8.5-17.8-17-48.2-26.5-48.2-2.3 12.7 9.7 35 14.4 46.2 0 0-17.5-31-24.6-34.3-4 8.7 9.5 23.9 11.8 35.8a109.5 109.5 0 01-22.1-24.6c0 14.3 5.5 12.7 7.1 27-7.1-8.7-27.6-33.3-34.7-40.6 23.8 9.8 44.7-33.3 44.2-52.6-2.4-73.3-177.5-204-169.7 42.2 2.4 63 12 83 32.4 112.3 10.3-19 44.2-49.3 57.6-58 0-17.6-8.6-20-11-28.7 5.5 6.3 23.7 24.7 30 24.7-15.8-13.6-53-85.3-38.8-82 10.3 46.9 38 58.9 63.2 90.8 0 5.5-14.2-8.8-24.5-8.8-.7 2.4 8.7 13.4 11 16.7-4.8-2.5-18-12.8-22.7-11.2-2.8 1-2.5 6.2 4.6 20-5.5-.8-11-1.6-16.6-1.6 2.4 4.7 4 10.3 5.6 15.9-12.9-6-18.6-9.2-19.6-5.3-.5 2.4.7 7.3 3 15.6-5-3-8-3.4-9.5-1.8-2.4 2.6-.8 10.7 2.1 21.7-4.6-7.8-7.7-7.9-9.6-3.3-5.2 12.7-1.6 60.8 3.3 78.3 3.1 11.6 14.2 31.8 22 23 2 11.7 3.7 17 6 19 2.5 1.8 5.6.2 10.8-2.2 4.1 1.3 6.9 19.4 16 20.3 3.1.4 6.9-1.3 11.6-6 9 13.6 13.6 18.7 17.7 19 5.3.2 9.6-7.3 21.1-15 1 8 3.5 12 7.3 13 8.5 2.4 23.5-9 42.6-22.5-36.2 32.2-40.9 51.7-30 59 14 9.5 53.8-1 85.2-30.3 13.1-12.2.8-13.4-5.6-26.1-7.7-15.8 6.7-18.8 19.5-19.2v-.2h3.4v.1c12.8.4 27.2 3.5 19.4 19.3-6.4 12.7-18.7 14-5.5 26.1 32.1 30 73.2 40.4 86.2 29.5 9.5-8 4-27.2-31-58.3 17.3 12.2 31.3 22.9 40 23 5.3 0 8.7-3.8 9.8-13.4 12.8 8.5 16.8 16.9 23 14.4 3.7-1.4 8.2-6.8 15.9-18.4 4.7 4.7 8.5 6.4 11.5 6 9.1-1 12-19.1 16-20.3 5.2 2.4 8.4 4 10.8 2.1 2.4-1.9 4-7.2 6-18.8 7.9 8.7 18.9-11.6 22-23.1 5.2-18.6 9-72 2.2-80.3-2-2.4-4.7-1.2-8.5 5.3 3.5-13.2 5.2-22.2 0-22.6-1.6-.1-4 .7-7.4 2.7a94 94 0 003-12.4c1-8.2-4.1-5.1-19.6 2 1.6-5.5 3.2-11.1 5.5-15.9-5.5 0-11 .8-16.5 1.7 7-13.8 7.4-19 4.6-20-4.6-1.6-17.8 8.7-22.7 11.2 2.3-3.3 11.8-14.3 11-16.8-10.3 0-24.5 14.4-24.5 8.8 25.3-31.8 53-43.8 63.2-90.9 14.2-3.1-23 68.6-38.7 82.1 6.3 0 24.4-18.3 30-24.6-2.4 8.7-11 11.1-11 28.6 13.4 8.8 47.3 39 57.5 58.1 20.5-29.4 30-49.3 32.3-112.3 8-246.1-167.2-115.5-169.5-42.2-.8 28 15.7 38.3 28.4 51 6.3 7.2 7.8 4.8 15.7 1.6-7 7.3-27.6 31.9-34.7 40.6 1.6-14.3 7.1-12.7 7.1-27-6.3 8.7-14.2 19-22.1 24.6 2.3-12 15.8-27 11.9-35.8-7.1 3.2-24.6 34.3-24.6 34.3 4.7-11.2 16.7-33.5 14.3-46.3-9.5 0-18 30.5-26.4 48.3 5.5-23 15.4-45.8 10.6-60.2-9.3 6.8-13.3 32.2-24.4 64 .5-17.8 11.7-54.6 15-71.2-15.8 5.7-35.9 89.1-39.5 111.3-5-29.5 18.3-109.6 24.5-126-24.1 18.4-16 29-9-9.5-5 2.4-14.4 12.1-14.4 11.4 1.8-11.7 4-14.2 4.4-20.6-2.3 3.1-9.3 7.6-12.7 12.5.3-6 1.7-17.3 2.5-20.5 0 1.5-10.1 8.9-13 14.8.4-9 1-13.1 1.2-17.2-2.4 2.4-7 4.6-13.2 12.6-.1-8.4.6-9-1-16.5-4 4.8-4.3 9.4-9 14.1 0 .8-.5-11-2.1-13.5-2.1 1.1-3.4 5-5 8.1zm-481.7 47.6c-18-53.8-32.6-139.8-3.9-193.7 10-18.9 35.6-33.2 43.5-33.2 29.5 265.3 32.7 258.6 47.2 344.4-33.9-10-75.4-83.3-86.8-117.5zm372 207.8c-27.4.6-41-19.2-41-39.3.2-20.1 14-40.6 41.7-41.2 29.5-.7 42.8 21.8 40.7 43.1a40.6 40.6 0 01-41.5 37.4zm216 0a38 38 0 01-40.8-39.3c0-20.2 14-40.6 41.6-41.2 30.3-.7 43.6 23.1 40.4 45a40.5 40.5 0 01-41.2 35.5zm-246.4-143.8c-18.1-30.3-61.5-75.7-77.4-130 0 55.8 66.3 140.3 77.4 130zm277.6-.1c18-30.2 61.5-75.6 77.3-129.9 0 55.8-66.3 140.3-77.3 129.9zm2.5 2715.2c-178.6-960.3-308-1521-308-1580.1 70.6-31.4 71.8-30.7 124.3-45.8 47.6 83.2 81.5 126.4 151.6 203 3.7 39.6 6.2 139.3 10.4 179.3-94.6 142.9-102.7 141.3-114.4 188.8 31 221 57.4 292.3 180.3 475.8-39.2 81.4-62.6 344.4 66.2 397.3 1.8 35 4.7 70.8 8.2 107.2 14-4 28.1-6 42-6H5368.2c54.6-161.9 183.3-295 172.3-521.9-3.7-73.5-35.5-142.8-53.2-214.4-59.2 31-55.8 32.7-138.3 40.7 9.8 67.2 26.2 96.8 36 164.6-133.6 141.1-33.2 294.2-145 394.4-97 87.2-69.7-325.1-41.9-380.3-130.1-135-162.1-286.7-177-457.4 47-95.4 146.5-215.3 188-298.5-140-102.5-206.1-201.6-270.1-296.5 7.4 0 25.2-8.3 33-8.3 67.2 100.2 121.3 198.3 251.2 280a775.8 775.8 0 0070.6-225.5c-18.7 0-5 .9-16.6.9-11 67.2-34.6 129.9-65.7 191.8-61-58.5-115.5-194.4-139.2-260.1 54.1-41 67.4-55 108.5-102.9-7.1-11.8-3.6-7.2-12-19.8-47.8 41.2-65 54-112.2 98.8-158.9 41.4-158.9 38-265 86-24.7 53.2-3 111-94.6 119-34.3-195.9 123.2-269.8 241-340 13.5-61.6 10.2-120.8 36.1-178.3 53.1-117.9 103-176.6 142.6-272.6a731.2 731.2 0 0024.2-68.5l.6.1a798.7 798.7 0 0015-52.3c3-12.7 5-25.9 7-40.2a1031 1031 0 004.9-41.6c-49.1 49.5-154.9 71.9-198.7 73.2v.2c-42.5-.8-150.7-23.2-200.3-73.4-9 6.3-11 37.4-4.2 107.7a3748.4 3748.4 0 0013.2 107.3c1.7 12 3.5 24.4 5.4 39.2 3.2 19 6.2 35 8.9 49.6l12.7 69.1c19.7 107.7 27.3 147 63.5 308.2-7 2.5-3.6 5.3-15 9.9-21.5-90-19.1-91.4-77.3-336.3l-13.3-55.5c-2.5-10.3-5-21-8-35-3.1-12.9-6-23.3-8.8-34.1-6.3-23.7-12.5-49.4-18.5-75.6l-16.8-73.4c-7.2-31-14.3-61.3-21.5-88.2-26.2-97.7-79.7-510.8 93-432 67.2 30.8 132.8 53 185.3 53.5h1.7c52.6-.5 118.2-22.7 185.2-53.5 172.9-78.8 105 331.5 93.2 431.9a990.8 990.8 0 01-10.3 66.7c-3.2 17.1-6.5 34.6-10.4 51.3-3 12.2-5.4 24.2-8.1 35.5h.5l-4.4 17.6-15.2 55c-3.7 13.6-7.8 25.2-11.1 34.9-7.3 21-13 33.8-17.4 42-19.8 37.1-11.5-23.3 8.8 149.7 61.9 41 71.5 72 70.7 149 519.3-42.5 602.5 372.9 353.4 985.5 47 91.2 114.8 179.6 148.2 277.5 63.1 185 90.7 368.4 29.5 545.3h211c242.4 0 331.9-195.9 331.9-424V2386.1H4618.1c10 75.6 22 153 34.2 231.2-74.3 241.5 66.2 565 174.1 1097.3l-57.7 39.3c-64.4-326.8-65.7-342.8-160.2-845.5-23.6-125.7-37.4-252.8-48.8-380.2-4.3-47.4-9.6-94.8-14.8-142.1h-942.7v2609.7c0 233.8 108.8 415.3 352 421.9H4676.5c102.1 0 266.4 185.1 298.5 327.4a509.7 509.7 0 01135.2-244.8zM3495.7 2253.7h1036c-3-35.8-5.1-71.7-6-107.7-7.4-277.4 45.7-639.4 364-695.7 271.8-48.2 400.5 190.2 408.2 378.3 4 95.2-40.2 181.3-141.5 198-115.5 19-187.1-46.3-206-128.5-27.4-119.4 81.8-253.7 230.4-193.8-44.6-194.3-156.3-229.2-283-204.7-266.7 51.4-313.9 418.3-303 644.4 1.7 36 4.5 72.7 8 109.7h1849c0 929.6.2 1859.2 0 2788.8 0 240-150.4 479.7-405.5 479.7H5736a705 705 0 01-42.5 66.6c-42 58.4-210.5 204.6-277 220.7-61-114.4-77.8-206.3-70.6-287.3h-59.8c-15.2 0-30.8 3.6-46.3 10 35.7 324.1 93 808.3-277 944.4-222 81.7-442.8-37.3-478.6-311.4-36.4-279.1 319.8-379.7 379.6-111.7 28.6 128.3-125 270.9-255.4 191 7.1 195.8 186.5 242.5 335.4 188 286.2-104.5 236.8-534.2 188.4-811.6-73.6 88.9-135 221-157.3 323.9-33.6-149.7-206.5-422.6-314-422.6h-759.8c-255.9-6.9-405.5-233.7-405.5-479.7V2253.7zM5000 0c2760.9 0 5000 2239.1 5000 5000s-2239.1 5000-5000 5000S0 7760.9 0 5000 2239.1 0 5000 0zm0 107.3c2701.7 0 4892.7 2191 4892.7 4892.7S7701.7 9892.7 5000 9892.7 107.3 7701.7 107.3 5000 2298.3 107.3 5000 107.3z"></path>
</svg>
