<svg width="32" height="32" viewBox="0 0 32 32" fill="none" xmlns="http://www.w3.org/2000/svg">
<path d="M13.3333 22.6667V18.6667H4V13.3333H13.3333V9.33333L20 16L13.3333 22.6667ZM13.3333 2.66666H25.3333C26.0406 2.66666 26.7189 2.94762 27.219 3.44771C27.719 3.94781 28 4.62609 28 5.33333V26.6667C28 27.3739 27.719 28.0522 27.219 28.5523C26.7189 29.0524 26.0406 29.3333 25.3333 29.3333H13.3333C12.6261 29.3333 11.9478 29.0524 11.4477 28.5523C10.9476 28.0522 10.6667 27.3739 10.6667 26.6667V24H13.3333V26.6667H25.3333V5.33333H13.3333V8H10.6667V5.33333C10.6667 4.62609 10.9476 3.94781 11.4477 3.44771C11.9478 2.94762 12.6261 2.66666 13.3333 2.66666Z" fill="black"/>
</svg>
