<svg xmlns="http://www.w3.org/2000/svg" fill-rule="evenodd" clip-rule="evenodd" image-rendering="optimizeQuality" shape-rendering="geometricPrecision" text-rendering="geometricPrecision" viewBox="0 0 10000 10000">
  <circle cx="5000" cy="5000" r="5000" fill="#094882"/>
  <path fill="#fefefe" d="M8957 3642.5c64 0 116.3 52.2 116.3 116.2s-52.2 116.2-116.2 116.2-116.2-52.2-116.2-116.2 52.2-116.2 116.2-116.2zm-7912.7 0c64 0 116.2 52.2 116.2 116.2s-52.2 116.2-116.2 116.2S928 3822.7 928 3758.7s52.2-116.2 116.2-116.2zm7831.3 514.3l48.1 273.2 80 10.2-2.8-16.4c-44.6-28-54.8-46.9-59-70.5-2.1-12.3-5.2-23.9 16.3-27.7l248-43.7c14.9-2.6 27-3.2 31.8 24.5l1.8 10.3 25.6-4.6-28.3-160.9-25.6 4.5 1.8 10.8c5.4 30.2-10.3 31.4-21.5 33.4l-248 43.7c-21.6 3.8-22.7-8.1-25-21-3-17.9-1.6-48.3 31.4-85.8l-2.8-16.4-71.8 36.4zm60.2 332l23.8 272.6 26-2.2-1-11c-2.5-28.4 11-30.1 23.9-31.2l250.4-22c11.4-1 26.8-3.9 29.5 26.7l1 10.9 25.9-2.3-25.4-289.8-89.2-10.4 1.5 17c58 24.8 62.8 67.2 64.8 89.5l3.8 44c2 22.9-4.6 30.2-24.4 32l-117.1 10.2-4.9-55.5c-3.3-38.3 9.8-43.6 20-46.6 3.5-.9 5.6-1.6 9.7-2.4l-1.5-16.6-99 8.6 1.5 16.6c4.2.1 6.3.5 10 .7 15.8 2.3 24.5 0 30 62.7l3 35.2-91.2 8c-22.8 2-27.7-6-29.5-27.2l-3.3-37.8c-4.5-50.8 27.8-75.6 47.8-86.2l-1.4-16.6-84.7 23zm23.7 311.3l9.7 277.2 77.8 21.2-.6-16.6c-40.2-34-47.7-54-48.5-78-.5-12.5-2-24.4 20-25.2l251.6-8.7c15.1-.6 27.1.6 28.1 28.6l.3 10.5 26-1-5.6-163.3-26 1 .3 10.9c1.1 30.6-14.6 29.6-26 30l-251.7 8.8c-21.8.8-21.2-11.2-21.7-24.2-.6-18.2 5.1-48 43-80.7l-.5-16.6-76.2 26zm41.1 561.3c-11.4-.8-27.1-.3-25-31l.8-10.9-26-1.8-11.3 162.5 26 1.8.6-10.3c2.2-30.7 17.6-28 29-27.2L9245 5462c11.4.8 27 .3 25 31l-.8 10.8 26 1.8 11.3-163-26-1.8-.7 11c-2.1 30.6-17.6 28-29 27.1l-20.3-1.4-151.7-143.1.5-6.2 181.2 12.6c21.2 1.5 26.4 9.2 24.9 31.5l-.7 10.4 26 1.8L9322 5122l-26-1.8-.7 9.9c-1.5 21.3-7.7 29.2-29 27.7l-250.2-17.5c-21.3-1.5-26.5-10.2-25-31.5l.7-9.9-26-1.8-11.3 162.5 26 1.8.7-10.4c1.5-22.3 7.7-29.2 29-27.7l8.4.6 152.1 143.7-.4 5.7-169.7-11.9zm19.7 175.1l-70.6-6.4a239.3 239.3 0 00-47.5 106.8c-18 113.6 50.6 193 158.5 210 105.9 16.8 190-35.2 208.4-150.8 11.2-70.4-7.1-115.5-13.6-131.2l-79.8-18-2.6 16.5c46.8 20 74.3 69.7 66.8 117-5.3 33.4-32 99.2-159.5 79-109-17.2-154.5-72.4-145.4-130 5.4-33.8 29.4-62.7 82.7-76.4l2.6-16.5zm-1.8 527.8l-128.8-27.3c-22.3-4.8-24.5-14.8-19.7-37.2 5.2-24.4 24-70.4 91.2-56.2 32.6 7 76.2 31.7 61.3 101.9l-4 18.8zm30.5 6.5l6.4-30c25.9-121.7-11.5-171.1-70-183.5-58-12.4-127 21.4-145.3 130.3l-33.4 157.3 25.4 5.4 2.1-9.7c4.3-20.4 11.8-27.8 32.6-23.4l245.4 52.2c20.8 4.4 24.6 14.2 20.3 34.6l-2.1 9.7 25.5 5.4 35.3-166.5-25.4-5.4-3.7 17.3c-4.6 22-11.7 27.8-32.6 23.4l-80.5-17zm-269.6 116.6l-84.6 260.3 24.7 8.1 3.4-10.4c8.9-27.2 21.9-23.5 34.2-19.5l239 77.7c11 3.5 26.3 6.8 16.8 36l-3.4 10.4 24.8 8 89.9-276.6-78-44.5-5.3 16.3c43.7 45.5 31.5 86.4 24.6 107.6L9052 6403c-7.1 21.8-16.2 26-35 19.9l-111.8-36.4 17.2-53c12-36.6 26-36.3 36.6-35.1 3.6.6 5.8.8 9.9 1.6l5.1-15.9-94.5-30.7-5.1 15.9c3.7 1.7 5.6 2.9 8.9 4.5 13.7 8.3 22.6 9.5 3.2 69.4l-11 33.7-87-28.3c-21.9-7.1-23.3-16.3-16.7-36.6l11.8-36.1c15.7-48.5 55.1-58.7 77.7-60.7l5.1-15.8-87-11.9zm-3 521.8c34-97 90.9-81.4 107-74.2 24.3 10.8 60 44.3 35.8 101.3l-1.5 3.4c-12.6 26.9-23 22.2-36.8 16l-104.6-46.5zm-115.1-51.2c-13.8-6.2-24.8-11-12.7-38.2 24.8-55.6 67-43 85.6-34.8 41.8 18.7 36.5 61.3 11.2 110.4l-84.1-37.4zm-103.2 88.5l23.8 10.6 4-9.1c11.9-26.6 24.4-20.4 33.2-17.1 8.1 3.6 2.6.6 9.8 3.8l216.7 96.5c23.8 10.6 28.6 19 18.9 40.8l-4.3 9.5 23.8 10.6 76.8-172.5c46.4-104.2-2.5-149.3-36.2-164.3-55.2-24.5-102.8 10.7-122.7 49l-4.3-1.8c8.8-28.6 6.1-82.8-38.1-102.5-78-34.7-120.5 64.9-137.7 103.4l-63.7 143zm-88.7 276.6c-10-5.6-24.5-11.8-9.5-38.6l5.2-9.6-22.7-12.6-79 142.5 22.8 12.6 5-9.1c15-26.9 27.8-18 37.8-12.4l219.4 121.6c10 5.6 24.4 11.8 9.5 38.6l-5.3 9.6 22.8 12.6 79.2-143-22.7-12.5-5.3 9.5c-15 26.9-27.8 18-37.8 12.4l-17.8-9.8-77-193.9 3-5.4 158.9 88c18.6 10.4 20.1 19.5 9.3 39l-5.1 9.2 22.8 12.6 79-142.5-22.8-12.6-4.8 8.7c-10.3 18.6-19.4 23.2-38 12.8l-219.4-121.6c-18.7-10.4-19.7-20.4-9.3-39l4.8-8.7-22.8-12.6-79 142.4 22.8 12.7 5-9.1c10.9-19.6 19.4-23.2 38.1-12.9l7.3 4 77.2 194.6-2.8 5-148.8-82.5zm-65.5 545c17.5 12.3 17.4 22.4 5.2 39.9l-3.9 5.5 21.3 15 89.6-128-21.4-14.8-3.9 5.5c-12.8 18.3-21.6 21-39.1 8.8l-105.8-74 76.8-109.6 105.7 74c9.4 6.6 23 14.3 5.4 39.4l-4.1 6 21.3 15 89.5-128-21.3-14.9-3.9 5.6c-16.1 23-26.8 17.4-39.2 8.7l-205.4-143.8c-14-9.9-22.5-17-1.3-45.4l-21.3-15-89.6 128 21.4 14.9 4.1-6c17.6-25.1 29.5-14.9 39-8.3l74 51.9-76.6 109.6-74.2-52c-17.5-12.2-18-21.5-5.1-39.8l3.8-5.5-21.3-15-89.5 128 21.3 14.8 3.9-5.5c12-17 21.7-21 37.9-9.7l206.7 144.8zm-400.4 8.5l-101 120.4 20 16.7c18.6-23 35.2-24.1 62.4-16.9l240.6 64.7c14.9 22.7 15.8 50 4.4 63.5-10.4 12.3-18.7 9.4-22.7 6-3.2-2.7-4.7-6.6-7.2-10-3-5.3-7.2-10.1-12-14.2-22.3-18.7-42.4-11.7-50-2.6-11.8 14-12.7 37 10.4 56.4 25.5 21.4 69.7 27.2 103.5-13 24.7-29.6 19.7-65 1.7-102.6l-113.8-236c-12.1-25.2-11.6-39.7 10.8-67.1l-20-16.7-77.6 92.4 20 16.8 11-13.2a15 15 0 0121.3-1.1c4 3.3 6.6 7.5 10.2 14.6 2.6 4.2 3.4 4.9 5 7.7 3.5 5.6 4.8 8 9.3 17.3l49.2 101-4 4.7-135.7-39c-8.3-2.3-12.8-2.6-19.6-8.3-4.4-3.7-10.8-9.8 3.8-24.7l-20-16.8zm-367.1 358c36-32.3 36.4-68.4 19.3-87.4a32.8 32.8 0 00-45.6-1.6c-10 9-10.4 22.7-.6 33.5 4.1 4.6 9.2 5.6 15.5 5.6 7.8 0 13.4-3 16.2.1 4.2 4.6 3.4 20.8-15.6 37.9-15.5 14-34 17.3-39.3 11.5-3.5-3.8.9-9.9 1.6-16 .6-4.8-.8-12.7-4-16.1-8-9-21.3-13.7-33.3-2.9a32.4 32.4 0 00-3.2 45.5c21.3 23.6 58 17.8 89-10zm-12.7 31L7502.3 8075l17.4 19.4 7.7-7c16.7-15 25.9-15.6 40.2.3l167.8 186.4c14.3 15.8 12.7 25-4 39.9l-7.7 7 17.5 19.3 121.4-109.3-17.4-19.4-8.1 7.3c-22.9 20.6-32.2 8-39.8-.6l-13.6-15-9.7-208.4 4.6-4.2 121.6 135c14.2 15.9 11.5 26-4 40l-7.7 7 17.4 19.3 121-109-17.4-19.4-7.3 6.7c-16.6 15-25.9 15.6-40.2-.3l-167.8-186.4c-14.3-15.9-12.7-25 4-40l7.3-6.6-17.4-19.3-121 109 17.4 19.3 7.7-7c15.5-13.9 25.8-15.6 40.1.3l5.6 6.2 9.7 209-4.3 4-113.9-126.6c-7.6-8.5-19.2-19 3.6-39.6l8.2-7.3-17.5-19.3zm-348.4 495.5c7.5-7.4 21-19.8 30.7-26.8 50-36.4 85.5-10.7 105 16.3 29.8 40.8 12.9 81.4-17 103l-11.4 8.3c-17.2 12.6-27.5 9-38.2-5.7l-69.1-95.1zm-205.8-74.3l15.3 21 8.4-6c23.6-17.2 32.5-5 40.7 6.4l146.2 201.2c15 20.6 8 29.6-16 45.1l15.2 21 140.2-101.8c50.5-36.7 120.9-97.5 63-177-40.6-56-135.7-55.8-225.5 39.1l-57-78.3c-12.2-16.8-10-26.1 8.2-39.3l8.3-6-15.2-21.2-131.8 95.8zm282.9-205.6l15.3 21.1 8-5.8c22.7-16.6 31-7.8 40 4.4l147.3 203c9.8 13.4 17.3 22.8-16 45.1l15.2 21 131.8-95.7-15.3-21c-33.6 26.3-40.5 11.4-47.9 1.3l-147.4-203c-6.8-9.2-16.3-21.5 8.1-39.2l8-5.8-15.3-21.1-131.8 95.7zM6909.7 8822c10.7 18.5 6.3 27.6-12.2 38.2l-5.8 3.4 13 22.6 135.2-78-13-22.6-5.9 3.3c-19.4 11.2-28.5 10-39.2-8.5l-64.5-111.8 115.8-66.9 64.5 111.8c5.7 9.9 14.9 22.6-11.7 38l-6.3 3.6 13 22.6 135.2-78-13-22.6-5.9 3.3c-24.3 14.1-31.6 4.5-39.2-8.6l-125.4-217.1c-8.6-15-13.1-25 18-41.7l-13-22.5-135.2 78 13 22.6 6.3-3.7c26.6-15.3 33-1 38.8 8.9l45.3 78.4-115.9 66.8-45.2-78.4c-10.7-18.5-7.2-27 12.2-38.2l5.8-3.4-13-22.5-135.2 78 13 22.5 5.9-3.3c18-10.4 28.5-9.9 38.4 7.2l126.2 218.6zm-385.2 174.5c9 19.4 4 28-15.4 37l-6.1 3 11 23.5 141.4-66-11-23.5-6 2.8c-20.4 9.5-29.4 7.4-38.4-12l-54.6-117 121.3-56.4 54.5 116.9c4.8 10.4 12.8 23.9-15 36.9l-6.6 3 11 23.6 141.5-66-11-23.5-6.1 2.8c-25.5 11.9-32 1.7-38.3-12l-106-227.3c-7.3-15.6-11-26 21.5-40l-11-23.5-141.4 66 11 23.6 6.6-3.1c27.8-13 33 1.8 37.8 12.2l38.3 82-121.2 56.6-38.3-82c-9-19.4-4.8-27.7 15.4-37.1l6.2-2.9-11-23.6-141.5 66 11 23.6 6.1-2.9c18.9-8.8 29.3-7.3 37.7 10.6l106.6 228.7zm-209.8-256.4l-258.8 89.1 8.5 24.6 10.3-3.5c27-9.3 32 3.3 36.2 15.6l81.8 237.6c3.7 10.8 10.3 25.1-18.7 35l-10.4 3.6 8.5 24.6 275-94.6-11.3-89.1-16.3 5.6c-9.9 62.3-49.9 77.1-71 84.4l-41.9 14.4c-21.6 7.5-30.4 2.8-36.9-15.9l-38.2-111.2 52.6-18.2c36.4-12.5 44.7-1 50.1 8.1 1.7 3.3 2.9 5.1 4.7 8.9l15.7-5.5-32.3-94-15.7 5.5c.8 4 1 6.2 1.7 9.9 1.6 16 6 23.8-53.6 44.3l-33.4 11.5-29.8-86.6c-7.5-21.7-1-28.3 19.2-35.3l36-12.3c48.1-16.7 80 8.7 95.1 25.5l15.8-5.4-42.9-76.6zm-425.2 309.5c97.5-32.9 120.2 21.6 124.5 38.7 6.4 25.8 2 74.6-57.9 90.6l-3.5.9c-29 6.7-31.7-4.4-35.4-19l-27.7-111.2zm-30.5-122.1c-3.6-14.7-6.5-26.3 22.3-33.5 59-14.7 75.2 26.3 80.1 46 11 44.5-25.8 66.5-80 76.8l-22.4-89.3zm-133.2-26.9l6.3 25.3 9.6-2.4c28.3-7 31.2 6.7 34 15.6 2 8.6 1 2.4 3 10l57.4 230.3c6.2 25.2 2.6 34.2-20.6 40l-10.1 2.5 6.3 25.2 183.3-45.7c110.5-27.5 116-93.8 107-129.6-14.6-58.6-71.6-74.4-114.1-66.5l-1.1-4.6c27.8-10.7 68.9-46.1 57.2-93-20.6-82.9-125.3-55.2-166.2-45l-152 38zm-19 3.6l-274.7 38.6-13 79.6 16.5-2.3c29.6-43.6 48.7-53.1 72.4-56.5 12.4-1.7 24.1-4.4 27.2 17.2l35 249.4c2.1 15 2.2 27-25.6 31l-10.3 1.4 3.6 25.8 161.8-22.8-3.6-25.7-10.8 1.5c-30.4 4.3-31-11.4-32.6-22.7l-35-249.4c-3.1-21.7 8.9-22.3 21.8-24.2 18-2.5 48.3 0 84.7 34.4l16.4-2.3-33.8-73zm-321.8 132l-10.8-70.2a239.9 239.9 0 00-115.1-20.2c-114.6 10-175 95.8-165.5 204.6 9.4 106.8 80.2 176 196.8 165.7 71-6.2 110.3-34.8 124-44.9l-1.9-81.8-16.5 1.5c-8.2 50.3-49.7 89-97.4 93-33.7 3-104-7-115.3-135.6-9.6-109.9 32.9-167.4 91-172.5 34.1-3 68 13.4 94.1 61.8l16.6-1.5zm-504 113.7l4.7-131.6c.8-22.9 10.2-26.7 33.1-26 25 1 73.6 11.5 71.2 80.1-1.2 33.3-18 80.6-89.7 78.1l-19.2-.6zm-1 31.2l30.6 1c124.3 4.4 166.5-41 168.6-100.8 2.1-59.3-43.2-121.3-153.6-120.5l-160.6-5.6-1 26 10 .4c20.7.7 29.4 6.7 28.6 28l-8.7 250.7c-.8 21.4-9.8 26.7-30.6 26l-10-.3-.8 26 170 6 1-26-17.7-.7c-22.4-.8-29.5-6.7-28.7-28l2.9-82.2zm-321.1-155.3l6.2.8 28.8 135-100-14 65-121.8zm56-88.3l-21.1-3c-30 19-41.7 23.6-73.9 20.6l-2.3 16.5 5.7.8c18 2.6 17.6 9.3 16.9 14.5-1.1 7.7-5.2 14-9.3 21.3l-109.6 200c-3.5 6.4-3.2 8-12.2 19.3-10 12.3-14.7 19-46.4 16.1l-3.6 25.8 104.1 14.6 3.6-25.8-12.9-1.8c-4-.5-11.2-2-12.3-5.9-.3-1.1-.1-2.6.5-3.6 1-3.5 6.2-13.9 8.3-17.8l27.3-52.3 124.8 17.5 13.3 66c1.5 7.6 1.8 9.7 1.7 10.2-.2 1 .1 2.6-.5 3.6-1.8 5.5-5.9 4.4-9 4l-17-2.4-3.6 25.8 134 18.8 3.6-25.8c-14.5-1.5-21.6-3.5-29.5-14.6-10-14-14.1-37.7-15.8-44.8l-64.8-297.6zM4224.8 9196c-3.2 18.5-11.5 23.3-33 19.6l-109.2-19.3.9-5.1c17.4-20.7 52-73.3 88-229.7 4.7-20.3 11.5-46.6 41.7-41.2l29.7 5.2c28.7 5 26.4 17.9 24 31.7l-42.1 238.8zm-265 94l18.5 3.2c23.8-48.1 80.8-71.4 151.5-59l46.6 8.2c84.6 15 128.3 31.2 150.8 112.9l16.4 2.9 3-115.4-15-2.6c-21-3.7-28.4-9.2-24.5-31.8l43-243.9c3.8-21 12-25.4 34-21.5l10.2 1.8 4.6-25.6-291.6-51.4-4.6 25.6 9.3 1.6c22.5 4 37 6 26.2 67-10.1 57.4-39.3 153.7-74.8 199.2-17.7 22.8-33.5 31.6-72.6 25.3l-31 103.4zm-77.5-491l-150.3-45.9-7.6 25c28.5 8 36 22.8 40 50.7l34.5 246.8c-15 22.5-39.8 34-56.8 28.9-15.4-4.7-16-13.6-14.4-18.6 1.2-4 4.3-6.9 6.5-10.6a53 53 0 008.3-16.4c8.5-28-5.7-43.7-17.2-47.2-17.4-5.3-38.9 2.8-47.7 31.7-9.8 31.8 2.1 74.7 52.4 90.1 36.8 11.2 67.5-7.2 95-38.5l172.9-197c18.4-21 32-26.1 66-16.2l7.5-25-115.4-35.2-7.6 24.9 16.4 5a14.9 14.9 0 019.4 19.1c-1.6 5-4.4 9-9.6 15.1-2.8 4-3.1 5-5 7.7-3.8 5.4-5.6 7.6-12.3 15.3l-73.8 84.7-6-1.9-17-140.1c-1.2-8.5-2.6-12.8 0-21.3 1.7-5.4 4.8-13.8 24.2-6.2l7.6-24.8zm-202.1 40.4l22.1-67.4a240.3 240.3 0 00-93.4-70.3c-106.6-43-199.4 6-240.3 107.2-40.1 99.4-8.4 193.2 100.1 237 66.2 26.7 114.2 19 131 16.3l35.4-73.8-15.5-6.2c-30 41.2-84.6 56.7-129 38.8-31.3-12.7-89.5-53.6-41.1-173.2 41.3-102.3 105.3-134.3 159.3-112.4 31.9 12.8 54.5 42.7 55.9 97.8l15.5 6.2zm-571.4 14.2c-23.4-12.5-74.4-48.4-5.5-178 53-99.7 105.1-119.1 150.6-95 36.3 19.4 66.4 64.8 6 178.3-68.9 129.6-126.8 107.6-151 94.7zm-14.7 27.6c82.7 44 187.2 28.1 244.9-80.3 58.1-109.4 12.3-203.9-70.4-247.8-92.4-49.1-191.4-19.3-244.4 80.4-57.6 108.5-11.9 204.2 70 247.7zm-15.2-417.2L2853.6 8334l-13 22.5 9 5.2c19.4 11.2 22.8 19.8 12.2 38.3l-125.5 217.2c-10.6 18.5-19.8 19.8-39.2 8.6l-9-5.2-13 22.5 147.8 85.4 13-22.6-15.7-9c-26.6-15.4-17.5-28.1-11.7-38l119.4-207c3.9-6.7 1-.6 5.6-8.6 5.2-8 12.6-19.8 34.7-7l10 5.7c44.6 25.7 56.1 66 57.8 93.4l14.4 8.3 28.5-79.6zm-514.2-364.2c37.6 30.4 73.3 25.2 89.3 5.4a32.8 32.8 0 00-5.5-45.3c-10.5-8.5-24-6.7-33.1 4.6-4 4.9-4.2 10-3.2 16.2 1.2 7.7 5 12.8 2.5 16-4 5-20 6.6-39.9-9.4-16.2-13.1-22.5-31-17.6-37 3.3-4 10-.7 16.2-1 4.8-.1 12.3-2.8 15.3-6.4 7.5-9.3 10.1-23.3-2.5-33.4a32.4 32.4 0 00-45.4 4c-20 24.7-8.5 60 23.9 86.3zm-32.7-7.7l-127-102.8-16.3 20.2 8 6.6c17.5 14 19.5 23.1 6 39.7L2245 8250.8c-13.4 16.6-22.7 16.4-40 2.4l-8.1-6.6-16.4 20.2 127 102.9 16.4-20.2-8.5-7c-24-19.3-12.9-30.4-5.6-39.3l12.7-15.8 204.3-42.2 4.8 4-114.3 141.1c-13.4 16.6-23.9 15.5-40 2.4l-8.1-6.6-16.4 20.2 126.6 102.5 16.3-20.2-7.7-6.2c-17.3-14-19.4-23-6-39.7l157.9-195c13.4-16.5 22.7-16.3 40-2.3l7.7 6.2 16.4-20.2-126.6-102.5-16.3 20.2 8 6.6c16.2 13 19.5 23.1 6 39.7l-5.2 6.4-205 42.3-4.4-3.6 107-132.2c7.3-9 16-22 39.8-2.7l8.5 6.9 16.3-20.3zM2158.6 7834c8-8.3 17.7-20.5 39.8.8l7.9 7.6 18-18.8-117.2-113.1-18 18.7 7.5 7.2c22 21.4 10 31.5 2.1 39.8l-174.2 180.4c-8 8.2-17.7 20.5-39.8-.8l-7.8-7.6-18.1 18.7 117.5 113.5 18.1-18.7-7.8-7.6c-22.1-21.3-10.2-31.5-2.2-39.7l14-14.6 207.2-24.2 4.5 4.3-126.1 130.7c-14.9 15.3-24 14.4-40.2-1.2l-7.5-7.2-18 18.7 117.1 113.2 18.1-18.7-7.1-7c-15.4-14.7-17.4-24.6-2.5-40L2318 7988c14.8-15.4 24.8-13.7 40.1 1.1l7.1 7 18.1-18.8-117.2-113.2-18 18.7 7.4 7.3c16.1 15.5 17.4 24.7 2.6 40l-5.8 6-207.9 24.3-4.1-4 118.2-122.4zm-285-401.6l-20 16.7 6.8 8c18 21.5 9.9 30.4-1.7 40.1l-192.1 161.2c-11.6 9.7-21.8 16.2-39.8-5.3l-6.7-8-20 16.8 105.1 125.1 20-16.7-7.1-8.4c-18.4-21.9-7.2-32 2-39.7l68.1-57.2 47.1 2-46.5 122.5c-2 5-8.5 21.5-12.9 25.1-7.5 6.4-13.3.3-16.7-3.6l-4.3-5.2-20 16.7 101.4 120.8 20-16.7-7.1-8.4c-16-19.1 5.3-73 15.9-101l55.6-146.5 77.3 3c26.9 1.3 47.4 7.2 66.7 27l20-16.7-70.6-84.2-20 16.8 3.7 4.4c5 6 9.7 12.2 3.3 17.6-3.6 3-9.3 5-27.7 4.2l-142-6.5-3.7-4.4 84.5-71c8.8-7.3 19.7-18.5 39.5 5l7 8.4 20-16.7-105.1-125.2zm-104.2 20.7l55.3-44.5c-3.7-38.8-19.2-80-40-109.8-66-94.2-170.5-103.7-260-41-87.8 61.5-112.3 157.4-45.1 253.3 40.9 58.4 85.3 78.1 100.9 85l69.9-42.6-9.6-13.6c-47.6 18.1-101.8 1.4-129.3-37.8-19.4-27.7-45.9-93.6 59.8-167.7 90.4-63.2 161.5-55.2 194.9-7.5 19.7 28.2 22.4 65.6-6.4 112.5l9.6 13.7zm-358-390c6.6 8.7 17 23.2 22.8 33.6 33 59.7-9.8 91.7-29 102.4-25.4 14.1-72.5 20.5-100.2-29.6l-6.8-12.2c-13.6-24.6 1.6-32.5 10.3-37.3l102.8-57zm98.5-195.8l-22.7 12.7 5.3 9.5c11.3 20.5 6.8 29.5-11.4 39.6l-217.6 120.6c-14 7.9-25.2 14.6-43-21.9l-22.8 12.6 101.1 181.4c43 77.3 108.4 78.5 151.2 54.8 60.5-33.6 71.7-128.4-11.4-228.7l84.7-47c10-5.5 22.9-14.4 37.8 12.4l5.3 9.6 22.7-12.6-79.2-143zm-346.7-3.9c-10.4 4.7-24 12.5-36.6-15.6l-4.4-10-23.8 10.6 66.5 149.3 23.8-10.6-4.3-9.5c-11.4-25.7-1.1-32 12.7-38l229.1-102.1c13.8-6.2 25.4-9.6 36.8 16l4.2 9.6 23.8-10.6-117.2-263.4-23.8 10.6 4.4 10c9.1 20.5 6.8 29.4-12.6 38.1l-21.4 9.5c-92.7 41.3-230.3 111.1-254.8 56-2.8-6.2-7.7-21.1 2.8-25.8 5.7-2.5 12.8-1.7 19.4-1.2 7.6.6 17.6 1.2 29-3.8 23.3-10.4 26.1-31 20.4-43.9-7.9-17.5-33.7-32.2-69-16.5-48.9 21.8-48.3 69.3-31 108.3 29.7 66.6 99 46.6 197.8 2.5l98.4-43.8c27.5-12.3 43.4-16.4 55 9.7l9.1 20.5c9.3 20.9 10.5 35.1-10 44.3l-224.3 99.8zm23.2-492.4l2 5.9-108.6 85-31.2-96 137.8 5zm104 11.6l-6.7-20.3c-30-18.6-39.4-27.1-50.9-57.3l-15.8 5.1 1.8 5.5c5.6 17.3-.7 20-5.6 21.5-7.5 2.4-14.9 1.6-23.2 1L962 6327.2c-7.2-.4-8.6.6-22.7-2.5-15.4-3.7-23.5-5-34.8-34.7l-24.7 8.1 32.5 100 24.7-8-4-12.4c-1.3-4-3-11 0-13.7.8-.8 2.3-1.3 3.4-1.1 3.6-.7 15.2-.6 19.6-.4l59 1.6 39 119.8-53.5 40.9c-6 4.7-8 5.8-8.4 6-1 .3-2.3 1.3-3.5 1.1-5.8.8-6.5-3.3-7.5-6.3l-5.3-16.3-24.8 8L993 6646l24.8-8c-5-13.7-6.3-21 .3-33 8.1-15.2 27.6-29.2 33.3-33.7l239-188.8zm-170.6-541.4l-25 7.2 2.9 10c7.7 27-3.3 31.8-17.9 36l-241 69.1c-14.6 4.2-26.5 6-34.2-21l-2.9-10-25 7.1 45 157.1 25-7.2-3-10.5c-7.9-27.5 6.5-32.2 18-35.5l85.6-24.5 42.2 21-92.4 93c-3.8 3.8-16.5 16.1-22 17.7-9.5 2.7-12.3-5.2-13.7-10.2l-1.9-6.5-25 7.2 43.4 151.6 25-7.2-3-10.5c-6.8-24 34.6-64.6 55.6-85.8L1066 6078l69.3 34.2c24 12.1 40.4 25.8 50 51.8l25-7.2-30.2-105.6-25 7.2 1.5 5.5c2.2 7.5 3.9 15.1-4.2 17.4-4.5 1.3-10.5 1-27-7.4l-127-63.7-1.6-5.5 106-30.4c11-3.1 25.6-9 34 20.6l3 10.5 25-7.2-45-157zm-14.2-204.9c7.6 47.8 37.6 67.8 62.8 63.8a32.8 32.8 0 0026.2-37.3c-2-13.4-13.3-21-27.7-18.8-6.2 1-9.8 4.7-13.2 10-4.2 6.5-4.8 12.9-8.9 13.5-6.2 1-19.2-8.5-23.3-33.7-3.2-20.6 4-38 11.8-39.3 5.1-.8 7.8 6.2 12.6 10.1 3.6 3.2 11 6.2 15.6 5.5 11.9-1.9 23.1-10.5 20.6-26.5-3.1-19.5-21-29.8-36.5-27.4-31.3 5-46.5 39-40 80.1zm-19-27.5l-25.7-161.4-25.7 4 1.7 10.3c3.5 22.2-1 30.2-22.1 33.6L767 5534.4c-21 3.3-27.8-3-31.3-25l-1.6-10.3-25.7 4 25.5 161.4 25.7-4-1.7-10.8c-4.8-30.4 10.9-31.3 22.2-33l20-3.2 180 105.3 1 6.2-179.4 28.4c-21 3.3-28-4.5-31.3-25.1l-1.7-10.3-25.7 4.1 25.5 160.9 25.7-4.1-1.5-9.8c-3.5-22 1-30.1 22-33.5l247.8-39.2c21-3.4 27.9 3 31.3 25l1.6 9.8 25.7-4-25.5-161-25.7 4.1 1.6 10.3c3.3 20.6-1 30.2-22 33.5l-8.3 1.3-180.6-105.7-.9-5.7 168.1-26.6c11.3-1.8 26.5-5.8 31.3 24.6l1.7 10.8 25.7-4.1zm-125.1-352.3l.4 6.2-126 56.3-7-100.7 132.6 38.2zm98 36.4l-1.5-21.2c-24.7-25.4-31.7-36-35.5-68l-16.6 1.2.4 5.7c1.2 18.2-5.5 19.2-10.7 19.5-7.8.6-14.7-2-22.7-4.7l-218.5-65.5c-7-2.2-8.4-1.6-21.4-8-14-7.3-21.6-10.4-25.4-42l-26 1.9 7.4 104.8 26-1.8-1-13c-.2-4.2-.2-11.4 3.3-13.3 1-.5 2.5-.7 3.6-.2 3.7.2 14.9 3.1 19.1 4.4l57 15.8 8.7 125.7-61.7 26.7a58.2 58.2 0 01-9.7 3.8c-1 0-2.6.7-3.6.3-5.8-.7-5.6-4.8-5.8-8l-1.2-17.1-26 1.8 9.5 135 26-1.8c-1.6-14.5-1-21.9 8.1-32 11.7-12.7 34-21.6 40.6-24.7l277.6-125.3zm-194.8-394c11 89.3-28.5 114-69.6 112.5-28-1-78.8-8.4-78.5-77.2l.4-10.9c1.8-22.8 7.3-29.4 28-28.7l119.7 4.2zm174 148.1l9.2-264.7-26-.9-.4 9.9c-.8 22.3-7.3 29.4-28 28.7l-250.8-8.8c-28.5-1-26.4-18.6-26-30.6l.4-9.8-26-1-7 200.8c-2.8 80 39.3 127.9 99 130 96.8 3.3 117.7-89.1 112.8-200.7l89.4 3.1c10 .3 26.1-3.3 26 30.6l-.4 12c-2.3 35.3-6.8 60.1-51.9 99.7l-.6 17.1 80.2-15.4zm-68.2-469.2l-.8 6.2-135 28.8 14.1-100 121.7 65zm88.3 56l3-21c-19-30-23.6-41.8-20.6-74l-16.5-2.3-.8 5.7c-2.5 18-9.3 17.6-14.5 17-7.7-1.2-14-5.2-21.3-9.4l-200-109.6c-6.4-3.5-8-3.2-19.3-12.1-12.3-10.2-19-14.8-16.1-46.4l-25.8-3.7-14.6 104.1 25.8 3.7 1.8-13c.6-4 2-11.2 6-12.3 1-.3 2.6 0 3.5.5a159 159 0 0117.8 8.3l52.4 27.4-17.6 124.7-66 13.3a61.4 61.4 0 01-10.2 1.7c-1-.1-2.6.2-3.6-.5-5.5-1.8-4.4-5.9-4-9l2.4-17-25.7-3.6-18.9 134 25.8 3.6c1.5-14.5 3.6-21.5 14.6-29.4 14-10.2 37.7-14.2 44.8-15.8l297.6-64.9zm-23.5-487.8l-3 17c34.7 19.3 60.3 53.9 52.1 100-6.5 37.4-32.6 56.1-64.8 50.4-58-10.2-63-52.9-49.4-118.6l-31.3-5.5c-16.3 101.7-71 106.4-105.4 100.3-45.6-8-59.7-48-53.3-84 8.9-50.7 55.7-76.2 93.6-84.3l2.9-16.4-80.8-6.4c-25.3 35.7-41 73.1-49.1 119.3-19.7 111.7 30.7 152.8 74.3 160.5 61.5 10.8 102.7-31 112.5-78l5.6 1c-1.2 55.3 30 91 63.8 97 12.8 2.2 87 13.1 106.7-98.6 10.6-60 5-112.7.3-133.6l-74.7-20zm7682.2-949.7l-70.8 33c-19.3 9-27.6 4.8-36.8-15l-4.6-10-23.6 11 68.8 147.7 23.6-11-4.2-9c-9.4-20.3-7.3-29.3 12-38.3l84.4-39.3 134-3.4c36.8-1 60.4-4.6 80.3 25.7l23.6-11-41.6-89-23.6 10.9 1.6 3.3c5.3 11.3 8.2 22.6-3.1 27.8-7 3.3-23.6 2.4-27.6 2.6l-128 3.4-2.5-5.2 87-107.7a74.4 74.4 0 0115-14.5c10-4.6 16.4 4.4 22.6 15.3l23.6-11-60.4-129.7-23.6 11c10.4 26.1-.2 39.1-10.1 54.7-10.7 16.5-10.6 14.1-16.2 20.7l-99.8 127zm113.7-277L8692.6 2679l-78.7 17.8 8.3 14.4c51.5 11.1 67.5 25.3 79.5 46 6.2 10.9 13.1 20.7-5.8 31.6l-218.1 126c-13 7.5-24.2 12.2-38.3-12.2l-5.2-9-22.5 13 81.7 141.5 22.5-13-5.4-9.5c-15.4-26.6-1-33 8.8-38.7l218.1-126c19-10.9 24 0 30.5 11.3 9.1 15.7 18.1 44.8 0 91.4l8.2 14.4 55-58.8zm-551-258.6l-21 15.3 96 132.1 21-15.3-6-8.4c-16.6-22.7-7.8-31 4.4-39.9l202.9-147.4c12.2-8.9 22.8-14.7 39.3 8.1l6.1 8.4 21-15.3-95.7-131.8-21 15.3 6 8.4c18.1 24.9 4.6 32.8-4.7 39.5L8325.6 2677c-9.2 6.8-21 17.2-39-7.6l-6.4-8.8zm137.3-226.2l49.3-46.7a241.5 241.5 0 00-44.9-97.6c-51-63-112-64.6-154.4-30.3-48.1 39-39.6 88.4-27.8 151.8 11.3 58.5 16.8 93.5-7.5 113.2-21 17-46.6 14.3-69.5-14-18-22.3-38.3-76.2-17.3-131.3l-10.5-13-52.7 54.8c17 51.8 35.5 83.7 54.5 107.2 43.6 53.8 115.2 80.8 167 39 43.6-35.5 44-84.6 19.6-201.5-4.2-20-10-48.8 12.6-67.1a40.5 40.5 0 0158.8 7.2c17 21 35.7 69 12 114.9l10.8 13.4zM8101.3 2023c11.2-10.9 20.1-16.6 41.1 5 50.6 52.5 12.8 91.2 2 101.7-48 46.3-87.6 13.6-106.7-6.3l-19.5-20.2 83-80.2zM7995.7 2125l27.5 28.5-31.5 94c-2 6.2-7.3 20.8-11.4 24.8-5.7 5.4-14.5 4.5-19.9-1l-4-4.2-18.7 18 104.8 108.6 18.7-18c-19.3-32-8.9-58 5.9-102.6l23.3-71.7 5.6-2.5c36 28.2 79.4 25.3 111.2-5.4 60-57.9 22.4-120-38.4-182.9L8057.1 1895l-18.7 18 7.2 7.5c21.3 22.1 9 31.8.8 39.8L7866 2134.5c-8.2 8-18.4 20-39.7-2.1l-7.6-7.9-18.7 18 108.4 112.4 18.7-18.1-7.6-7.9c-14.4-15-1.7-28.7 4.3-34.5l71.9-69.4zm-18.2-308.2L7771 1637.2l-17.1 19.7 8.2 7.1c21.6 18.8 13.1 29.4 4.6 39.2l-164.9 189.7c-7.5 8.6-16.6 21.4-39.7 1.3l-8.3-7.2-17 19.6 219.5 190.9 71.4-54.4-13-11.3c-58.8 22.6-91.7-4.7-108.6-19.4l-33.4-29c-17.3-15-17.6-25-4.6-39.9l77.1-88.7 42 36.5c29.1 25.3 23.4 38.2 18.1 47.5-2 3-3 5-5.3 8.4l12.6 11 65.2-75-12.6-11c-3 2.8-4.9 4-7.7 6.5-13 9.3-17.6 17-65.1-24.3l-26.7-23.2 60.1-69c15-17.4 24-15 40.2-1l28.6 24.9c38.5 33.4 32.5 73.7 25.5 95.2l12.5 11 45-75.5zm-563.2-438.3l-14.6 21.6 4.8 3.2c17.7 12 23.1 20.6 11.4 74.2l-63.3 289.4 30.2 20.4 228-167c8.9-6.5 10.2-7.6 24.3-16.3 14-8.7 35.9-23.5 63.2-2.5l14.5-21.6-94.4-63.7-14.6 21.5c14.5 9.2 28.8 18.8 21 30.5-3.9 5.6-13 12.6-24.2 20.8L7455 1696l-3.9-2.6 41.6-189.2c1-4.3 4.6-15 7.5-19.4 7-10.4 21-3.4 31.6 4.3l14.5-21.5-132-89zm-350.2 159.8l-14.2 21.8 137 89 14.2-21.8-8.7-5.7c-23.6-15.3-18.4-26.2-10.1-38.9l136.6-210.3c8.2-12.7 16-21.8 39.6-6.5l8.7 5.6 14.2-21.8-136.6-88.7-14.2 21.8 8.7 5.7c25.8 16.7 16 29 9.7 38.5l-136.6 210.4c-6.2 9.6-13.4 23.5-39.1 6.8l-9.2-5.9zm-211.6-485.4l-11.8 23.2 9.3 4.7c10.6 5.4 27.6 12.3 14.8 37.3L6751 1341.6c-10 19.5-20.2 20.1-39.3 10.4l-9.7-5-11.8 23.3 100.6 51.2 11.8-23.2-9.7-5c-25-12.7-21-24-14.1-37.5l90-176.7 5.3 3.3 44.6 312.5 46.4 23.7 141.3-277.4c12.3-24 26-16.5 38.5-10.2l9.7 5 11.8-23.2-100.6-51.2-11.8 23.1 9.7 5c11.6 6 27.2 13.2 14.9 37.3l-84.1 165.1-5.1-2.6-39.5-287-97.4-49.6zm-481.2 76.6c-6.3 16.5-37.2 104 109.1 160.1 92.8 35.6 138.1 6.1 171-79.4l63-164.2c7.6-19.9 16.5-22.6 37.3-14.6l9.8 3.7 9.3-24.3-103-39.5-9.3 24.3c31.2 13 34.1 19.8 26.5 39.7l-61.5 160.3c-25.6 66.6-55.6 94-124.6 67.6-76.3-29.3-54-93.2-45.6-115l67.7-176.4c7.7-20 16.5-22.6 37.4-14.6l9.7 3.7 9.3-24.3-152-58.4-9.3 24.3 9.2 3.6c19.4 7.4 25.6 16 18 35.9l-72 187.5zM6115 779.8l-267.7-57-5.4 25.5 10.7 2.3c28 6 25.6 19.3 23 32l-52.3 245.9c-2.4 11.2-4 26.8-34.1 20.4l-10.7-2.3-5.4 25.5 284.5 60.5 36.1-82.3-16.8-3.6c-40.5 48.3-82.5 40.5-104.4 35.8l-43.3-9.2c-22.4-4.7-27.5-13.2-23.4-32.6l24.5-115 54.5 11.5c37.6 8 38.9 22.1 38.7 32.7-.2 3.7-.1 5.9-.5 10l16.3 3.5 20.7-97.2-16.3-3.5c-1.4 4-2.3 6-3.6 9.4-6.8 14.5-7.1 23.5-68.7 10.4l-34.6-7.4 19-89.5c4.8-22.5 13.8-24.8 34.7-20.4l37.1 8c49.9 10.5 64.2 48.7 68.4 70.9l16.4 3.4 2.6-87.7zm-353.2-77L5486.5 669l-33.1 73.5 16.5 2c39.9-34.4 60.9-38.6 84.6-35.7 12.4 1.5 24.4 2 21.8 23.6l-30.7 250c-1.9 15-4.9 26.7-32.8 23.2l-10.3-1.2-3.2 25.8 162.2 20 3.2-25.9-10.9-1.3c-30.4-3.8-27-19-25.6-30.5l30.7-250c2.7-21.6 14.4-19.2 27.3-17.5 18 2.2 46.7 12.5 73 55l16.5 2-13.9-79.2zm-533.3 33.7l6.2.5 38.2 132.5-100.7-7 56.3-126zm49.7-92l-21.3-1.5c-28.6 21-40 26.5-72.2 25.8l-1.2 16.6 5.7.4c18.2 1.3 18.3 8 18 13.3-.6 7.7-4.2 14.3-7.9 21.8L5104 928.2c-3.1 6.5-2.7 8.1-10.8 20-9.3 13-13.4 20-45.2 19.3l-1.8 26 104.8 7.3 1.9-26-13-.9c-4.2-.3-11.4-1.3-12.7-5-.4-1-.3-2.6.2-3.6.8-3.6 5.2-14.3 7-18.3l23.7-54.2 125.6 8.8 17.9 64.9c2.1 7.4 2.5 9.6 2.4 10 0 1.1.4 2.7-.2 3.7-1.5 5.6-5.6 4.8-8.7 4.6l-17.1-1.2-1.8 26 135 9.4 1.7-26c-14.5-.5-21.7-2-30.4-12.5-11-13.3-16.7-36.7-18.8-43.6l-85.5-292.4zm-262.7-2.8h-277.4l-23.9 77h16.6c35.4-39 55.7-45.8 79.6-45.8 12.6 0 24.5-1 24.5 20.8v252c0 15-1.5 27-29.6 27h-10.5v26h163.4v-26h-10.9c-30.7 0-29.1-15.7-29.1-27v-252c0-21.8 12-20.8 25-20.8 18.2 0 47.8 6.8 79 45.8h16.7l-23.4-77zm-397.6 99.1l-13.4-66.5a241.7 241.7 0 00-106.5-13.7c-80.6 10-114.2 60.7-107.5 115 7.5 61.4 53.9 80.3 114 103.9 55.5 21.5 88.1 35.3 92 66.3 3.2 26.8-12.6 47.2-48.8 51.6-28.4 3.5-84.8-8-120.5-55l-16.5 2 18.5 73.8c53 13 89.8 14.3 119.8 10.6 68.7-8.4 129.6-54.8 121.4-121-6.8-55.7-48.3-82-160.3-123.4-19.3-7-46.7-17.3-50.3-46.2a40.4 40.4 0 0137.4-46c26.8-3.3 77.3 6.2 103.7 50.7l17-2.1zm-795.5 60l5.9 25.3 9.6-2.2c20.3-4.7 30.2-1.1 35 19.7l54.9 237.8c1.8 7.6 0 2.1 1.8 10.2 1.6 9.3 5.3 22.9-23.1 29.4l-9.6 2.2 5.9 25.4 289-66.7-4.1-84.5-16.2 3.7a113.7 113.7 0 01-83.1 72.6l-46.7 10.7c-19.2 4.5-27.6.6-32.4-20.2L3954 824.9c-4.8-20.8 1-28 22.8-33l10.2-2.4-5.9-25.4-158.7 36.7zM3603.7 964l6-1.9 83.2 110.1-96.6 29.5 7.4-137.7zm13.5-103.7l-20.4 6.2c-19.2 29.8-27.8 39-58.2 49.9l4.8 16 5.5-1.8c17.4-5.3 20 1 21.4 6 2.3 7.5 1.3 14.9.6 23.2l-14.7 227.7c-.6 7.2.4 8.5-3 22.6-4 15.4-5.3 23.4-35.2 34.2l7.6 24.9 100.6-30.8-7.6-24.8-12.5 3.7c-4 1.3-11.1 2.9-13.7-.1a4.6 4.6 0 01-1-3.5c-.6-3.7-.3-15.2 0-19.6l2.6-59 120.4-36.8 40 54.1c4.6 6.2 5.7 8.1 5.9 8.6.3 1 1.2 2.3 1 3.4.7 5.8-3.4 6.5-6.4 7.5l-16.4 5 7.6 24.9 129.4-39.6-7.6-24.9c-13.8 4.8-21 6-33-.8-15-8.4-28.7-28.2-33.2-34l-184.5-242.2zM3045 1103.6l10.6 23.8 9.5-4.2c25.7-11.4 32-1.2 38 12.6l102.1 229.2c6.2 13.8 9.6 25.4-16 36.8l-9.6 4.2 10.6 23.8 149.3-66.5-10.6-23.8-9.5 4.3c-14.8 6.5-28.4 9.2-38.1-12.7l-36.2-81.3 14.8-44.7 105 78.5c4.3 3.2 18.3 14.1 20.6 19.3 4 9-3.4 13-8.1 15l-6.2 2.8 10.6 23.8 144-64.2-10.6-23.7-10 4.4c-22.7 10.2-68.7-25.2-92.6-43l-125.5-94 24.2-73.4c8.6-25.5 19.9-43.6 44.2-56.7L3345 970l-100.3 44.7 10.6 23.7 5.2-2.3c7.1-3.2 14.4-5.9 17.8 1.7 2 4.3 2.3 10.4-3.6 27.8l-45.3 134.7-5.3 2.4-44.8-100.8c-4.7-10.5-12.5-24 15.6-36.6l10-4.4-10.6-23.8-149.3 66.4zm-61 410.5l12.6 22.8 143-79.2-12.7-22.8-9.1 5c-24.6 13.7-31.8 4-39-9.2L2957 1211.3c-7.3-13.2-11.7-24.4 12.9-38l9-5-12.6-22.8-142.4 79 12.6 22.7 9.1-5c26.8-15 33-.5 38.6 9.5l121.6 219.4c5.6 10 14.5 22.9-12.4 37.8l-9.5 5.2zm-323.7-86.3l5.3-3.3 108.8 84.8-85.6 53.5-28.5-135zm-13.8-103.6l-18.1 11.3c-10.8 33.7-16.8 44.8-43.3 63.2l8.8 14.1 4.9-3c15.4-9.6 19.4-4.2 22.2.2 4.1 6.7 5 14 6.5 22.3l44.7 223.7c1.4 7.1 2.7 8.2 3 22.6.2 15.9 1 24-25.1 42.2l13.8 22 89.1-55.7-13.8-22-11 6.8c-3.5 2.3-10 5.7-13.3 3.4-1-.6-1.8-2-1.9-3-1.5-3.4-4.2-14.6-5-19l-12.8-57.7L2802 1529l52.6 42c6 4.8 7.6 6.3 8 6.7.5.9 1.7 2 1.8 3 2.2 5.5-1.6 7.2-4.3 9l-14.5 9 13.8 22L2974 1549l-13.8-22.1c-12 8.2-18.8 11.1-32 7.7-16.7-4.2-35-19.8-40.8-24.1l-241-186.3zM2392 1743c76.9-68.3 119-27.1 129.7-13 16 21.2 30.9 68-18 106l-2.8 2.2c-24 17.4-31 8.3-40-3.8l-68.9-91.4zm-75.8-100.6c-9-12-16.3-21.6 7.4-39.4 48.6-36.7 79.5-5.2 91.8 11 27.5 36.6 2.2 71.3-43.8 102l-55.4-73.6zm-133.1 27.4l15.6 20.8 8-6c23.2-17.5 31.2-6 37.3 1.2 5.3 7 2 1.7 6.7 8l142.8 189.5c15.6 20.8 15.8 30.4-3.4 44.8l-8.3 6.3 15.7 20.8 150.9-113.7c91-68.6 70.1-131.7 47.9-161.2-36.3-48.2-95-40.5-131.1-16.6l-2.8-3.7c21.5-20.8 45.4-69.4 16.3-108-51.4-68.2-136.9-1.9-170.5 23.5l-125.1 94.3zm-32 152.2l-50-46c-32 7.8-71.7 30.7-94.2 51.7-59.4 55.3-56.7 116.2-19.4 156.2 42.2 45.2 90.9 33.3 153.3 17 57.6-15.2 92-23.2 113.4-.4 18.4 19.8 17.5 45.5-9.1 70.4-21 19.5-73.3 43.5-129.8 26.4l-12.1 11.3 58.2 48.8c50.5-20.6 81-41.2 103.2-61.8 50.6-47.2 72.6-120.6 27.2-169.3-38.4-41-87.4-38-202.3-5.5-19.7 5.5-48 13.4-67.9-8a40.4 40.4 0 013.2-59.1c19.8-18.4 66.2-40.4 113.7-20l12.6-11.7zm-523.4 416l19.3 17.4 7-7.7c8-9 19-23.5 40-4.7l186.3 167.8c16.3 14.6 14.2 24.7 0 40.5l-7.4 8.2 19.4 17.4 75.5-84-19.3-17.3-7.3 8c-18.8 21-28.8 14.1-40 4L1754 2255l4.5-4.2 313.5 37.8 34.8-38.7-231.3-208.3c-20.1-18.1-9.3-29.4.1-39.8l7.3-8.1-19.3-17.4-75.6 83.9 19.3 17.4 7.4-8.1c8.6-9.7 19.8-22.8 39.9-4.7l137.6 124-3.8 4.2-287.5-36.1-73 81.2zm-90 272.6l3.6-5 133.3 35.5-57.9 82.7-79-113.2zm-53.2-90l-12.2 17.5c3.2 35.3 2 47.8-15.2 75.2l13.7 9.5 3.3-4.7c10.4-14.9 16.3-11.4 20.5-8.5 6.4 4.5 10.2 11 14.7 18l128.6 188.5c4 6 5.6 6.4 11.6 19.6 6.3 14.5 10.2 21.7-6.7 48.6l21.3 15 60.3-86.2-21.3-15-7.5 10.7c-2.4 3.5-7 9.1-10.9 8.3-1.1-.2-2.4-1-3-2-2.6-2.6-9.5-11.8-12-15.5l-34.3-48.1 72.3-103.2 64.8 18c7.5 2.1 9.5 3 9.9 3.2.8.6 2.4 1 3 2.1 4 4.1 1.2 7.2-.5 9.8l-9.9 14 21.3 15 77.6-110.9-21.3-14.9c-8 12.3-13 17.6-26.4 19.6-17.1 2.7-40-4.5-47-6.2l-294.7-77.4zm-206.4 425.9c-13.6-7.8-21.5-14.8-6.4-41 36.4-63 84-37.3 97.1-29.8 57.7 33.3 37.2 80.3 23.4 104.2l-14.1 24.4-100-57.8zm127 73.4l19.8-34.3 99 4.3c6.6.2 22.2 1.4 27.1 4.2 6.8 4 8.3 12.6 4.4 19.4l-2.8 5 22.5 13 75.5-130.7-22.6-13c-25.4 27.4-53.2 24.5-100.2 22.6l-75.4-2.6-3.9-4.7c17.3-42.3 2.5-83.3-35.8-105.4-72.2-41.7-121.5 11.6-165.2 87.3l-80.4 139.2 22.5 13 5.2-9c15.4-26.6 28-17.4 38-11.6l217.2 125.4c10 5.7 24.3 12.1 8.9 38.7l-5.5 9.5 22.6 13 78-135.2-22.5-13-5.5 9.5c-10.4 18-27.1 9.5-34.3 5.3l-86.5-50zm-282.8 83.7l-117.2 251.3 59.7 54.3 7-15.1c-20.4-48.6-18-69.8-7.8-91.5 5.2-11.3 9.4-22.6 29.2-13.4l228.3 106.5c13.6 6.3 23.8 12.8 12 38.3l-4.5 9.4 23.6 11 69-148-23.5-11-4.6 9.8c-13 27.8-26.5 19.8-36.8 15l-228.3-106.5c-19.8-9.2-13.8-19.6-8.3-31.4 7.7-16.5 26.3-40.5 75-52.3l7-15.1-79.8-11.3zm5305 4576.5v-28c11.2.3 18.1.5 20.4.7 26.7 3 61.8 4.6 105.1 4.6a757.5 757.5 0 0072-5.3h23.8l.7 26.7a672.1 672.1 0 00-38.1 5.6 50.3 50.3 0 00-21.3 10.4 11.7 11.7 0 00-3.5 8.5c0 2.4.2 4.7.7 7.2l10.7 28.2a965.3 965.3 0 0037.8 90.2l37.1 84c7.1 16.2 13.7 31.6 19.4 46.2l19-46.2 38.7-107.4 9.1-22.8c1.1-3.2 2.4-7.8 4.2-13.7 5.7-19.3 10.4-34 14.2-44a72 72 0 005.7-24.3c0-4.1-2.1-7.8-6.2-10.8-6.3-4.8-16.6-7.8-30.9-9-3.1-1-7.1-1.7-12.1-2.2-5-.6-9.4-1.2-13.3-2.1a40.5 40.5 0 01-2-9.8c0-2.8.5-7.8 1.3-15 4 0 15.1 1 33.6 2.7 18.4 1.6 36.4 2.5 54 2.5 18 0 33.4-.7 46.3-2.4 12.8-1.7 23-2.6 31.2-2.8v10.4l-.3 11.7c-28 10.2-44.5 17.2-49.3 21a34 34 0 00-8.7 10.7c-8.3 14.5-20.8 43.9-37.7 88.2l-41.7 107.7-12.8 33a1696 1696 0 00-15 38.3c-1 3.2-6 16.2-15.1 39l-3.4 5.8a882.2 882.2 0 01-21.4 63.6l-16.2.5c-4.2 0-10-.2-17.4-.5l-7-19.9c-2.5-6.8-11.7-30.3-27.7-70.6l-61.6-138-36.8-89c-18.9-40.2-29.2-61.9-30.9-64.7a34 34 0 00-12.4-11.6 84.5 84.5 0 00-28.2-5.6l-14-1.7zM6197.5 7977v-23.5l21.6-5.4a152 152 0 0031.5-10.8 56.6 56.6 0 006-28l-.4-38.4.6-74.2-.3-17.6 2.2-66.3-.6-43.3 1-17.6-1.7-37.1-.3-14c-.2-2.2-1-5.7-2.3-10.5-8.8-4-23.3-6.7-43.3-7.7-4.7-.2-8.5-.6-11.3-1l-1-28.7 93 4 21.6.6c12.7 0 33.3-1 61.5-2.6l29.9-2 .3 10.4c0 3.7-.2 8.5-.7 14.4-8.6 3-18.5 5.9-29.7 8.5a233 233 0 00-27.5 8.4c-1.3 5.6-2 13.7-2 24.4 0 9.3.4 17 1 22.8-.6 36.7-1 64.9-1 84.6l.4 86-1 43.6.6 65-.3 12.4c0 1.7.4 4.2 1.3 7.5 13.3 2.8 25.4 4.7 36.1 5.8l20 2.6a126 126 0 01.9 27.3 326.8 326.8 0 01-18.6 1c-1.5 0-4.3-.3-8.4-1l-43.3-4.5-57.7-.6a523 523 0 00-50 3.2 784 784 0 01-28 2.3zm-481-421.5l18.9-.3c5.2 0 9.4.1 12.6.3l17.7 1.3 8.1-.3a369.6 369.6 0 0064.1 4.6c28.2 0 54.9-1.7 80.1-5.3 3.5.2 7.2.6 11.3 1-.4 7.2-.6 14.3-.6 21.5l-6.8 3-32.2 5.5c-2.7.7-6.2 1.8-10.8 3.5.2 4 .7 6.7 1.3 8.5a633 633 0 0044.6 67.6l31.5 45.4 3.7 5.2 18.6-22.8 40.3-59a178.2 178.2 0 0018.5-32.5 16 16 0 001.4-6.1l-1-5.3a46 46 0 00-10.5-4.5c-1.5-.2-5.6-.4-12.3-.7-11.3-.2-21.4-1-30.3-2.6a68 68 0 01-1-9.7l.6-7.9.4-7.4c2.4-.3 4.5-.8 6.5-1.7 19.6 1.3 59.9 2 121.1 2 7.8 0 14.7-.3 20.8-1 6-.7 9.8-1 11.1-1 2.1 0 5.4.3 9.8 1 1 4.3 1.5 8.2 1.5 11.7 0 2.2 0 5.6-.3 10.4l-50.1 10.8a45.6 45.6 0 00-13.7 8.9c-5 4.4-18.4 20.7-40.3 49l-47.2 61.2c-5.5 7.4-9.9 13.3-13.6 17.8l-9.5 11.8 4.9 6.8c11.8 17.2 24 34.5 36.4 51.8l64.8 95.6c17 25.5 29.9 41.2 38 47 6 4 20.8 8.4 44.6 13 .7 4.4 1 7.1 1 8.5 0 1-.5 5-1.6 12l1 2.9-23.1.6c-5 0-14.8-.5-29.3-1.5l-40-2.7-4.3-.7-9.4-.3c-13.7 0-29.8.8-48.5 2.3a532.5 532.5 0 01-41 2.3c-5.6 0-14.9-.3-27.7-.6v-8.6c0-3.8.2-7.8.6-12 16.8-4.3 34.2-7.8 52.5-10.7 2.3-1.5 5-3 8-4.6l.4-3.5c0-2-.3-4-1-6-1.2-4-4.3-10-9.1-17.8a794.6 794.6 0 00-38.7-55l-38.7-51.8c-5 6-22.5 30-52.5 72.4a169.9 169.9 0 00-24 35c-4.3 8-6.5 13.2-6.5 15.4l.3 2.5 4.2 6c8 3.6 18 7.4 30 11.2 12 3.7 19.6 6.3 23.1 7.6l2 15v1.6l-.7 3.5c-6.3 1-10.5 1.4-12.7 1.4-3.4 0-13.9-1-31.2-2.6-6-.7-16.5-1.1-31.6-1.3l-15.3-.4-72 3.3-15.2-.4-1.3-14.5c0-2 .3-4.8 1-8.6l14-1.5c16.8-1.6 29.8-4.6 39-9.1 3.7-2 10.5-8.6 20.5-20a718 718 0 0041.7-49.7c7-9.6 12.7-16.8 16.8-21.5 11.6-15.8 28.8-38.5 51.8-68l-19.2-29a654.4 654.4 0 01-32.2-42.6l-19.2-28a285.3 285.3 0 00-14.6-22.7 708 708 0 01-37.1-54.2 49.8 49.8 0 00-20.9-18.2c-8.4-3.9-22.2-6.3-41.3-7.4v-5a30 30 0 00-.3-5.1c-1-4.1-1.4-7-1.4-8.2l.7-7.8zm-458.3 0l18.9-.3c5.2 0 9.4.1 12.7.3l17.6 1.3 8.1-.3a369.6 369.6 0 0064.1 4.6c28.3 0 55-1.7 80.1-5.3 3.5.2 7.3.6 11.4 1a360 360 0 00-.7 21.5 98.9 98.9 0 01-6.8 3l-32.2 5.5c-2.7.7-6.2 1.8-10.8 3.5.3 4 .7 6.7 1.4 8.5 15.7 27.1 30.6 49.7 44.5 67.6l31.6 45.4 3.6 5.2 18.6-22.8 40.3-59a177.8 177.8 0 0018.6-32.5 16 16 0 001.3-6.1l-1-5.3a46 46 0 00-10.4-4.5c-1.6-.2-5.7-.4-12.4-.7a199 199 0 01-30.3-2.6c-.7-4.4-1-7.6-1-9.7 0-1.1.2-3.8.7-7.9 0-1.4 0-4 .3-7.4 2.4-.3 4.5-.8 6.5-1.7 19.6 1.3 60 2 121.2 2 7.7 0 14.6-.3 20.7-1s9.8-1 11.1-1c2.1 0 5.5.3 9.8 1 1 4.3 1.6 8.2 1.6 11.7 0 2.2-.1 5.6-.4 10.4l-50 10.8a45.6 45.6 0 00-13.7 8.9 572 572 0 00-40.4 49l-47.2 61.2c-5.4 7.4-9.9 13.3-13.5 17.8l-9.6 11.8 4.9 6.8a4647 4647 0 0036.4 51.8l64.8 95.6c17.1 25.5 29.9 41.2 38.1 47 5.9 4 20.7 8.4 44.6 13 .6 4.4 1 7.1 1 8.5 0 1-.6 5-1.7 12l1 2.9-23.1.6c-5 0-14.8-.5-29.2-1.5l-40.1-2.7-4.3-.7-9.4-.3c-13.7 0-29.8.8-48.4 2.3a532.8 532.8 0 01-41.1 2.3c-5.6 0-14.8-.3-27.7-.6v-8.6c0-3.8.2-7.8.7-12a563 563 0 0152.4-10.7c2.3-1.5 5.1-3 8.1-4.6l.3-3.5c0-2-.3-4-1-6-1.2-4-4.3-10-9-17.8a794 794 0 00-38.7-55l-38.8-51.8c-5 6-22.4 30-52.4 72.4a170 170 0 00-24 35c-4.4 8-6.6 13.2-6.6 15.4l.4 2.5 4.2 6c8 3.6 18 7.4 30 11.2 11.8 3.7 19.5 6.3 23 7.6l2 15v1.6l-.7 3.5c-6.2 1-10.5 1.4-12.7 1.4-3.4 0-13.9-1-31.2-2.6-5.9-.7-16.4-1.1-31.6-1.3l-15.3-.4-72 3.3-15.2-.4-1.3-14.5c0-2 .3-4.8 1-8.6l14-1.5c16.9-1.6 29.9-4.6 39-9.1 3.7-2 10.5-8.6 20.5-20a715 715 0 0041.7-49.7c7-9.6 12.8-16.8 16.9-21.5 11.5-15.8 28.7-38.5 51.7-68l-19.2-29a655.2 655.2 0 01-32.2-42.6l-19.2-28a288.4 288.4 0 00-14.6-22.7 702.2 702.2 0 01-37-54.2 49.8 49.8 0 00-21-18.2c-8.4-3.9-22.2-6.3-41.3-7.4v-5a30 30 0 00-.3-5.1c-.9-4.1-1.4-7-1.4-8.2l.7-7.8zm-412.4 394.5c6.7-2 16.2-3.8 28.5-5.7 12.2-1.9 19.4-2.8 21.6-2.8 8.5-.2 14.1-1.7 17-4.2 1.3-5.2 2-9.5 2-13l-.7-41.7 2-42.3v-27l.3-31.9-.7-33.9 1.2-72.5.4-32.9v-4.5c-1.5-22.8-3-35.4-4.4-37.7-1.4-2.2-7.6-5.1-18.7-8.6l-12.4-4.8a81.7 81.7 0 00-14.6-4.6c-7.6-2-13-4.2-16-6.9a121.9 121.9 0 01-.3-20.8 12 12 0 016.2-1.6c5.2 0 24 .9 56.6 2.6l46.6-.3 34.5.6a693.6 693.6 0 0069.7-4c3.2 0 5.4 1 6.7 2.7 1.8 2.4 2.6 6.7 2.6 13 0 5-1.1 8.8-3.5 11.4-1.3 1.5-6 2.9-14.4 4l-40.3 9.4a44 44 0 00-5.6 2.6 33 33 0 00-1.9 3.9l-.3 9-1 20.6v6l.3 3.5-1 17.9a113 113 0 00-.3 8.4c0 3.4.2 9.3.7 17.5a677.6 677.6 0 010 73c-.3 5.4-.4 12.5-.4 21.1l-1.3 154.4c0 6.4 1.1 10.6 3.3 12.6l31 1.4 19.2-.4 20.4.7c35 0 62.4-4.1 82.4-12.1 15-6.1 24.7-12.1 29.2-18.2a93.7 93.7 0 0018.2-21.1c4.6-7.7 9.8-20.3 15.7-37.8h10.5c5.2 0 11 .4 17.5 1.2v9.2c0 15.6-2 43-5.9 82a127 127 0 01-4.5 28.7c-5 .7-8.1 1.2-9.5 1.2h-12l-16.8.3c-2 0-15-.9-38.8-2.5-4.4-.3-25.1-1-62.2-2.4-37.2-1.2-73.5-1.8-109-1.8l-66.5 1.8c-25.5.7-49.5 2-71.8 3.7h-5c-1.3 0-3.3 0-6.2-.3a61 61 0 011.7-26.1zm-612.6 26.6l1-22c27.2-3.5 44.4-9 51.8-16.6 4.8-5.3 8.4-18.8 11-40.7l4.2-115.9 5-117.8.6-13c0-30.6-1.8-48.4-5.3-53.1-3.6-4.8-17.6-9.5-42-14-6-1.3-10.7-2.4-14.1-3.3-.5-5.4-.7-10-.7-13.6v-10.1c8-.7 17.4-1 28.3-1l95.3 3.3 9.2.7 15 .5a95 95 0 0111 17.3 1231 1231 0 0131.8 69.7l3.7 8.8 50.8 110.3c1 2.6 2.7 6.5 5.2 11.4a380 380 0 0010 22.3c3.6 7 7 14.8 11 23.3a325 325 0 0010.9 22.4c3-5.2 5.9-11 8.7-17.2 8.7-20 17.2-38.3 25.4-55 14.3-29.5 33.7-74.6 58.3-135.4 3.9-9.8 10.3-24.6 19.3-44.1 9-19.7 14-30 14.8-31.1 2-1.8 5.9-2.7 11.8-2.7 2.1 0 5.5 0 10.1-.2 11.2-.7 24.8-1.2 40.7-1.7 22.7-.2 41-.8 54.8-2a520 520 0 0123.3-1.9c2.2 0 4.7.3 7.7.7l.3 7.1-.6 9.8-.3 8.8c-20.4 3-37 7.5-49.8 13.6-8.9 4.4-13.3 9.8-13.3 16.4v4.9l5.5 99.5c.7 9.1 2.3 54.3 5.2 135.8a1653.7 1653.7 0 005 77.4c.1 5.2 1.3 8.5 3.2 10.1 2.2 1.5 21.6 7.8 58.5 18.9a132.1 132.1 0 010 21.4c-5.8 0-20.5-1.2-44.2-3.8a655.2 655.2 0 00-66.5-3.6 1038.4 1038.4 0 00-103 4.9l.5-22.6c8.9-3.4 20.8-6.3 35.5-8.8 10.4-1.6 17-4.6 19.8-8.7 3-4.2 4.4-15.6 4.4-34.5 0-7.2-.2-13.4-.4-18.9-1-22.7-1.8-54.4-2-95l-5.5-115c-.7-16.1-1.4-27.5-2.3-33.8l-81 186.2-8.8 18.9-10.1 21.7a1088.2 1088.2 0 00-34.8 92.3c-1.8 5.3-4.4 12.4-7.8 21l-25-.3-17.7-49.7c-5.2-13-14-32.8-26.7-59.3a1220 1220 0 01-17.2-37.4l-4.3-8.8-3.9-8.2c-.2-1.2-.5-2.3-1-3.2l-48.4-104.4-29.7-63.6-2.5 154-2.3 99.9c0 16.5 3 28.3 9.3 35.3 6.1 7.1 19.4 13.1 39.8 18.1l15.6 3.9v23.8c-12.5-.3-26-1.2-40.5-2.8a524.3 524.3 0 00-57.5-2.5c-5 0-26.3 1-64 3zm-64.6-414.3c2.8 6.6 8.6 25.2 17.2 55.7 3.9 13.9 6 28.7 6.2 44.2h-29.6c-21-29.4-42.4-50.6-64.5-63.5a144 144 0 00-74.2-19.5 98.7 98.7 0 00-81.4 39.5c-28 35.5-42 85-42 148.7 0 37 2.4 63.2 7.2 78.8a201.9 201.9 0 0029.7 62.1 95.5 95.5 0 0035.8 29c19 9.8 39.4 14.7 61.2 14.7 23.7 0 46.8-7.5 69-22.4 22.3-14.9 43.6-37 64-66.5 8-1.6 18.6-2.3 31.6-2.6-.9 8.3-2.2 16.8-4.2 25.7l-7.5 41.3-3 9.8-4.5 15.3c-13.2 10.1-31.8 17.8-55.8 23-24 5-53.4 7.6-88.4 7.6-26.7 0-51.9-2.5-75.7-7.5-23.7-5-44-13-61-23.7a224.7 224.7 0 01-58.3-50.8 193.5 193.5 0 01-31.3-59.6 236.3 236.3 0 01-10.4-72.3c0-64.6 21.4-118 64-160 42.7-42.2 97.1-63.2 163.2-63.2 27 0 52.4 1.4 76 4a481 481 0 0166.7 12.2zm-997.7 414.3l1-22c27.2-3.5 44.4-9 51.8-16.6 4.8-5.3 8.4-18.8 11-40.7l4.2-115.9 5-117.8.6-13c0-30.6-1.8-48.4-5.3-53.1-3.6-4.8-17.6-9.5-42-14-6-1.3-10.7-2.4-14.1-3.3-.5-5.4-.7-10-.7-13.6v-10.1c8-.7 17.4-1 28.3-1l95.3 3.3 9.2.7 15 .5a95 95 0 0111 17.3 1247 1247 0 0131.8 69.7l3.7 8.8 50.8 110.3c1 2.6 2.7 6.5 5.2 11.4 3.2 7.8 6.5 15.3 10 22.3 3.6 7 7.1 14.8 11 23.3 3.8 8.4 7.3 15.9 10.9 22.4 3-5.2 5.9-11 8.7-17.2 8.7-20 17.2-38.3 25.4-55 14.3-29.5 33.7-74.6 58.3-135.4 3.9-9.8 10.3-24.6 19.3-44.1 9-19.7 14-30 14.8-31.1 2-1.8 6-2.7 11.8-2.7 2.1 0 5.5 0 10.1-.2 11.2-.7 24.8-1.2 40.7-1.7 22.7-.2 41-.8 54.8-2 13.8-1.3 21.5-1.9 23.3-1.9 2.2 0 4.7.3 7.7.7.3 3 .4 5.3.4 7.1l-.7 9.8-.3 8.8c-20.4 3-37 7.5-49.8 13.6-8.9 4.4-13.3 9.8-13.3 16.4v4.9l5.5 99.5c.7 9.1 2.4 54.3 5.2 135.8a1653.7 1653.7 0 005 77.4c.2 5.2 1.3 8.5 3.3 10.1 2 1.5 21.5 7.8 58.4 18.9a132.1 132.1 0 010 21.4c-5.8 0-20.6-1.2-44.2-3.8a655.2 655.2 0 00-66.5-3.6 1038.7 1038.7 0 00-103 4.9l.5-22.6c8.9-3.4 20.8-6.3 35.6-8.8 10.3-1.6 17-4.6 19.7-8.7 3-4.2 4.4-15.6 4.4-34.5 0-7.2-.2-13.4-.4-18.9-1-22.7-1.7-54.4-2-95l-5.5-115c-.7-16.1-1.4-27.5-2.2-33.8l-81.1 186.2-8.8 18.9a3247 3247 0 00-10.1 21.7 1089 1089 0 00-34.8 92.3c-1.8 5.3-4.3 12.4-7.8 21l-25-.3-17.6-49.7c-5.3-13-14.1-32.8-26.8-59.3a1220 1220 0 01-17.2-37.4l-4.3-8.8-3.8-8.2c-.3-1.2-.6-2.3-1-3.2l-48.5-104.4-29.7-63.6-2.5 154-2.3 99.9c0 16.5 3 28.3 9.3 35.3 6.1 7.1 19.4 13.1 39.8 18.1l15.6 3.9v23.8a434 434 0 01-40.5-2.8 524.2 524.2 0 00-57.4-2.5c-5 0-26.4 1-64.2 3zm3070-1646.4l164.8-115.3c4.5-3 7.7-5.6 9.4-7.7 2-2.1 2.5-5 1.8-9l3.4-2.2 8.2-5.8 41.8 59.8-3.4 2.2-12 8.4c-15-12.6-28.4-18-40-16.3a96.2 96.2 0 00-38.7 17.7l-52.3 36.5 58.7 84.4 33.7-23.5a51.4 51.4 0 0018-19.1c3-6.7 1.7-13.8-3.7-21.6l-.6-.7 3.5-2.3 12-8.3 41.8 59.8-3.5 2.5-11.9 8.3a26.7 26.7 0 00-24.4-11c-3 .6-5.4 1.5-7.6 2.6l-4.7 2.7-40.1 28.2 67 96 76.6-53.5a60.7 60.7 0 0021-76.1l3.4-2.4 12-8.5 41.2 59.1-3.4 2.2-209.2 146.1-8.4-11.9c5.3-4.8 8-9.3 8.5-13.7.4-4.5-.3-8.5-2-12.3-.6-1.5-1.3-3-2.2-4.3-.7-1.4-1.6-2.7-2.3-3.8L6281.9 6352l-2-2.9a27 27 0 00-2.2-2.5 29 29 0 00-11.1-7.5c-4.5-1.6-10.3-.7-17.3 3l-8.4-12zm842.4-2922.3c-9.3-10.9-18.6-21.8-27.7-32.7l-11 3-37.6 9.3-37 8.5-36.2 7.8-34.7 7.6-33 7.7-30.6 8-27.9 8.6-24.6 9.3-20.7 10-16.4 10.7-12.1 10.9-8.3 11.2-5.3 12.5-2.6 15.4 1 19.9 7.5 34.8c20.2 27.4 48.6 60.5 83.2 97l4.9-7 25-33.4 26.3-32.5 27.6-31.3 28.9-30.2 30.1-28.8 31.3-27.1 32.6-25.4 33.7-23.4 33.6-20.4zM5002 6535c-746.7-3.5-2041.4-514-2269.3-2246.3-183-11.6-222.2 274.6-541.4 190 40.8 1550.4 1476 2711.5 2810.7 2685.9 1334.6 25.6 2769.8-1135.5 2810.7-2685.9-319.2 84.6-358.4-201.6-541.4-190C7054.4 6021 5737.8 6531.5 5002 6535zM2637.9 4545.2l13.3 75.7-151.9 179.8v.4l139.3-24.5 4.8-1a18.5 18.5 0 0012.8-10.5c2-3.9 2.8-9.3 2.7-16.4l14.4-2.6.7 4 12 68.5-14.3 2.5c-2-6.5-4.6-11.1-7.9-13.9a25.7 25.7 0 00-9.1-5.4 28 28 0 00-6.6-.5l-5 .5-241.3 42.6-.7-4-3.8-21.3 185-218.7-178 31.4c-1.3.2-2.7.6-4.2 1a21.6 21.6 0 00-12.8 10 31.3 31.3 0 00-3.2 17l-14.5 2.5-.7-4-12-68.5 14.4-2.5c2.3 7 5.3 12 8.8 14.7a21.5 21.5 0 0015.5 5.1l4.2-.5 202.6-35.7a62.4 62.4 0 0010.2-3c3.3-1.5 6.2-3.8 8.6-7.2 2.4-3.2 3-8.1 2-14.6l-.4-2.3 14.4-2.6.7 4zm100 408.3c14.6 42.2 11.6 80.3-9 114.2a155.8 155.8 0 01-82.6 69l-.6.3-.6.1c-41.7 14.4-79.8 12.2-114.2-6.6a144 144 0 01-70-81.6l-1.7-3.7a145.8 145.8 0 015.3-107.6c15.5-36 44.1-61.2 85.9-75.6l.6-.2.6-.1a155.6 155.6 0 01107.6 3.5c37 14 62.8 42.2 77.4 84.4l1.3 3.9zm-21 5.1a71.4 71.4 0 00-38.6-42.2c-18.8-8.7-53.6-4.3-104.6 13.2-44.8 15.5-73.5 31.9-86 49.3-12.5 17.3-15 37.7-7.5 61.2 8.6 23.4 23.2 38 43.7 43.9 20.5 5.8 53.1 1 98-14.5 50.7-17.4 80.8-35.4 90.3-53.9a71 71 0 004.7-57zm70.5 144l32.4 69.7-100.1 213 .1.4 128.2-59.8 4.3-2.2a19 19 0 009.6-13.5c1-4.2.4-9.6-1.6-16.5l13.3-6.2 1.7 3.7 29.4 63-13.3 6.1a28.7 28.7 0 00-11.1-11.3 25.9 25.9 0 00-10.3-2.8 29.4 29.4 0 00-11.2 2.9l-222 103.6-1.8-3.7-9.1-19.5 122.2-259.2-164 76.4-3.7 2a21.8 21.8 0 00-9.8 13c-1.3 4.4-.9 10.1 1.3 17.2l-13.3 6.2-1.7-3.7-29.4-63 13.3-6.2a31 31 0 0012.3 12 21.7 21.7 0 0016.3 1l4-1.7 186.3-86.9 4.4-2.3c1.6-.9 3.2-2 4.7-3.3 2.8-2.2 5-5.2 6.5-9 1.5-3.9.9-8.7-1.9-14.7l-1-2.2 13.3-6.1 1.7 3.6zm264 534.3l-58 32-2-3.5-7.6-14a68.1 68.1 0 0022.6-34.2 75.5 75.5 0 00-2.3-43.3 63.6 63.6 0 00-4.2-9.3c-6.6-11.5-14.5-18.5-23.7-21a41.5 41.5 0 00-25.3.3c-1 .5-1.9 1-2.8 1.3a29.1 29.1 0 00-17.3 18.3 73.9 73.9 0 00-2.4 35c.5 4 1 7.3 1.5 9.9a117 117 0 001 7.7c4.2 26.8 5.5 51.5 3.8 74.3-1.7 22.7-15.1 41-40.3 55a87.5 87.5 0 01-70 6.9c-24.7-7.4-44.5-24.5-59.3-51.3l-2.3-3.3c-4.1-8-7.2-15.3-9.3-22a544 544 0 01-6.2-21.4l-.7-3c-1-4.4-1.8-8.2-2.7-11.4-.8-3.3-1.8-6.3-3-9a13.8 13.8 0 00-9.4-6 4 4 0 00-1.4-.1c-.6 0-1.1 0-1.5-.2l-1.3.3-2-3.6-6-11 60.1-38.3 2 3.6 7.6 13.9a93.7 93.7 0 00-16.2 39.1 90.3 90.3 0 007 55.5c8.4 14 18 23.1 29 27.6a54 54 0 0038 2.5c2.5-.9 4.8-2 7-3.1a30.8 30.8 0 0017.4-28.2 235.7 235.7 0 00-4-46.5c-.6-5.3-1.4-11.3-2.4-18a126.5 126.5 0 016.3-64.7 68 68 0 0133.6-36.4 76.7 76.7 0 0163.6-6.6 82.9 82.9 0 0148.7 40.3l2 3.6c3.8 6.8 6.6 13.2 8.4 19a71.4 71.4 0 013.2 16.4c.4 5.2.6 9.7.4 13.4-.1 3.6 0 6.8.7 9.6v1.3l.6 1.5c1.2 1.6 2.6 3 4.3 4a10 10 0 006.2 1.5l2 3.5 6.6 12.1zm-15.5 345l-5.1 19.6c-28.6-6.4-50.8-14.8-66.9-25a148.8 148.8 0 01-39.1-35.8l-2.8-3a141.9 141.9 0 01-28-104.4c4.5-38.2 24.9-71 61.3-98.3 37.1-27.8 73.9-38.1 110.4-31 36.5 7.1 65 23.8 85.2 50l.8 1.1.7.8 2.4 3.2a181.7 181.7 0 0119.6 33 170 170 0 012.9 7.6c.8 2 1.3 3.7 1.8 4.7a74 74 0 008 16.8 19 19 0 006.5 3.3c.1.2.4.4.7.5.3.1.6.3 1 .3s.7 0 1 .3l.9.2 1.1.2 1.2.2 2.4 3.2 8.8 11.8-53.6 40.2-2.5-3.3-8.8-11.7c8-12.4 11.6-26 11-41a96.4 96.4 0 00-10.9-40.8c-1-1.7-1.8-3.3-2.8-4.8-1-1.5-1.9-2.9-2.9-4.1-17.7-22.3-37.7-30.7-60.1-25a207.9 207.9 0 00-75.5 37 275.8 275.8 0 00-20.2 15.2l-10 8.2a136.5 136.5 0 00-36.5 52c-7.9 20-2.6 42.8 16 68.5a119.3 119.3 0 0047.4 36c5 2.1 10 4.1 15.4 6 5.4 2 11 3.6 16.7 5l2.5 3.3zm266.9-38.4l-10.7 10c-.7-.8-1.8-1.6-3.1-2.4a23 23 0 00-15-3.3c-4 .3-8.4 2.5-12.7 6.6l-65.5 60.8 93.4 100.6 65.6-60.7 1.9-1.9c.7-.6 1.2-1.3 1.6-2 2.7-3.2 4.3-7 4.9-11.3.6-4.2-1-9.3-5-15.3l10.7-9.9 2.8 3 68.8 74.2-10.7 9.9a25.8 25.8 0 00-15.6-6.3c-5 0-10 2.4-15.2 7.2L3246.2 6245c-4.8 4.4-7.5 8.5-8.1 12.2a25 25 0 003 14l.7 2 .9 2.1-10.7 10-2.8-3-68.8-74.1 10.7-10 2.1 1 1.9.9c5.4 3 10 4.5 13.8 4 3.7-.3 8-2.6 12.7-7l71.8-66.7-93.4-100.7-71.8 66.7a25 25 0 00-8 12.6c-.9 4.4.7 10.4 4.9 18l-10.8 10-2.8-3-68.8-74.2 10.8-10c7.3 4 13 5.8 17.3 5.6 4.2-.2 8.6-2.4 13.2-6.7l153-142c4.4-4.2 7-8.1 7.5-12 .7-4 .5-7.5-.5-10.6a18 18 0 00-1.6-4.3l-1.9-3.6 10.7-10 2.8 3 68.8 74.2zm254.7 238.3c34.7 28.2 52.3 62.1 52.6 101.7.5 39.7-10.8 73.8-33.6 102.3l-.4.5-.4.5c-27.9 34.2-61.4 52.4-100.5 54.6a143.7 143.7 0 01-102.6-32.3l-3.4-2.3c-29-24-46.5-55.3-52.3-94.1-5.8-38.8 5.2-75.3 33-109.5l.5-.5.4-.5a155.8 155.8 0 0193.2-53.8c38.9-7.7 75.7 2.6 110.4 30.9l3.1 2.5zm-15.1 15.4a71.4 71.4 0 00-55-15.4c-20.6 2.5-48 24.6-82 66.5-29.8 36.7-45.5 65.8-47 87.2-1.5 21.3 7.2 40 26 56 19.7 15.2 39.7 20 60.2 14.1s45.7-27.2 75.6-64c33.9-41.6 50-72.8 48.3-93.5a71.3 71.3 0 00-26.1-50.9zm142.9 86.4l84.5 57.3-8.3 12c-6-3-11-4-15.1-3a20.8 20.8 0 00-10 6.1c-1.4 1-2.5 2.3-3.4 3.6l-2.8 4-.1.2-.1.2-124.3 183.3 73 49.5a58.5 58.5 0 0042.7 10.5 60.7 60.7 0 0036.1-18l3.4 2.2 12 8.2-40.3 59.6-3.3-2.3-207-140.2 8.2-12.1c6.3 3.3 11.6 4.3 15.9 3.1 4.2-1.2 7.8-3.3 10.8-6.2a61.4 61.4 0 005.9-7.3l113.1-166.8a35 35 0 006.7-16.8c.4-5.1-2.7-11-9.2-17.3l8.3-12.1 3.3 2.3zm70.6 370.8c2 .3 5.4.3 10.2-.1 4.9-.5 10.8-2.8 17.8-6.9a64.7 64.7 0 0012.2-8.7l148-122.2a67.9 67.9 0 0012.1-15c1.1-1.9 2-3.7 2.8-5.4 1-2 .5-4.4-1.3-7.1a18.8 18.8 0 00-9.2-6.8l-1.6-.8-1.7-.8 6.2-13.2c10.4 4 19.5 6 27.4 6.3a74.9 74.9 0 0024.3-2.7c1.5-.5 2.8-1 4-1.7l3.6 1.7 13.3 6.2 1.8 246.8c.2 19.3 1.4 33.2 3.3 41.7a51.8 51.8 0 009.4 21.3l-6.2 13.2-3.7-1.7-105.2-49.4 6.2-13.2 1 .5a18 18 0 0015.4.7c5-2 8.7-5 11.3-8.8l1.2-2a8.3 8.3 0 001.9-4.5c.3-1.2.4-2.4.3-3.6l.4-.7v-1c.2-1 .4-2 .4-2.8.2-.9.2-1.6.2-2.2l-.2-29.3-113.7-53.3-19.7 17.2c-.5.3-1 .8-1.3 1.2l-1.2 1.2c-1 .8-2 1.6-3 2.6-1.1 1-2.1 2.2-3 3.6-.6.6-1.1 1.3-1.5 2.2-.5.8-.9 1.8-1.3 2.7-1.9 4-2 8.5-.3 13.6 1.6 5.1 6.7 10.7 15.2 16.8l-6.2 13.2-3.6-1.7-72.2-33.8 6.2-13.3zm204.7-118.5l-91.9 77.2-.7 1.5 92 43 .5-1v-120.7zm191 5.2l188.8 69.2c5.1 2 9 3 11.8 3.3 2.8.3 5.6-1 8.3-3.7l3.8 1.4 9.6 3.5-25 68.3-4-1.4-13.6-5c1.7-19.6-1.5-33.6-9.7-42a96.1 96.1 0 00-36.7-21.7l-59.9-22-35.3 96.5 38.5 14.1a50 50 0 0026 3.7c7-1.3 12.2-6.4 15.5-15.3l.2-.8 3.8 1.5 13.8 5-25.2 68.7-3.8-1.4-13.7-5a28 28 0 00.5-16.3 30 30 0 00-5.5-10.3c-2.2-2-4.3-3.4-6.6-4.5-2.1-1.1-3.8-1.9-4.8-2.2l-46.2-17-40.2 110 87.7 32a58.1 58.1 0 0044 0 60.6 60.6 0 0030.6-26.3l3.8 1.5 13.7 5-24.7 67.5-3.9-1.4-239.6-87.8 5-13.7c7 1.6 12.3 1.3 16.2-.9a24.9 24.9 0 0011.2-13 54 54 0 001.8-4l69.3-189.3 1.2-3.2c.4-1.2.7-2.3.8-3.4 1-4.3.9-8.7-.3-13.3-1.2-4.7-5.3-8.9-12.3-12.6l5-13.7zm530.5 141.4l-9.2 65.6-4-.5-15.7-2.3a68.1 68.1 0 00-13.9-38.6 75.6 75.6 0 00-36-24.2c-3.4-1-6.7-1.7-10-2.2-13.1-1.6-23.4.6-31 6.3a41.7 41.7 0 00-15 20.5l-.6 3-.6 3c-1.2 8.3.5 15.6 5 21.8a74.3 74.3 0 0026.5 23c3.5 2 6.4 3.6 8.7 4.7a65.3 65.3 0 006.9 3.9c24 12.6 44.5 26.5 61.6 41.5 17.2 15 23.8 36.7 19.8 65.1a87.6 87.6 0 01-36.3 60.2c-20.8 15.4-46.3 21-76.7 16.7l-4-.2c-8.8-1.5-16.6-3.4-23.2-5.7a482.2 482.2 0 01-23.6-9c-4-2-7.7-3.6-10.8-4.9-3.1-1.2-6.1-2.2-9-2.9a13.6 13.6 0 00-10.4 3.9c-.3.2-.7.6-1 1.1-.3.5-.7.9-1 1l-.6 1.3-4-.6-12.5-1.8 5.5-71 4 .5 15.8 2.2a93.8 93.8 0 0021.5 36.6 91.4 91.4 0 0048.6 27.5 62.9 62.9 0 0039.5-6.6 54 54 0 0024.8-28.9c.8-2.5 1.3-5 1.7-7.4a31.1 31.1 0 00-12.1-30.8 235.7 235.7 0 00-34.7-22.1l-2.4-1.3-2.5-1.5-15.8-8.7c-6-3.3-12-7.2-17.9-11.6a126.6 126.6 0 01-30.1-32.3 68 68 0 01-9-48.7 77 77 0 0132.8-54.9c18.5-13 39-17.9 61.6-14.8l4 .6a101 101 0 0120.2 4.8c5.8 2 10.8 4.4 15 7.2 4.6 2.8 8.3 5.4 11 7.7 2.9 2.3 5.6 4 8.1 5.2.3.3.6.6 1.2.8l1.5.4c2 0 3.9-.3 5.7-1 2-.7 3.5-2 4.9-4l4 .5 13.7 2zm28.8-5l201 7c5.4.1 9.5 0 12.2-.6 2.7-.6 5-2.6 6.7-6.1l4.1.1 10.2.4-2.6 72.7-4-.2-14.7-.5c-4.4-19-11.9-31.4-22.3-37a96.2 96.2 0 00-41.5-9l-63.8-2.3-3.6 102.7 41 1.4a50 50 0 0025.8-4.5c6.4-3.5 9.7-10 10-19.4v-.8l4.1.1 14.7.5-2.6 73.1-4-.1-14.7-.5c-.3-6.8-1.8-12-4.5-15.6a30 30 0 00-8.5-8 29 29 0 00-7.6-2.3c-2.4-.4-4.2-.6-5.3-.6l-49.1-1.8-4.1 117 93.4 3.3c16.5.6 30.4-4 41.8-13.8a60.6 60.6 0 0020.9-34.5l4 .2 14.7.5-2.6 71.9-4-.2-255-8.9.4-14.6c7.1-.6 12.1-2.5 15-5.8 3-3.3 5-7 6-11a63 63 0 001.1-9.3l7-201.4.2-3.4c0-1.2 0-2.4-.3-3.5a28 28 0 00-4.5-12.6c-2.5-4-7.7-6.7-15.6-8l.6-14.6zm266.9 10.7l119.8-10.4c46.4-4.1 81.9 1 106.4 15 24.5 14.3 42 30.5 52.6 49a131.9 131.9 0 0115 37.2 244 244 0 015 28.7c1.9 20.5-.1 40-5.8 58.7a123.6 123.6 0 01-49 64.8 161.1 161.1 0 01-60.3 24.7 396.8 396.8 0 01-29.8 4.4l-4 .4-129.2 11.2-1.2-14.5c9.6-4.1 15.1-8.3 16.4-12.5 1.3-4.2 1.7-9.1 1.2-14.8v-.6l-.2-.6-17.5-200.8v-.6l-.1-.6a39.8 39.8 0 00-3.7-14.4c-2-3.9-8.1-7-18.4-9.4l-1.3-14.6 4-.3zm103.5 254.9l27.5-2.4c6-.6 12.8-1.6 20.7-3a95 95 0 0063.5-44.3c11.3-17.7 15.5-44.5 12.3-80.7-3.4-38.3-13.2-65.3-29.7-81a108 108 0 00-52.2-29.3 150.4 150.4 0 00-41-1.7l-22.2 2 21 240.4zm245.5-272l115.2-22.3 3 14.7-1.8.4-1.8.4c-7.5 1.4-12.8 4.2-16 8.2-3.2 4.1-4.3 8.7-3.3 13.8a26.7 26.7 0 003.4 8.8l2.4 3.7 2.3 3.3 105.2 137 2-.3 38.5-168.3.4-1.5.3-1.5a27.8 27.8 0 00.6-11.7c-1-5.1-3.3-8.6-7-10.5a30 30 0 00-18.2-3.3l-5.5.7-2.8-14.3 4-.8 80.1-15.8 2.8 14.4a36 36 0 00-17.7 14.3c-3.9 6.2-6.8 14-8.8 23.3l-59 254.2-4 .8-15.1 3-161.9-212.2-3.3-4.5a57.9 57.9 0 00-16.6-15c-5-3-11.2-4.3-18.6-4l-2.8-14.3 4-.8zm297.7-68.2l96.7-29.8 4.3 14c-5.4 2.5-9 5.5-10.8 9a25.2 25.2 0 00-2.9 10.1 42.4 42.4 0 002.4 11.6l.1.6v.2l59.4 192.6v.2l.3.6a57.1 57.1 0 004.6 10.9c1.9 2.5 4.6 4.8 8 6.7 3.4 2 8.1 2.4 14 1.4l4.4 14-4 1.2-96.6 29.7-4.3-13.9c6-2.7 9.8-6 11.6-10a23.7 23.7 0 001-17.1 70 70 0 00-1.1-4.6l-59.4-192.6-1.5-4.4-2.1-4.7c-2-3.4-4.7-6.3-8.4-8.6-3.7-2.4-8.8-3-15.3-2l-4.3-13.9 4-1.2zm98.9-35.8l15-6a52.3 52.3 0 0026.2-4.6l168-68.3a71 71 0 006.8-3.2l6.3-3.4a82.6 82.6 0 009.3-8.6l3.7-1.5 14.7-6 27.5 67.8-3.8 1.5-13.5 5.5a83.8 83.8 0 00-20.3-15.4 66.5 66.5 0 00-40.3-7.3 95 95 0 00-15 4.3l-21.2 8.2 85.4 210a25 25 0 009 12c3.8 2.4 10 3 18.6 1.8l5.5 13.6-3.8 1.5-93.7 38.1-5.5-13.5 1.8-1.6c.5-.5 1-1 1.3-1.5 4.8-4 7.8-7.8 8.7-11.4 1-3.6.3-8.5-2.1-14.5l-85.4-210-17.2 7.4c-3.8 1.5-7.7 3.4-11.9 5.7a63.5 63.5 0 00-27.7 28.8c-4.3 8.5-6.1 19.4-5.3 32.9l-3.8 1.5-13.5 5.5-27.6-67.7 3.8-1.6zm366.6 155.6c1.4-1.4 3.4-4.2 6-8.3a45.3 45.3 0 005-18.4 69.9 69.9 0 00.3-15l-9.3-191.7a47 47 0 00-2.7-12.8c-.4-2-1.1-3.9-2-5.9l-2.7-5.4c-1-2-3.2-3-6.5-3.2-3.3-.2-7 .8-11 3.3l-1.5.8c-.7.3-1.2.6-1.6 1l-7-13a76.7 76.7 0 0033.9-39.3 31 31 0 001-4.2l3.5-2 13-6.8 198.8 146.2a218.4 218.4 0 0035.5 22.3 52.2 52.2 0 0022.5 5.2l7 13-3.6 1.9L6266 6645l-7-12.9 1-.5c5.4-2.9 8.7-6.8 9.9-12 1.2-5 1.1-9.9-.3-14.3a9 9 0 01-.9-2 11 11 0 00-.8-2.1 17 17 0 00-4.3-4.6l-.5-.8c0-.3-.3-.4-.7-.5a28.8 28.8 0 00-3.7-3.6l-23.6-17.3-110.7 59.2 2 26.2c0 .5 0 1.1.2 1.6l.2 1.8.3 4c.2 1.4.5 3 1 4.5.2.8.4 1.7.9 2.5s1 1.7 1.4 2.7c2 3.8 5.7 6.6 10.7 8.4 5.1 1.7 12.7 1 22.6-2.2l7 12.9-3.7 1.9-70.1 37.5-7-12.8zm27.4-235l6.9 120 .8 1.3 89.6-48-.6-1-96.7-72.3zm394.1-381.4l88.7-81.4c34.3-31.4 65.5-49 93.6-52.7 28-3.7 51.9-1.5 71.5 6.6a133.1 133.1 0 0134.6 20.4 247 247 0 0121.5 19.8 152.6 152.6 0 0131 50 123.8 123.8 0 01.7 81.4c-2.2 6.4-4.8 12.6-7.8 18.6a159.2 159.2 0 01-25 37.6 390.8 390.8 0 01-21 21.7l-3 2.7-95.5 87.7-9.9-10.8c5.2-9.2 7-15.8 5.4-20-1.5-4-4.2-8.2-8-12.4l-.4-.4a5 5 0 01-.4-.5l-136.3-148.5-.4-.4-.4-.5a38.1 38.1 0 00-11.7-9.1c-4-2-10.7-.7-20.3 3.7l-9.9-10.8 3-2.7zm237.4 139l20.3-18.6c4.4-4 9.3-9 14.6-15a94.7 94.7 0 0023.3-73.8c-1.7-20.9-14.8-44.7-39.3-71.5-26-28.3-50.3-43.7-73-46.1-22.6-2.4-42.3.4-59.1 8.5a168.5 168.5 0 00-33.5 23.6l-16.5 15 163.2 178zm-7.4-344.8l68.3-74.7 10.8 9.9c-3.4 5-5 9.4-4.7 13.3.3 4 1.1 7.3 2.6 10.1a52.2 52.2 0 007.9 8.9l.4.4.1.1 148.7 136.1.2.2.4.4 3.9 3.3c1.6 1.2 3.5 2.5 5.6 3.7 3 1.3 6.3 1.8 10.3 1.8 4-.1 8.2-2.1 12.8-6l10.8 10-2.7 3-68.3 74.6-10.8-10c3.8-5.3 5.4-10 5-14.4-.5-4.3-2-8.1-4.5-11.4-1-1.3-2-2.6-3.3-3.9l-3.3-3.3-148.7-136.1a51.9 51.9 0 00-7.7-6c-3.3-2-7.2-3-11.7-3.2-4.4-.2-9 1.8-14 6l-10.8-9.9 2.7-3zm213.3-233l51.2 42-2.7 3.2-10 12.2a68 68 0 00-40.2-8.4 75 75 0 00-39.4 18.1 60 60 0 00-7.1 7.4c-8.3 10.4-11.9 20.3-10.8 29.7 1 9.5 4.2 17.3 9.6 23.5l2.2 2.1 2.2 2.1a29.3 29.3 0 0021.3 7.2 74 74 0 0033.4-10.6l8.6-5 3.4-2 3.5-1.9a326 326 0 0167.5-31c21.9-6.7 43.8-1 66 17.2a87.5 87.5 0 0132.3 62.5c2.3 25.7-6.3 50.4-25.8 74l-2.3 3.4a145.8 145.8 0 01-17 16.8 424 424 0 01-20 15.4 158 158 0 00-9.7 6.7c-2.7 2-5 4-7.2 6.2a14 14 0 00-1.7 12.3c.2.5.4 1 .4 1.4l.7 1-2.6 3.2-8 9.7-57.7-41.7 2.6-3.2 10-12.2c14 3.5 28.2 3.7 42.4.7a91 91 0 0048.9-27.2c10-12.8 15-25.2 15-37a54.4 54.4 0 00-11.7-36.3c-1.7-2-3.5-3.7-5.4-5.2a31 31 0 00-32.6-5.9 237.9 237.9 0 00-37 18l-2.4 1.5c-1 .4-1.8 1-2.5 1.4l-15.7 8.8a127.7 127.7 0 01-62.5 18 68.3 68.3 0 01-46.2-17.7 77 77 0 01-29.7-56.6 83.2 83.2 0 0119.5-60.2l2.6-3.1c5-6.1 9.9-11 14.6-14.9 4.7-3.8 9.4-6.8 14-9 4.8-2.4 9-4.2 12.3-5.4 3.5-1.1 6.4-2.5 8.7-4.1.4 0 .9-.2 1.3-.6l1.2-1.2c1-1.6 1.7-3.3 2-5.3.4-2 .2-4-.9-6.3l2.6-3.1 8.8-10.7zm342.3-107.3l20.2-1.4c3 29 2.2 52.8-2.4 71.3a149.3 149.3 0 01-21.3 48.5l-2 3.6c-22.2 32-52.2 52-89.9 60s-75.3-1-112.8-26.7c-38.2-26.2-59.7-57.8-64.6-94.7-5-36.9 1.7-69 20-96.7l.8-1.1.6-.9 2.2-3.3a190.8 190.8 0 0125-29.2 310.7 310.7 0 0110.2-8.3 83.7 83.7 0 0013.4-13c.4-1 .6-2.2.8-3.4.1-1.2.3-2.5.1-3.8.2-.2.3-.5.3-.8v-1-1l-.1-1-.2-1.2-.2-1.1 2.3-3.3 8.3-12.1 55.2 38-2.3 3.3-8.2 12a68.6 68.6 0 00-42.3 2.8 95.6 95.6 0 00-39 27.6 68.7 68.7 0 00-3 4c-15.4 23.9-16.8 45.6-4.4 65a206.7 206.7 0 0059.3 59.7 624.4 624.4 0 0020.8 14.2l11 7a136.3 136.3 0 0061 17.8c21.4 1 41.3-11.3 59.7-37 5.4-8.5 9.8-17.4 12.9-26.8 3.1-9.3 5.2-19.2 6.1-29.7.4-5.3.7-10.9.8-16.5 0-5.7 0-11.5-.6-17.5l2.3-3.3zm-176.1-154l48.2-89 12.9 7a21.5 21.5 0 00-1.4 14c1.2 3.7 2.8 6.8 5 9.2a49.2 49.2 0 009.7 6.7l.6.3h.1l177.3 96.1.1.1.6.3a56.2 56.2 0 0010.9 4.6c3.1.5 6.6.2 10.4-.9 3.8-1 7.4-4 11-8.8l12.9 7-2 3.6-48.2 89-12.9-7c2.4-6.1 2.9-11.2 1.3-15.3-1.4-4-3.8-7.4-7-10a52.8 52.8 0 00-8.2-5.4l-177.1-96a55 55 0 00-9-4 25 25 0 00-12.1-.3c-4.3.9-8.4 4-12.2 9.3l-12.9-7 2-3.5zm60.6-98l37.4-90.5 212.2 9-156.6-143.5 1.6-3.7 35.4-85.6 13.5 5.6a23 23 0 004 21c2 2 3.7 3.3 5.6 4.2 1.8 1 3.2 1.6 4.2 2l193.4 80c5.3 2.2 9.7 2.8 13.3 1.8a27 27 0 009.3-4.3 27 27 0 003.5-3.8l2.5-3.4 13.5 5.6-1.5 3.8-38.7 93.4-13.5-5.5c1.4-5.6 1.6-10 .5-13.5a24 24 0 00-4.6-8.5 21 21 0 00-5.1-3.6l-4-2-189.3-78.2 190 174-1.5 3.8-10.8 26.3-261-11.2 188.5 78c8 3.3 14.4 4.1 19.1 2.6a21.6 21.6 0 0014.3-13.4l13.6 5.6-1.6 3.8-26 62.7-13.5-5.6c2.5-6 3-11 1.4-15-1.5-4.1-3.7-7.3-6.6-9.6-2-2-4.2-3.6-6.4-4.7l-4.8-2.2-179.9-74.4c-9.7-4-18-5.3-25-4a19.1 19.1 0 00-14.5 12.3l-13.5-5.6 1.6-3.7zm130.4-316.8l24.8-96.4 14.2 3.7c-.6 8 .8 13.5 4.2 16.8a31.8 31.8 0 0014.7 7.8l2.3.6 112.1 29 9.5 2.3c3.1.9 6.3 1.5 9.5 2.1 19.2 3.8 37.7 3.1 55.7-2 18-5.2 31.1-23.2 39.4-54 6.6-26.9 5.8-47.1-2.6-60.8a75.4 75.4 0 00-43.4-34.2c-4.2-1.4-8-2.5-11.7-3.5l-130.6-33.7h-.3l-.5-.2a46.5 46.5 0 00-9.2-1.6c-3.2.4-6.6 1.7-10 4a34 34 0 00-9.9 14l-14.1-3.6 1-4 16.9-65.3 14.1 3.7c-.9 6.5-.3 11.6 1.5 15.3 1.9 3.7 4 6.5 6.2 8.5 2 1.3 3.8 2.3 5.7 3l5 1.4 129 33.4c16 4 30.7 10 44 17.8a78.8 78.8 0 0131.4 34.8 86.6 86.6 0 017.5 19.5c4.8 16.3 6.3 31 4.5 44-1.9 13-3.4 22-4.7 26.9l-.6 4c-5.3 19.4-11.6 35-18.8 46.8a148.4 148.4 0 01-21 27.8 107.2 107.2 0 01-25.6 17.7l-7.6 3.5c-7 2.4-16.1 4-27.1 5-11 .9-24.8-.8-41.3-5l-130.3-33.7-3.5-.9c-1.3-.3-2.5-.5-3.7-.5-4.2-.8-8.4-.6-12.6 1-4.1 1.3-7.8 5.6-11 12.6l-14.2-3.7 1-3.9zm108.5-473.6l65.5 9.7-.6 4-2.3 15.7a68 68 0 00-38.8 13.6 75.1 75.1 0 00-24.4 35.8c-1 3.4-1.9 6.7-2.3 10-1.7 13.1.3 23.5 6 31a41.6 41.6 0 0020.4 15.2l3 .6 3 .7c8.3 1.2 15.5-.4 21.8-4.8a75 75 0 0023.2-26.3c2-3.5 3.7-6.4 4.8-8.8a89.7 89.7 0 003.9-6.8 323.2 323.2 0 0142-61.3c15.2-17 37-23.5 65.3-19.2a87.7 87.7 0 0159.9 36.8c15.2 21 20.6 46.5 16 76.8l-.1 4c-1.6 8.9-3.6 16.6-6 23.2a491.1 491.1 0 01-9.2 23.5c-2 4.1-3.6 7.6-4.9 10.8a62 62 0 00-3 9c0 2.5.3 4.6 1.1 6.3.9 1.8 1.8 3.2 2.7 4.1.2.3.6.7 1.1 1 .5.3.9.7 1 1l1.2.6-.6 4-1.8 12.5-71-6.1.6-4 2.3-15.7a93.9 93.9 0 0036.7-21.2 91.7 91.7 0 0028-48.5 62.4 62.4 0 00-6.3-39.5 54 54 0 00-28.7-25c-2.5-.8-5-1.4-7.3-1.8a31 31 0 00-31 11.9 236.9 236.9 0 00-23.8 36.9l-1.4 2.4-8.9 15.8c-3.4 5.9-7.3 11.8-11.7 17.8a126.3 126.3 0 01-32.6 29.8 68.2 68.2 0 01-48.7 8.6 77 77 0 01-54.6-33.3 83.3 83.3 0 01-14.3-61.6l.6-4c1.2-7.8 2.8-14.6 5-20.3 2-5.7 4.4-10.7 7.3-14.9 2.8-4.5 5.4-8.2 7.8-11 2.3-2.8 4-5.4 5.2-8 .4-.2.6-.6.8-1.1.3-.5.4-1 .5-1.6 0-1.9-.3-3.8-1-5.7a10 10 0 00-4-4.9l.6-4 2-13.7zm256.6-993.8c-442.5-391-848.8 81.4-973.5 426.4l57.3 149.3 17 37 17.4 31.3 17.6 26 17.7 21.3 17.5 16.9 17.2 13 16.6 9.3c211.2-399.7 615.2-687.7 867-287 70-107.7-124.5-330.2-71.8-443.5zm-5350.1 0c442.5-391 848.8 81.3 973.5 426.4l-57.3 149.3-17 37-17.4 31.3-17.6 26-17.6 21.3-17.5 16.9-17.3 13-17 9.6-7.2 2.9C2898.2 3861 2502 3575 2255.2 3967.4c-70-107.6 124.5-330 71.8-443.4zm4631-1089.4c193.4 812.6-311.5 272.5-263.3 573.8 93.9 80.3-88.1 344-8.5 563.4-104.8-353.8 821.4-14.8 637.7-748.1-114.3-3.3-176.9-362.9-366-389.1zm-3911.8 0c-193.4 812.6 311.4 272.5 263.3 573.8-94 80.3 88.1 344 8.5 563.4 104.7-353.8-821.4-14.8-637.8-748.1 114.3-3.3 176.9-362.9 366-389.1zm4227.6 1814.7c-44-166.3-387 332.1-566.4-179.3l41.3 654.1c69.3 192.1 211.7 170 372.5 89.4l23.6-79.5 35-143 29.3-150.1 28.3-191 36.4-.6zm-4543.4 0c44-166.3 387 332.1 566.4-179.3l-41.3 654.1c-69 191-210 170.3-369.5 90.8l-24.4-81-35.6-143.2-30-150-29.4-190.9-36.2-.5zM7147 3964.4c279 209.2 591 360.3 636.3 126.3L7693 3955l-23-29.3-23.4-25.5-23.8-21.7-24-18.2-24.3-15-24.4-11.7-24.6-9-25-6-25.1-3.5-25.6-.8-26 1.6-26.4 4-26.7 6.6-27 8.9-27.4 11.2-27.5 13.6-27.5 15.7-27.5 17.9-27.4 19.8-27.1 21.8-27 23.6-5.4 5.3zm-4226-556.6l27.6-32.7 10.9 3 37.7 9.3 37 8.5 36.2 7.8 34.7 7.6 33 7.7 30.6 8 27.9 8.6 24.5 9.3 20.8 10 16.4 10.7 12.1 10.9 8.3 11.2 5.3 12.5 2.5 15.4-.8 19.9-2.5 11c-19.8 30.1-52.2 69.2-93.5 113.3l-24.7-33-26.3-32.4-27.6-31.4-29-30.2-30-28.7-31.4-27.2-32.5-25.3-33.8-23.5-33.5-20.3zm-76.5 558.7c-273.5 206.5-575.8 353.5-622.9 128l89-138.7 22.5-28.6 22.9-24.8 23.2-21.1 23.5-17.7 23.6-14.5 23.9-11.4 24-8.5 24.4-5.8 24.7-3.2 25-.6 25.6 1.7 26 4.2 26.3 6.6 26.7 9 27 11.3 27.1 13.5 27.2 15.7 27.3 17.9 27.2 19.8 27 21.7 26.7 23.5 2.1 2zM5090 3015c9.8-10.6 10.8-44.8-.7-52.4 18.7 9 17 42.8.7 52.4zm-205.9 0c9.8-10.6 10.9-44.7-.6-52.3 18.7 9 16.9 42.7.6 52.3zm86.2 91.9c-13.9 14.2-22.7 12.8-32.4 16.6-13.4 10.2 13 22 31.2 23 18 0 47.8-12.4 33.6-23.2-9.6-3.6-18.4-2.2-32.4-16.4zm0-14.3v0zm1.3-308.3v3.6c-.5-.3-1-.7-1.3-1.2a4 4 0 01-1.2 1.2v-3.3c-1.5-3-2.6-7-4.7-8-1.5 2.4-2 13.6-2 12.8-4.4-4.5-4.7-8.9-8.5-13.4-1.6 7.1-.8 7.7-1 15.7-5.8-7.5-10.2-9.7-12.5-12 .1 3.9.7 8 1 16.4-2.7-5.7-12.3-12.7-12.3-14 .8 3 2 13.7 2.4 19.4-3.3-4.6-9.9-8.9-12.1-12 .2 6.2 2.5 8.6 4.2 19.7 0 .7-9-8.5-13.7-10.8 6.7 36.7 14.3 26.6-8.7 9 6 15.6 28.2 92 23.4 120-3.4-21-22.5-100.6-37.6-106 3.2 15.8 13.7 51 14.3 68-10.6-30.4-14.4-54.7-23.3-61-4.5 13.5 4.9 35.2 10.2 57.2-8.1-17-16.2-45.9-25.2-45.9-2.2 12.1 9.2 33.4 13.7 44 0 0-16.7-29.6-23.5-32.7-3.7 8.3 9 22.8 11.3 34.1-7.5-5.2-15-15-21-23.4 0 13.6 5.2 12.1 6.7 25.7-6.8-8.3-26.3-31.7-33-38.7 22.7 9.3 42.6-31.7 42-50-2.2-69.9-169-194.3-161.5 40.2 2.2 60 11.3 79 30.8 107 9.8-18.2 42-47 54.8-55.4 0-16.7-8.2-19-10.5-27.3 5.3 6 22.6 23.6 28.5 23.6-15-13-50.3-81.3-36.8-78.2 9.8 44.7 36.1 56.1 60.2 86.5 0 5.2-13.6-8.3-23.4-8.3-.7 2.2 8.3 12.7 10.6 15.9-4.7-2.4-17.3-12.2-21.7-10.7-2.7 1-2.3 6 4.4 19-5.3-.7-10.5-1.5-15.8-1.5 2.3 4.5 3.8 9.8 5.3 15.1-12.3-5.7-17.7-8.7-18.6-5-.6 2.3.6 7 2.8 14.9-4.8-2.9-7.6-3.3-9-1.8-2.4 2.5-.9 10.3 2 20.8-4.5-7.5-7.4-7.6-9.2-3.2-5 12-1.5 58 3.1 74.5 3 11 13.5 30.4 21 22 2 11 3.5 16.2 5.8 18 2.2 1.8 5.3.2 10.2-2 3.9 1.1 6.6 18.4 15.3 19.3 3 .3 6.5-1.2 11-5.8 8.5 13 13 17.9 16.8 18.1 5 .3 9.2-6.9 20.2-14.2.8 7.6 3.2 11.3 6.9 12.4 8 2.3 22.3-8.7 40.5-21.5-34.5 30.7-38.9 49.2-28.5 56.3 13.4 9 51.3-1 81.1-29 12.5-11.5.8-12.7-5.3-24.8-7.4-15 6.3-18 18.6-18.3v-.2h3.2v.1c12.2.4 25.9 3.3 18.4 18.4-6 12.1-17.7 13.3-5.2 24.9 30.6 28.6 69.8 38.4 82.2 28 9-7.6 3.7-25.8-29.6-55.5 16.5 11.7 29.8 21.9 38.1 21.9 5 0 8.3-3.6 9.3-12.7 12.2 8 16 16 22 13.7 3.5-1.3 7.8-6.5 15-17.6 4.6 4.6 8.2 6.1 11 5.8 8.8-.9 11.5-18.2 15.4-19.4 4.8 2.3 7.9 3.8 10.2 2 2.2-1.8 3.8-6.9 5.7-17.9 7.5 8.3 18-11 21-22 4.9-17.6 8.5-68.5 2-76.4-1.8-2.3-4.4-1.2-8 5 3.3-12.6 4.8-21.2 0-21.5-1.6-.1-4 .7-7.1 2.6 1.5-5.3 2.5-9.2 2.8-11.8 1-7.9-3.9-5-18.6 2 1.5-5.4 3-10.7 5.3-15.2-5.3 0-10.5.7-15.8 1.6 6.8-13.2 7-18.2 4.4-19-4.4-1.6-17 8.1-21.7 10.6 2.3-3.2 11.3-13.7 10.6-16-9.8 0-23.4 13.6-23.4 8.4 24-30.4 50.4-41.8 60.2-86.6 13.5-3-21.8 65.3-36.8 78.2 6 0 23.2-17.5 28.5-23.5-2.3 8.3-10.5 10.6-10.5 27.3 12.8 8.3 45 37.1 54.8 55.3 19.6-28 28.6-47 30.8-107 7.6-234.4-159.2-110-161.5-40.1-.8 26.5 15 36.4 27 48.5 6 6.8 7.5 4.6 15 1.5-6.7 7-26.2 30.4-33 38.7 1.5-13.6 6.8-12 6.8-25.7a105 105 0 01-21.1 23.4c2.2-11.4 15-25.8 11.3-34-6.8 3-23.4 32.6-23.4 32.6 4.5-10.7 15.9-31.9 13.6-44-9 0-17 29-25.1 45.9 5.2-22 14.6-43.7 10.1-57.3-8.9 6.4-12.7 30.6-23.3 61 .5-17 11.2-52 14.3-67.9-15 5.4-34.1 85-37.6 106-4.8-28 17.5-104.4 23.4-120-23 17.5-15.4 27.7-8.7-9-4.6 2.2-13.7 11.5-13.7 10.8 1.8-11.1 4-13.5 4.3-19.6-2.3 3-8.9 7.2-12.1 12 .2-5.9 1.6-16.5 2.3-19.6 0 1.4-9.6 8.4-12.3 14 .4-8.4 1-12.4 1-16.3-2.2 2.3-6.7 4.4-12.5 12-.1-8 .6-8.6-1-15.7-3.8 4.5-4 9-8.5 13.4 0 .8-.5-10.5-2-12.8-2 1-3.3 4.7-4.7 7.7zm-458.8 45.3c-17-51.2-31-133.1-3.6-184.5 9.5-18 33.9-31.6 41.4-31.6 28 252.7 31.2 246.3 44.9 328-32.2-9.6-71.8-79.4-82.7-112zm354.3 198a36 36 0 01-39-37.5 38.5 38.5 0 0139.7-39.2c28-.7 40.8 20.7 38.8 41a38.7 38.7 0 01-39.5 35.6zm205.8 0c-26 .4-39-18.4-39-37.6a38.5 38.5 0 0139.7-39.1c28.9-.7 41.5 22 38.5 42.8a38.6 38.6 0 01-39.2 33.8zm-234.7-137c-17.3-28.9-58.6-72.1-73.7-123.8 0 53.1 63.1 133.5 73.7 123.7zm264.4-.1c17.2-28.8 58.5-72 73.6-123.7 0 53.1-63.2 133.5-73.6 123.7zm2.4 2585.8c-170.2-914.5-293.4-1448.6-293.4-1504.8 67.2-30 68.4-29.2 118.4-43.7 45.3 79.3 77.7 120.5 144.3 193.5 3.6 37.7 6 132.5 10 170.7-90 136-97.8 134.6-109 179.8 29.5 210.6 54.7 278.4 171.7 453.1-37.3 77.6-59.6 328 63 378.4 1.8 33.3 4.6 67.5 7.9 102.2 13.4-3.8 26.8-5.8 40-5.8h92.8c52-154.2 174.5-281 164-497-3.5-70-33.7-136-50.6-204.2-56.3 29.5-53.2 31-131.7 38.7 9.3 64 24.9 92.3 34.2 156.8-127.2 134.4-31.6 280.2-138.1 375.6-92.3 83-66.3-309.6-39.8-362.2-124-128.5-154.4-273-168.5-435.6 44.8-90.9 139.5-205 179-284.3-133.4-97.7-196.3-192-257.3-282.4 7 0 24-7.8 31.5-7.8 64 95.3 115.4 188.7 239.2 266.5a738.7 738.7 0 0067.2-214.7c-17.8 0-4.7.9-15.8.9-10.4 64-33 123.7-62.5 182.6-58.2-55.7-110.1-185-132.6-247.7 51.5-39 64.2-52.3 103.3-98-6.8-11.2-3.5-6.8-11.5-18.8-45.5 39.2-62 51.4-106.8 94-151.3 39.5-151.3 36.3-252.4 82-23.5 50.7-2.9 105.8-90 113.3-32.7-186.5 117.2-256.9 229.5-323.8 12.8-58.7 9.7-115 34.3-169.8 50.6-112.3 98-168.2 135.9-259.6a691.2 691.2 0 0023-65.3l.6.1a759.8 759.8 0 0014.2-49.8c3-12.1 4.8-24.6 6.7-38.3 1.7-12 3.2-25 4.7-39.6-46.8 47.2-147.5 68.5-189.2 69.8v.1c-40.5-.7-143.6-22-190.8-69.9-8.5 6-10.5 35.6-4 102.6 1.4 14.8 3.3 31.4 5.6 50 2 16 4.3 33.3 7 52.2 1.6 11.4 3.3 23.2 5.1 37.3 3 18.1 5.9 33.3 8.5 47.3l12 65.8c18.8 102.5 26 140 60.5 293.5-6.6 2.3-3.4 5-14.2 9.4-20.5-85.8-18.2-87-73.7-320.3l-12.6-52.8c-2.4-9.8-4.8-20-7.6-33.4-3-12.2-5.7-22.1-8.5-32.4-6-22.7-11.8-47.1-17.5-72-5.4-23.1-10.7-46.8-16-69.9-6.8-29.6-13.7-58.4-20.5-84-25-93-76-486.5 88.6-411.5 64 29.4 126.4 50.5 176.4 51h1.7c50-.5 112.5-21.7 176.4-51 164.6-75 100 315.8 88.7 411.3a937.6 937.6 0 01-9.8 63.5c-3 16.4-6.2 33-10 49-2.8 11.5-5.1 23-7.6 33.7h.4l-4.2 16.8-14.4 52.4c-3.6 13-7.4 24-10.6 33.2-7 20-12.4 32.2-16.5 40-19 35.4-11-22.2 8.3 142.6 59 39 68.1 68.5 67.4 142 494.6-40.6 573.7 355 336.5 938.4 44.9 87 109.3 171.1 141.1 264.4 60.2 176.2 86.4 350.8 28.1 519.3h201c230.9 0 316-186.6 316.1-403.8V2510.5H4636.2c9.6 72 21 145.7 32.6 220.3-70.7 230 63.1 538 165.9 1045l-55 37.5c-61.3-311.3-62.6-326.5-152.5-805.3-22.5-119.8-35.7-240.8-46.5-362.1-4-45.2-9.2-90.3-14.1-135.4h-897.8V4996c0 222.7 103.6 395.5 335.3 401.8h687.8c97.3 0 253.8 176.3 284.3 311.8a485.5 485.5 0 01128.8-233.2zM3567.3 2384.5H4554c-2.8-34.1-4.9-68.3-5.8-102.6-7-264.2 43.6-609 346.7-662.6 258.9-45.9 381.5 181.2 388.8 360.3 3.8 90.7-38.2 172.6-134.7 188.5-110 18.1-178.2-44-196.2-122.3-26.2-113.7 77.9-241.6 219.4-184.5-42.5-185-148.9-218.3-269.5-195-254 48.9-299 398.4-288.6 613.7 1.6 34.3 4.3 69.2 7.7 104.5h1761v2656c0 228.5-143.4 456.9-386.3 456.9H5701a671.4 671.4 0 01-40.5 63.4c-40 55.5-200.5 194.8-264 210.1-58-108.9-74-196.4-67-273.5h-57c-14.5 0-29.3 3.3-44 9.5 33.9 308.6 88.4 769.8-263.9 899.4-211.5 77.8-421.7-35.6-455.8-296.6-34.7-265.8 304.6-361.6 361.5-106.4 27.3 122.2-119 258-243.2 182 6.8 186.4 177.6 231 319.4 179 272.5-99.6 225.5-508.8 179.4-773-70.1 84.7-128.6 210.6-149.8 308.5-32-142.5-196.7-402.4-299-402.4h-723.7c-243.6-6.6-386.2-222.7-386.2-457V2384.5zM5000 238.1c2629.4 0 4761.9 2132.5 4761.9 4761.9 0 2629.4-2132.5 4761.9-4761.9 4761.9-2629.4 0-4761.9-2132.5-4761.9-4761.9 0-2629.4 2132.5-4761.9 4761.9-4761.9zm0 102.2c2573 0 4659.7 2086.7 4659.7 4659.7S7573 9659.7 5000 9659.7 340.3 7573 340.3 5000 2427 340.3 5000 340.3z"/>
</svg>
