<svg width="32" height="32" viewBox="0 0 32 32" fill="none" xmlns="http://www.w3.org/2000/svg">
<path d="M18.6667 9.33333L18.6667 13.3333L28 13.3333L28 18.6667L18.6667 18.6667L18.6667 22.6667L12 16L18.6667 9.33333ZM18.6667 29.3333L6.66667 29.3333C5.95942 29.3333 5.28115 29.0524 4.78105 28.5523C4.28095 28.0522 4 27.3739 4 26.6667L4 5.33333C4 4.62609 4.28095 3.94781 4.78105 3.44772C5.28115 2.94762 5.95942 2.66667 6.66667 2.66667L18.6667 2.66667C19.3739 2.66667 20.0522 2.94762 20.5523 3.44772C21.0524 3.94781 21.3333 4.62609 21.3333 5.33333L21.3333 8L18.6667 8L18.6667 5.33333L6.66667 5.33333L6.66667 26.6667L18.6667 26.6667L18.6667 24L21.3333 24L21.3333 26.6667C21.3333 27.3739 21.0524 28.0522 20.5523 28.5523C20.0522 29.0524 19.3739 29.3333 18.6667 29.3333Z" fill="black"/>
</svg>
