<svg viewBox="0 0 841.9 595.3" xmlns="http://www.w3.org/2000/svg">
    <symbol id="icon-home" viewBox=" 0 0 32 32">
        <path d=" M3.99998 17.3333H5.33331V26.6666C5.33331 28.1373 6.52931 29.3333 7.99998 29.3333H24C25.4706 29.3333 26.6666 28.1373 26.6666 26.6666V17.3333H28C28.2636 17.3333 28.5214 17.255 28.7406 17.1085C28.9598 16.962 29.1307 16.7538 29.2316 16.5102C29.3324 16.2666 29.3588 15.9985 29.3074 15.7399C29.256 15.4813 29.1291 15.2438 28.9426 15.0573L16.9426 3.05732C16.8189 2.93339 16.672 2.83507 16.5102 2.76799C16.3485 2.70091 16.1751 2.66638 16 2.66638C15.8249 2.66638 15.6515 2.70091 15.4897 2.76799C15.328 2.83507 15.181 2.93339 15.0573 3.05732L3.05731 15.0573C2.8709 15.2438 2.74396 15.4813 2.69254 15.7399C2.64111 15.9985 2.66752 16.2666 2.76841 16.5102C2.8693 16.7538 3.04016 16.962 3.25937 17.1085C3.47858 17.255 3.73631 17.3333 3.99998 17.3333ZM13.3333 26.6666V20H18.6666V26.6666H13.3333ZM16 5.88532L24 13.8853V20L24.0013 26.6666H21.3333V20C21.3333 18.5293 20.1373 17.3333 18.6666 17.3333H13.3333C11.8626 17.3333 10.6666 18.5293 10.6666 20V26.6666H7.99998V13.8853L16 5.88532Z" />
    </symbol>

    <symbol id="icon-search" viewBox=" 0 0 32 32">
        <path fill-rule="evenodd" clip-rule="evenodd" d="M21.7666 19.8653L28.94 27.0387C29.1921 27.291 29.3337 27.6331 29.3336 27.9898C29.3334 28.3465 29.1916 28.6885 28.9393 28.9407C28.687 29.1928 28.3449 29.3344 27.9882 29.3342C27.6315 29.3341 27.2894 29.1923 27.0373 28.94L19.864 21.7667C17.7196 23.4276 15.023 24.2092 12.3228 23.9525C9.62261 23.6958 7.12162 22.42 5.32862 20.3848C3.53562 18.3496 2.5853 15.7077 2.67098 12.9967C2.75666 10.2857 3.87191 7.70913 5.78985 5.79119C7.70779 3.87325 10.2843 2.758 12.9954 2.67232C15.7064 2.58664 18.3482 3.53696 20.3835 5.32996C22.4187 7.12296 23.6944 9.62395 23.9511 12.3242C24.2078 15.0244 23.4262 17.7209 21.7653 19.8653H21.7666ZM13.3333 21.3333C15.455 21.3333 17.4899 20.4905 18.9902 18.9902C20.4905 17.4899 21.3333 15.4551 21.3333 13.3333C21.3333 11.2116 20.4905 9.17676 18.9902 7.67646C17.4899 6.17617 15.455 5.33332 13.3333 5.33332C11.2116 5.33332 9.17675 6.17617 7.67645 7.67646C6.17616 9.17676 5.33331 11.2116 5.33331 13.3333C5.33331 15.4551 6.17616 17.4899 7.67645 18.9902C9.17675 20.4905 11.2116 21.3333 13.3333 21.3333V21.3333Z" />
    </symbol>

    <symbol id="icon-schedule" viewBox=" 0 0 32 32">
        <path d="M21 30C19.4178 30 17.871 29.5308 16.5554 28.6518C15.2398 27.7727 14.2145 26.5233 13.609 25.0615C13.0035 23.5997 12.845 21.9911 13.1537 20.4393C13.4624 18.8874 14.2243 17.462 15.3431 16.3431C16.462 15.2243 17.8874 14.4624 19.4393 14.1537C20.9911 13.845 22.5997 14.0035 24.0615 14.609C25.5233 15.2145 26.7727 16.2398 27.6518 17.5554C28.5308 18.871 29 20.4178 29 22C29 24.1217 28.1571 26.1566 26.6569 27.6569C25.1566 29.1571 23.1217 30 21 30ZM21 16C19.8133 16 18.6533 16.3519 17.6666 17.0112C16.6799 17.6705 15.9109 18.6075 15.4567 19.7039C15.0026 20.8003 14.8838 22.0067 15.1153 23.1705C15.3468 24.3344 15.9182 25.4035 16.7574 26.2426C17.5965 27.0818 18.6656 27.6532 19.8295 27.8847C20.9933 28.1162 22.1997 27.9974 23.2961 27.5433C24.3925 27.0892 25.3295 26.3201 25.9888 25.3334C26.6481 24.3467 27 23.1867 27 22C27 20.4087 26.3679 18.8826 25.2426 17.7574C24.1174 16.6321 22.5913 16 21 16Z"/>
        <path d="M22.59 25L20 22.41V18H22V21.59L24 23.59L22.59 25Z"/>
        <path d="M28 6C28 5.46957 27.7893 4.96086 27.4142 4.58579C27.0391 4.21071 26.5304 4 26 4H22V2H20V4H12V2H10V4H6C5.46957 4 4.96086 4.21071 4.58579 4.58579C4.21071 4.96086 4 5.46957 4 6V26C4 26.5304 4.21071 27.0391 4.58579 27.4142C4.96086 27.7893 5.46957 28 6 28H10V26H6V6H10V8H12V6H20V8H22V6H26V12H28V6Z"/>
    </symbol>
    
    <symbol id="icon-eye" viewBox=" 0 0 32 32">
        <path d="M16 8C7.66401 8 1.25001 15.344 1.25001 15.344L0.656006 16L1.25001 16.656C1.25001 16.656 7.09801 23.324 14.875 23.938C15.246 23.984 15.617 24 16 24C16.383 24 16.754 23.984 17.125 23.937C24.902 23.324 30.75 16.657 30.75 16.657L31.344 16L30.75 15.344C30.75 15.344 24.336 8 16 8ZM16 10C18.203 10 20.234 10.602 22 11.406C22.637 12.461 23 13.676 23 15C23.0042 16.7238 22.3718 18.3884 21.2241 19.6746C20.0764 20.9607 18.4942 21.7778 16.781 21.969C16.761 21.973 16.738 21.965 16.719 21.969C16.48 21.98 16.242 22 16 22C15.734 22 15.477 21.984 15.219 21.969C13.5059 21.7778 11.9236 20.9607 10.7759 19.6746C9.62819 18.3884 8.99577 16.7238 9.00001 15C9.00001 13.695 9.35201 12.48 9.96901 11.437H9.93801C11.717 10.617 13.773 10 16 10ZM16 12C15.2041 12.0003 14.4409 12.3167 13.8783 12.8797C13.3157 13.4427 12.9997 14.2061 13 15.002C13.0003 15.7979 13.3167 16.5611 13.8797 17.1237C14.4427 17.6863 15.2061 18.0023 16.002 18.002C16.3961 18.0019 16.7863 17.9241 17.1504 17.7732C17.5144 17.6222 17.8452 17.4011 18.1237 17.1223C18.4023 16.8436 18.6233 16.5127 18.774 16.1485C18.9246 15.7844 19.0021 15.3941 19.002 15C19.0019 14.6059 18.9241 14.2157 18.7732 13.8516C18.6223 13.4876 18.4011 13.1568 18.1223 12.8783C17.8436 12.5997 17.5127 12.3787 17.1485 12.2281C16.7844 12.0774 16.3941 11.9999 16 12V12ZM7.25001 12.938C7.08742 13.6134 7.00353 14.3053 7.00001 15C7.00001 16.754 7.50001 18.395 8.37501 19.781C6.59981 18.7411 4.97085 17.4696 3.53101 16C4.66447 14.8565 5.91045 13.8303 7.25001 12.937V12.938ZM24.75 12.938C26.0895 13.831 27.3355 14.8568 28.469 16C27.0292 17.4696 25.4002 18.7411 23.625 19.781C24.527 18.3498 25.0038 16.6917 25 15C25 14.285 24.906 13.602 24.75 12.937V12.938Z"/>
    </symbol>

    <symbol id="icon-login" viewBox=" 0 0 32 32">
        <path d="M13.3333 22.6667V18.6667H4V13.3333H13.3333V9.33333L20 16L13.3333 22.6667ZM13.3333 2.66666H25.3333C26.0406 2.66666 26.7189 2.94762 27.219 3.44771C27.719 3.94781 28 4.62609 28 5.33333V26.6667C28 27.3739 27.719 28.0522 27.219 28.5523C26.7189 29.0524 26.0406 29.3333 25.3333 29.3333H13.3333C12.6261 29.3333 11.9478 29.0524 11.4477 28.5523C10.9476 28.0522 10.6667 27.3739 10.6667 26.6667V24H13.3333V26.6667H25.3333V5.33333H13.3333V8H10.6667V5.33333C10.6667 4.62609 10.9476 3.94781 11.4477 3.44771C11.9478 2.94762 12.6261 2.66666 13.3333 2.66666Z"/>
    </symbol>

    <symbol id="icon-exit" viewBox=" 0 0 32 32">
        <path d="M18.6667 9.33333L18.6667 13.3333L28 13.3333L28 18.6667L18.6667 18.6667L18.6667 22.6667L12 16L18.6667 9.33333ZM18.6667 29.3333L6.66667 29.3333C5.95942 29.3333 5.28115 29.0524 4.78105 28.5523C4.28095 28.0522 4 27.3739 4 26.6667L4 5.33333C4 4.62609 4.28095 3.94781 4.78105 3.44772C5.28115 2.94762 5.95942 2.66667 6.66667 2.66667L18.6667 2.66667C19.3739 2.66667 20.0522 2.94762 20.5523 3.44772C21.0524 3.94781 21.3333 4.62609 21.3333 5.33333L21.3333 8L18.6667 8L18.6667 5.33333L6.66667 5.33333L6.66667 26.6667L18.6667 26.6667L18.6667 24L21.3333 24L21.3333 26.6667C21.3333 27.3739 21.0524 28.0522 20.5523 28.5523C20.0522 29.0524 19.3739 29.3333 18.6667 29.3333Z"/>
    </symbol>
</svg>